STARTFONT 2.1
COMMENT
COMMENT Converted from OpenType font "Comfortaa-Regular.otf" by "otf2bdf 3.0".
COMMENT
FONT -FreeType-Comfortaa-Medium-R-Normal--28-200-100-100-P-153-ISO10646-1
SIZE 20 100 100
FONTBOUNDINGBOX 41 43 -6 -8
STARTPROPERTIES 19
FOUNDRY "FreeType"
FAMILY_NAME "Comfortaa"
WEIGHT_NAME "Medium"
SLANT "R"
SETWIDTH_NAME "Normal"
ADD_STYLE_NAME ""
PIXEL_SIZE 28
POINT_SIZE 200
RESOLUTION_X 100
RESOLUTION_Y 100
SPACING "P"
AVERAGE_WIDTH 153
CHARSET_REGISTRY "ISO10646"
CHARSET_ENCODING "1"
FONT_ASCENT 24
FONT_DESCENT 6
COPYRIGHT "Copyright 2011 The Comfortaa Project Authors (https://github.com/alexeiva/comfortaa), with Reserved Font Name "Comfortaa"."
_OTF_FONTFILE "Comfortaa-Regular.otf"
_OTF_PSNAME "Comfortaa-Regular"
ENDPROPERTIES
CHARS 850
STARTCHAR 0000
ENCODING 0
SWIDTH 0 0
DWIDTH 0 0
BBX 0 0 0 0
BITMAP
ENDCHAR
STARTCHAR 000D
ENCODING 13
SWIDTH 288 0
DWIDTH 8 0
BBX 0 0 0 0
BITMAP
ENDCHAR
STARTCHAR 0020
ENCODING 32
SWIDTH 288 0
DWIDTH 8 0
BBX 0 0 0 0
BITMAP
ENDCHAR
STARTCHAR 0021
ENCODING 33
SWIDTH 252 0
DWIDTH 7 0
BBX 4 22 1 0
BITMAP
60
60
60
60
60
60
60
60
60
60
60
60
60
60
60
60
60
00
00
60
F0
60
ENDCHAR
STARTCHAR 0022
ENCODING 34
SWIDTH 288 0
DWIDTH 8 0
BBX 6 6 1 16
BITMAP
48
DC
CC
C8
C8
C8
ENDCHAR
STARTCHAR 0023
ENCODING 35
SWIDTH 720 0
DWIDTH 20 0
BBX 18 22 1 0
BITMAP
010300
030300
030700
030600
030600
070600
060600
3FFFC0
3FFF80
060C00
060C00
0C0C00
0C0C00
7FFF00
FFFF80
0C1800
181800
181800
181800
183000
183000
103000
ENDCHAR
STARTCHAR 0024
ENCODING 36
SWIDTH 612 0
DWIDTH 17 0
BBX 14 27 1 -3
BITMAP
0100
0100
0100
1FE0
3FF8
311C
610C
6100
6100
6100
3100
3D00
0FC0
03F0
0138
011C
010C
010C
010C
C10C
E10C
7118
3FF8
0FE0
0100
0100
0100
ENDCHAR
STARTCHAR 0025
ENCODING 37
SWIDTH 864 0
DWIDTH 24 0
BBX 22 22 1 0
BITMAP
0C0020
3F8070
7BC0E0
E0C0C0
C0E1C0
C06380
C06700
E0E600
71CE00
3F9C00
1F3800
0071C0
0067F0
00EF38
01CC1C
039C0C
07180C
071C0C
0E0C1C
1C0E38
3807F0
1003E0
ENDCHAR
STARTCHAR 0026
ENCODING 38
SWIDTH 720 0
DWIDTH 20 0
BBX 18 22 1 0
BITMAP
0F8000
1FC000
38E000
306000
306000
306000
306000
18E000
1DC000
0F8000
070000
1F8000
39C000
30E180
607380
E03F00
C01E00
C01E00
E03F00
607380
3FE1C0
1F8000
ENDCHAR
STARTCHAR 0027
ENCODING 39
SWIDTH 144 0
DWIDTH 4 0
BBX 2 6 1 16
BITMAP
40
C0
C0
C0
C0
C0
ENDCHAR
STARTCHAR 0028
ENCODING 40
SWIDTH 252 0
DWIDTH 7 0
BBX 6 28 1 -7
BITMAP
08
1C
18
18
38
30
30
60
60
60
60
60
60
E0
E0
E0
60
60
60
60
60
70
30
30
38
18
18
0C
ENDCHAR
STARTCHAR 0029
ENCODING 41
SWIDTH 252 0
DWIDTH 7 0
BBX 6 28 0 -7
BITMAP
40
E0
60
70
30
30
38
18
18
18
18
1C
1C
1C
0C
0C
1C
18
18
18
18
18
30
30
70
60
60
E0
ENDCHAR
STARTCHAR 002A
ENCODING 42
SWIDTH 396 0
DWIDTH 11 0
BBX 9 8 1 14
BITMAP
0800
1800
0900
EB80
7F00
1C00
3600
6600
ENDCHAR
STARTCHAR 002B
ENCODING 43
SWIDTH 540 0
DWIDTH 15 0
BBX 13 13 1 3
BITMAP
0300
0700
0700
0700
0700
FFF8
FFF8
0700
0700
0700
0700
0700
0200
ENDCHAR
STARTCHAR 002C
ENCODING 44
SWIDTH 216 0
DWIDTH 6 0
BBX 4 7 1 -5
BITMAP
60
F0
70
70
30
60
60
ENDCHAR
STARTCHAR 002D
ENCODING 45
SWIDTH 396 0
DWIDTH 11 0
BBX 9 2 1 7
BITMAP
7F00
FF80
ENDCHAR
STARTCHAR 002E
ENCODING 46
SWIDTH 216 0
DWIDTH 6 0
BBX 4 3 1 0
BITMAP
60
F0
E0
ENDCHAR
STARTCHAR 002F
ENCODING 47
SWIDTH 468 0
DWIDTH 13 0
BBX 11 24 1 -2
BITMAP
0060
0060
00E0
00C0
01C0
0180
0180
0380
0300
0700
0600
0600
0E00
0C00
1C00
1800
1800
3800
3000
7000
6000
6000
E000
C000
ENDCHAR
STARTCHAR 0030
ENCODING 48
SWIDTH 576 0
DWIDTH 16 0
BBX 13 22 1 0
BITMAP
0780
1FC0
3DE0
3870
7030
6038
6018
6018
E018
E018
E018
E018
E018
E018
6018
6018
6018
7038
3030
3CE0
1FE0
0780
ENDCHAR
STARTCHAR 0031
ENCODING 49
SWIDTH 396 0
DWIDTH 11 0
BBX 7 22 1 0
BITMAP
04
3E
FE
E6
06
06
06
06
06
06
06
06
06
06
06
06
06
06
06
06
06
06
ENDCHAR
STARTCHAR 0032
ENCODING 50
SWIDTH 576 0
DWIDTH 16 0
BBX 13 22 2 0
BITMAP
0E00
3FC0
79E0
6070
E030
C030
C030
C030
0030
0070
00E0
00C0
0180
0380
0700
0E00
1C00
1800
3000
6000
FFF8
FFF8
ENDCHAR
STARTCHAR 0033
ENCODING 51
SWIDTH 576 0
DWIDTH 16 0
BBX 13 22 2 0
BITMAP
0F00
3FC0
78E0
6070
E030
C030
4030
0070
00E0
03C0
07C0
00E0
0030
0038
8018
C018
C018
C018
E030
7070
3FE0
1F80
ENDCHAR
STARTCHAR 0034
ENCODING 52
SWIDTH 648 0
DWIDTH 18 0
BBX 17 22 0 0
BITMAP
000800
001C00
003C00
007C00
007C00
00DC00
01DC00
039C00
031C00
061C00
0E1C00
1C1C00
181C00
301C00
701C00
FFFF80
7FFF00
001C00
001C00
001C00
001C00
000800
ENDCHAR
STARTCHAR 0035
ENCODING 53
SWIDTH 612 0
DWIDTH 17 0
BBX 14 22 2 0
BITMAP
7FF0
7FF8
6000
6000
6000
6000
6000
6000
7FC0
7FE0
0070
0038
0018
001C
C00C
C00C
C01C
E018
6038
7870
3FE0
0FC0
ENDCHAR
STARTCHAR 0036
ENCODING 54
SWIDTH 576 0
DWIDTH 16 0
BBX 13 22 2 0
BITMAP
0080
01C0
0380
0300
0700
0600
0E00
1C00
1800
3F80
3FE0
70F0
E030
C038
C018
C018
C018
C038
E030
70F0
3FE0
0F80
ENDCHAR
STARTCHAR 0037
ENCODING 55
SWIDTH 576 0
DWIDTH 16 0
BBX 14 22 1 0
BITMAP
7FF8
FFFC
0018
0038
0030
0030
0060
0060
00E0
00C0
01C0
0180
0380
0300
0700
0600
0E00
0C00
1C00
1800
1800
1000
ENDCHAR
STARTCHAR 0038
ENCODING 56
SWIDTH 576 0
DWIDTH 16 0
BBX 13 22 2 0
BITMAP
0700
1FC0
38E0
7060
6060
6030
6060
7060
38E0
1FC0
3FC0
70E0
E030
C030
C038
C018
C038
C030
E030
70E0
3FE0
1F80
ENDCHAR
STARTCHAR 0039
ENCODING 57
SWIDTH 576 0
DWIDTH 16 0
BBX 13 22 1 0
BITMAP
0300
1FE0
3CF0
7030
6018
C018
C018
C018
E018
6038
7070
3FF0
1FE0
00C0
01C0
0180
0380
0700
0600
0E00
0C00
0C00
ENDCHAR
STARTCHAR 003A
ENCODING 58
SWIDTH 180 0
DWIDTH 5 0
BBX 3 15 1 0
BITMAP
E0
E0
E0
00
00
00
00
00
00
00
00
00
40
E0
E0
ENDCHAR
STARTCHAR 003B
ENCODING 59
SWIDTH 216 0
DWIDTH 6 0
BBX 4 19 1 -5
BITMAP
E0
E0
E0
00
00
00
00
00
00
00
00
00
60
F0
70
70
30
60
60
ENDCHAR
STARTCHAR 003C
ENCODING 60
SWIDTH 540 0
DWIDTH 15 0
BBX 13 15 1 3
BITMAP
0038
0078
01E0
0780
0F00
3C00
F000
F000
7800
1E00
0F80
03C0
00F0
0078
0018
ENDCHAR
STARTCHAR 003D
ENCODING 61
SWIDTH 504 0
DWIDTH 14 0
BBX 12 9 1 5
BITMAP
FFF0
FFF0
0000
0000
0000
0000
7FE0
FFF0
7FE0
ENDCHAR
STARTCHAR 003E
ENCODING 62
SWIDTH 540 0
DWIDTH 15 0
BBX 13 15 1 3
BITMAP
E000
7800
3C00
0F00
07C0
01E0
0078
0038
00F0
03C0
0F80
1E00
7800
F000
C000
ENDCHAR
STARTCHAR 003F
ENCODING 63
SWIDTH 540 0
DWIDTH 15 0
BBX 13 22 1 0
BITMAP
0FC0
3FE0
7070
6038
E018
C018
C018
0018
0038
0070
00E0
01C0
0180
0300
0300
0300
0300
0000
0000
0700
0700
0700
ENDCHAR
STARTCHAR 0040
ENCODING 64
SWIDTH 1080 0
DWIDTH 30 0
BBX 28 28 1 -6
BITMAP
000F0000
00FFF000
03FDFC00
07801E00
0E000780
1C000380
380001C0
301FC0E0
707FE060
60F07070
60C03830
E1C01830
C1801C30
C1800C30
C1800C30
C1800C30
C1801C30
E1C01C30
60E03C70
60F0EC60
707FCCE0
301F8FC0
38000780
1C000000
0F000000
07C01800
01FFF800
007FE000
ENDCHAR
STARTCHAR 0041
ENCODING 65
SWIDTH 720 0
DWIDTH 20 0
BBX 18 22 1 0
BITMAP
008000
00C000
01C000
01E000
03E000
033000
073000
063800
061800
0C1800
0C0C00
1C0C00
180E00
180600
300700
3FFF00
7FFF00
600380
E00180
C001C0
C000C0
8000C0
ENDCHAR
STARTCHAR 0042
ENCODING 66
SWIDTH 684 0
DWIDTH 19 0
BBX 15 22 3 0
BITMAP
FF80
FFE0
C0F0
C018
C018
C01C
C018
C018
C038
FFF0
FFE0
C0F8
C01C
C00C
C00E
C006
C006
C00E
C00C
C03C
FFF8
FFE0
ENDCHAR
STARTCHAR 0043
ENCODING 67
SWIDTH 756 0
DWIDTH 21 0
BBX 18 22 2 0
BITMAP
01FC00
07FF00
0F0780
1C01C0
380000
700000
600000
E00000
C00000
C00000
C00000
C00000
C00000
C00000
C00000
600000
700000
300000
380080
1E03C0
07FF80
01FE00
ENDCHAR
STARTCHAR 0044
ENCODING 68
SWIDTH 756 0
DWIDTH 21 0
BBX 17 22 3 0
BITMAP
FF0000
FFE000
C0F800
C01C00
C00E00
C00600
C00700
C00300
C00300
C00380
C00180
C00180
C00380
C00300
C00300
C00300
C00600
C00E00
C01C00
C07800
FFF000
FF8000
ENDCHAR
STARTCHAR 0045
ENCODING 69
SWIDTH 684 0
DWIDTH 19 0
BBX 15 22 3 0
BITMAP
FFFE
FFFE
C000
C000
C000
C000
C000
C000
C000
C000
FFF0
FFF0
C000
C000
C000
C000
C000
C000
C000
C000
FFFE
FFFE
ENDCHAR
STARTCHAR 0046
ENCODING 70
SWIDTH 612 0
DWIDTH 17 0
BBX 15 22 1 0
BITMAP
7FFE
FFFE
C000
C000
C000
C000
C000
C000
C000
C000
FFF0
FFF0
C000
C000
C000
C000
C000
C000
C000
C000
C000
C000
ENDCHAR
STARTCHAR 0047
ENCODING 71
SWIDTH 756 0
DWIDTH 21 0
BBX 18 22 2 0
BITMAP
01FC00
07FF00
0F0780
1C01C0
380000
700000
600000
E00000
C00000
C00000
C00000
C03F80
C03FC0
C000C0
C000C0
6000C0
7000C0
3000C0
3800C0
1E03C0
07FF80
01FE00
ENDCHAR
STARTCHAR 0048
ENCODING 72
SWIDTH 828 0
DWIDTH 23 0
BBX 18 22 3 0
BITMAP
800080
C001C0
C001C0
C001C0
C001C0
C001C0
C001C0
C001C0
C001C0
C001C0
FFFFC0
FFFFC0
C001C0
C001C0
C001C0
C001C0
C001C0
C001C0
C001C0
C001C0
C001C0
C00080
ENDCHAR
STARTCHAR 0049
ENCODING 73
SWIDTH 288 0
DWIDTH 8 0
BBX 2 22 3 0
BITMAP
80
C0
C0
C0
C0
C0
C0
C0
C0
C0
C0
C0
C0
C0
C0
C0
C0
C0
C0
C0
C0
C0
ENDCHAR
STARTCHAR 004A
ENCODING 74
SWIDTH 612 0
DWIDTH 17 0
BBX 13 22 1 0
BITMAP
0008
0018
0018
0018
0018
0018
0018
0018
0018
0018
0018
0018
0018
0018
0018
C018
C018
E018
6038
7070
3FE0
0FC0
ENDCHAR
STARTCHAR 004B
ENCODING 75
SWIDTH 648 0
DWIDTH 18 0
BBX 14 22 3 0
BITMAP
8004
C01C
C038
C070
C0E0
C1C0
C380
C700
CE00
DC00
FE00
F600
E700
C380
C180
C1C0
C0E0
C070
C030
C038
C01C
C00C
ENDCHAR
STARTCHAR 004C
ENCODING 76
SWIDTH 648 0
DWIDTH 18 0
BBX 14 22 3 0
BITMAP
8000
C000
C000
C000
C000
C000
C000
C000
C000
C000
C000
C000
C000
C000
C000
C000
C000
C000
C000
C000
FFFC
FFFC
ENDCHAR
STARTCHAR 004D
ENCODING 77
SWIDTH 972 0
DWIDTH 27 0
BBX 21 22 3 0
BITMAP
800008
C00018
E00018
E00038
F00038
F00078
F80078
D800D8
DC00D8
CC0198
CE0198
C60318
C70318
C30618
C38618
C18C18
C1CC18
C0D818
C0F818
C07018
C07018
C00018
ENDCHAR
STARTCHAR 004E
ENCODING 78
SWIDTH 828 0
DWIDTH 23 0
BBX 17 22 3 0
BITMAP
800080
C00180
E00180
F00180
F80180
D80180
CC0180
CE0180
C70180
C30180
C18180
C0C180
C0E180
C06180
C03180
C01980
C01D80
C00D80
C00780
C00380
C00380
C00180
ENDCHAR
STARTCHAR 004F
ENCODING 79
SWIDTH 936 0
DWIDTH 26 0
BBX 22 22 2 0
BITMAP
01FC00
07FF80
0F07C0
1C00E0
380070
700030
600018
E00018
C0001C
C0000C
C0000C
C0000C
C0000C
C0001C
C00018
E00018
600038
300070
3800E0
1E03C0
0FFF80
01FE00
ENDCHAR
STARTCHAR 0050
ENCODING 80
SWIDTH 612 0
DWIDTH 17 0
BBX 13 22 3 0
BITMAP
FF00
FFC0
C1F0
C030
C038
C018
C018
C018
C018
C018
C038
C070
FFE0
FFC0
C000
C000
C000
C000
C000
C000
C000
C000
ENDCHAR
STARTCHAR 0051
ENCODING 81
SWIDTH 936 0
DWIDTH 26 0
BBX 22 22 2 0
BITMAP
01FC00
07FF80
0F07C0
1C00E0
380070
700030
600018
E00018
C0001C
C0000C
C0000C
C0000C
C0000C
C0001C
C00618
E00718
6003B8
3001F0
3800E0
1E03F0
0FFFB8
01FE18
ENDCHAR
STARTCHAR 0052
ENCODING 82
SWIDTH 612 0
DWIDTH 17 0
BBX 13 22 3 0
BITMAP
FF00
FFC0
C1E0
C070
C038
C018
C018
C018
C018
C038
C070
FFE0
FFC0
FF80
C1C0
C0C0
C0E0
C070
C030
C038
C018
C008
ENDCHAR
STARTCHAR 0053
ENCODING 83
SWIDTH 648 0
DWIDTH 18 0
BBX 15 22 2 0
BITMAP
0FC0
3FF0
7838
601C
E00C
E000
E000
6000
7000
3E00
0FE0
01F8
003C
000C
000C
000E
000E
C00C
E00C
703C
3FF8
0FE0
ENDCHAR
STARTCHAR 0054
ENCODING 84
SWIDTH 648 0
DWIDTH 18 0
BBX 18 22 0 0
BITMAP
7FFF80
FFFFC0
00C000
00C000
00C000
00C000
00C000
00C000
00C000
00C000
00C000
00C000
00C000
00C000
00C000
00C000
00C000
00C000
00C000
00C000
00C000
00C000
ENDCHAR
STARTCHAR 0055
ENCODING 85
SWIDTH 828 0
DWIDTH 23 0
BBX 17 22 3 0
BITMAP
800100
C00180
C00180
C00180
C00180
C00180
C00180
C00180
C00180
C00180
C00180
C00180
C00180
C00180
C00180
C00180
C00180
E00300
600700
780E00
3FFC00
0FF800
ENDCHAR
STARTCHAR 0056
ENCODING 86
SWIDTH 720 0
DWIDTH 20 0
BBX 18 22 1 0
BITMAP
800040
C000C0
C000C0
E001C0
600180
700380
300300
300300
380600
180600
1C0E00
0C0C00
0C0C00
061800
061800
073000
033000
03F000
01E000
01E000
00C000
00C000
ENDCHAR
STARTCHAR 0057
ENCODING 87
SWIDTH 936 0
DWIDTH 26 0
BBX 24 22 1 0
BITMAP
800001
C01803
C01803
C03C03
E03C07
603C06
603C06
606606
30660C
30660C
30C30C
38C31C
18C318
18C318
198198
0D81B0
0D81B0
0D81B0
0700E0
0700E0
0700E0
060040
ENDCHAR
STARTCHAR 0058
ENCODING 88
SWIDTH 720 0
DWIDTH 20 0
BBX 17 22 1 0
BITMAP
400080
600180
700380
380700
180600
0C0C00
0E1C00
073800
033000
03E000
01E000
01E000
03F000
073000
063800
0E1C00
1C0C00
180600
300700
700380
E00180
C00180
ENDCHAR
STARTCHAR 0059
ENCODING 89
SWIDTH 648 0
DWIDTH 18 0
BBX 18 22 0 0
BITMAP
400080
E000C0
600180
700380
300300
180600
1C0E00
0C0C00
0E1C00
061800
033000
03F000
01E000
00C000
00C000
00C000
00C000
00C000
00C000
00C000
00C000
00C000
ENDCHAR
STARTCHAR 005A
ENCODING 90
SWIDTH 720 0
DWIDTH 20 0
BBX 18 22 1 0
BITMAP
7FFF80
7FFFC0
000180
000300
000700
000E00
000C00
001800
003000
007000
00E000
00C000
018000
030000
070000
0E0000
0C0000
180000
300000
700000
FFFFC0
7FFFC0
ENDCHAR
STARTCHAR 005B
ENCODING 91
SWIDTH 288 0
DWIDTH 8 0
BBX 6 29 2 -7
BITMAP
FC
FC
C0
C0
C0
C0
C0
C0
C0
C0
C0
C0
C0
C0
C0
C0
C0
C0
C0
C0
C0
C0
C0
C0
C0
C0
FC
FC
78
ENDCHAR
STARTCHAR 005C
ENCODING 92
SWIDTH 468 0
DWIDTH 13 0
BBX 11 24 1 -2
BITMAP
4000
C000
E000
6000
7000
3000
3000
3800
1800
1C00
0C00
0C00
0E00
0600
0700
0300
0300
0380
0180
01C0
00C0
00C0
00E0
0060
ENDCHAR
STARTCHAR 005D
ENCODING 93
SWIDTH 288 0
DWIDTH 8 0
BBX 7 29 0 -7
BITMAP
7C
FE
0E
0E
0E
0E
0E
0E
0E
0E
0E
0E
0E
0E
0E
0E
0E
0E
0E
0E
0E
0E
0E
0E
0E
0E
7E
FE
7C
ENDCHAR
STARTCHAR 005E
ENCODING 94
SWIDTH 468 0
DWIDTH 13 0
BBX 11 9 1 13
BITMAP
0400
0E00
0F00
1F00
3B80
31C0
70C0
E0E0
C060
ENDCHAR
STARTCHAR 005F
ENCODING 95
SWIDTH 468 0
DWIDTH 13 0
BBX 15 2 -1 -2
BITMAP
FFFE
FFFE
ENDCHAR
STARTCHAR 0060
ENCODING 96
SWIDTH 288 0
DWIDTH 8 0
BBX 5 5 1 16
BITMAP
40
E0
70
38
18
ENDCHAR
STARTCHAR 0061
ENCODING 97
SWIDTH 684 0
DWIDTH 19 0
BBX 15 15 2 0
BITMAP
0FE0
3FF0
7038
600C
C00E
C006
C006
C006
C006
C006
E00E
601E
783E
3FF6
0FC6
ENDCHAR
STARTCHAR 0062
ENCODING 98
SWIDTH 720 0
DWIDTH 20 0
BBX 16 22 2 0
BITMAP
4000
E000
E000
E000
E000
E000
E000
E7F0
EFF8
F81C
F00E
E006
E003
E003
E003
6003
6007
6006
300E
381C
1FF8
07E0
ENDCHAR
STARTCHAR 0063
ENCODING 99
SWIDTH 612 0
DWIDTH 17 0
BBX 13 15 2 0
BITMAP
0FC0
3FF0
7038
6018
C000
C000
C000
C000
C000
C000
E000
6000
7838
3FF0
0FE0
ENDCHAR
STARTCHAR 0064
ENCODING 100
SWIDTH 720 0
DWIDTH 20 0
BBX 15 22 2 0
BITMAP
0002
0006
0006
0006
0006
0006
0006
0FE6
3FF6
703E
600E
C00E
C006
C006
C006
C006
C006
E00E
601C
7838
3FF0
0FE0
ENDCHAR
STARTCHAR 0065
ENCODING 101
SWIDTH 612 0
DWIDTH 17 0
BBX 14 15 2 0
BITMAP
1FC0
3FF0
7038
6018
C01C
C00C
FFFC
FFFC
C000
C000
C000
6000
7038
3FF0
0FE0
ENDCHAR
STARTCHAR 0066
ENCODING 102
SWIDTH 360 0
DWIDTH 10 0
BBX 9 22 1 0
BITMAP
0180
0F80
0E00
1800
1800
3800
3800
FF00
FF80
3800
3800
3800
3800
3800
3800
3800
3800
3800
3800
3800
3800
3000
ENDCHAR
STARTCHAR 0067
ENCODING 103
SWIDTH 684 0
DWIDTH 19 0
BBX 15 21 2 -6
BITMAP
0FE0
3FF8
701C
600C
C00E
C006
C006
C006
C006
C006
E00E
600E
783E
3FF6
0FC6
0006
400C
601C
7838
3FF0
0FC0
ENDCHAR
STARTCHAR 0068
ENCODING 104
SWIDTH 684 0
DWIDTH 19 0
BBX 15 22 2 0
BITMAP
4000
E000
E000
E000
E000
E000
E000
EFE0
FFF8
F838
E01C
E00C
E00C
E00E
E00E
E00E
E00E
E00E
E00E
E00E
E00E
4004
ENDCHAR
STARTCHAR 0069
ENCODING 105
SWIDTH 288 0
DWIDTH 8 0
BBX 4 21 2 0
BITMAP
60
F0
60
00
00
00
60
60
60
60
60
60
60
60
60
60
60
60
60
60
60
ENDCHAR
STARTCHAR 006A
ENCODING 106
SWIDTH 288 0
DWIDTH 8 0
BBX 8 28 -3 -7
BITMAP
03
07
03
00
00
00
03
03
03
03
03
03
03
03
03
03
03
03
03
03
03
03
03
07
0E
7C
F8
40
ENDCHAR
STARTCHAR 006B
ENCODING 107
SWIDTH 576 0
DWIDTH 16 0
BBX 12 22 2 0
BITMAP
4000
E000
E000
E000
E000
E000
E000
E030
E070
E0C0
E380
E700
EE00
FC00
FE00
F700
E380
E1C0
E0C0
E060
E070
4030
ENDCHAR
STARTCHAR 006C
ENCODING 108
SWIDTH 288 0
DWIDTH 8 0
BBX 5 22 2 0
BITMAP
80
C0
C0
C0
C0
C0
C0
C0
C0
C0
C0
C0
C0
C0
C0
C0
C0
C0
C0
E0
78
38
ENDCHAR
STARTCHAR 006D
ENCODING 109
SWIDTH 936 0
DWIDTH 26 0
BBX 22 15 2 0
BITMAP
6FC7F0
FFEFF8
F07C18
E0381C
E0380C
E0300C
E0300C
E0300C
E0300C
E0300C
E0300C
E0300C
E0300C
E0300C
40300C
ENDCHAR
STARTCHAR 006E
ENCODING 110
SWIDTH 684 0
DWIDTH 19 0
BBX 15 15 2 0
BITMAP
6FE0
FFF8
F838
E01C
E00C
E00C
E00E
E00E
E00E
E00E
E00E
E00E
E00E
E00E
4004
ENDCHAR
STARTCHAR 006F
ENCODING 111
SWIDTH 684 0
DWIDTH 19 0
BBX 15 15 2 0
BITMAP
0FE0
3FF8
7038
600C
C00E
C006
C006
C006
C006
C006
E00E
601C
7838
3FF0
0FE0
ENDCHAR
STARTCHAR 0070
ENCODING 112
SWIDTH 720 0
DWIDTH 20 0
BBX 16 22 2 -7
BITMAP
07F0
1FF8
381C
700E
6006
6003
6003
E003
E003
E007
E006
F00E
F81C
EFF8
E7F0
E000
E000
E000
E000
E000
E000
4000
ENDCHAR
STARTCHAR 0071
ENCODING 113
SWIDTH 720 0
DWIDTH 20 0
BBX 15 21 2 -7
BITMAP
0FE0
3FF0
7038
600C
C00E
C006
C006
C006
C006
C006
E00E
601E
783E
3FF6
0FC6
0006
0006
0006
0006
0006
0006
ENDCHAR
STARTCHAR 0072
ENCODING 114
SWIDTH 468 0
DWIDTH 13 0
BBX 10 15 2 0
BITMAP
6FC0
FFC0
F000
E000
E000
E000
E000
E000
E000
E000
E000
E000
E000
E000
4000
ENDCHAR
STARTCHAR 0073
ENCODING 115
SWIDTH 540 0
DWIDTH 15 0
BBX 12 15 2 0
BITMAP
3F80
7FE0
E060
C020
C000
6000
7E00
1FC0
01E0
0070
0030
8030
E060
7FE0
3F80
ENDCHAR
STARTCHAR 0074
ENCODING 116
SWIDTH 396 0
DWIDTH 11 0
BBX 9 20 1 0
BITMAP
3000
3000
3000
3000
3000
FF00
FF80
3000
3000
3000
3000
3000
3000
3000
3000
3800
1800
1C00
0F80
0780
ENDCHAR
STARTCHAR 0075
ENCODING 117
SWIDTH 684 0
DWIDTH 19 0
BBX 14 15 2 0
BITMAP
C00C
C00C
C00C
C00C
C00C
C00C
C00C
C00C
C00C
E00C
600C
601C
783C
3FFC
0FCC
ENDCHAR
STARTCHAR 0076
ENCODING 118
SWIDTH 540 0
DWIDTH 15 0
BBX 15 15 0 0
BITMAP
C006
600E
600C
300C
3018
1818
1830
1C30
0C60
0E60
06E0
07C0
03C0
0380
0180
ENDCHAR
STARTCHAR 0077
ENCODING 119
SWIDTH 756 0
DWIDTH 21 0
BBX 19 15 1 0
BITMAP
80C060
C0E060
C0E0E0
C1E0C0
61B0C0
61B0C0
633180
331180
331980
321B00
1E1B00
1E0F00
1C0E00
0C0E00
0C0600
ENDCHAR
STARTCHAR 0078
ENCODING 120
SWIDTH 540 0
DWIDTH 15 0
BBX 13 15 1 0
BITMAP
C018
6038
7070
3860
1CC0
0D80
0780
0700
0F80
1DC0
18E0
3060
7030
E038
C018
ENDCHAR
STARTCHAR 0079
ENCODING 121
SWIDTH 540 0
DWIDTH 15 0
BBX 14 22 1 -7
BITMAP
C00C
C00C
C018
6018
6030
3030
3060
1860
18E0
0CC0
0DC0
0780
0780
0300
0300
0600
0600
0C00
0C00
1C00
1800
0800
ENDCHAR
STARTCHAR 007A
ENCODING 122
SWIDTH 540 0
DWIDTH 15 0
BBX 12 15 2 0
BITMAP
FFF0
FFF0
0060
00C0
0180
0380
0700
0600
0C00
1800
3800
7000
6000
FFF0
FFF0
ENDCHAR
STARTCHAR 007B
ENCODING 123
SWIDTH 396 0
DWIDTH 11 0
BBX 9 29 1 -7
BITMAP
0380
0780
0F00
0C00
0C00
0C00
0C00
0C00
0C00
0C00
0C00
0C00
1C00
7800
F800
3800
1C00
0C00
0C00
0C00
0C00
0C00
0C00
0C00
0C00
0C00
0F00
0780
0100
ENDCHAR
STARTCHAR 007C
ENCODING 124
SWIDTH 396 0
DWIDTH 11 0
BBX 3 29 4 -7
BITMAP
40
E0
E0
E0
E0
E0
E0
E0
E0
E0
E0
E0
E0
E0
E0
E0
E0
E0
E0
E0
E0
E0
E0
E0
E0
E0
E0
C0
40
ENDCHAR
STARTCHAR 007D
ENCODING 125
SWIDTH 396 0
DWIDTH 11 0
BBX 9 29 0 -7
BITMAP
6000
F800
3800
1C00
0C00
0C00
0C00
0C00
0C00
0C00
0C00
0C00
0C00
0F00
0780
0F00
0C00
0C00
0C00
0C00
0C00
0C00
0C00
0C00
0C00
1C00
7800
F800
4000
ENDCHAR
STARTCHAR 007E
ENCODING 126
SWIDTH 468 0
DWIDTH 13 0
BBX 11 3 1 8
BITMAP
3C00
7F60
C7E0
ENDCHAR
STARTCHAR 00A0
ENCODING 160
SWIDTH 288 0
DWIDTH 8 0
BBX 0 0 0 0
BITMAP
ENDCHAR
STARTCHAR 00A1
ENCODING 161
SWIDTH 252 0
DWIDTH 7 0
BBX 3 22 3 -7
BITMAP
E0
E0
E0
00
00
C0
C0
C0
C0
C0
C0
C0
C0
C0
C0
C0
C0
C0
C0
C0
C0
40
ENDCHAR
STARTCHAR 00A2
ENCODING 162
SWIDTH 612 0
DWIDTH 17 0
BBX 13 21 2 -3
BITMAP
0020
0060
0040
0FC0
3FF0
70B8
6198
C180
C100
C300
C200
C600
C600
E400
6C00
7C38
3FF0
1FE0
1000
3000
3000
ENDCHAR
STARTCHAR 00A3
ENCODING 163
SWIDTH 504 0
DWIDTH 14 0
BBX 13 22 1 0
BITMAP
0300
1FC0
3DE0
3070
7000
6000
6000
7000
3000
3000
3800
FFC0
FFC0
1800
1800
1800
3800
3000
3018
3018
7FF8
7FF0
ENDCHAR
STARTCHAR 00A4
ENCODING 164
SWIDTH 504 0
DWIDTH 14 0
BBX 12 12 1 4
BITMAP
4060
EFF0
7FE0
39C0
70E0
6060
6060
70E0
3FC0
7FE0
EF70
4020
ENDCHAR
STARTCHAR 00A5
ENCODING 165
SWIDTH 648 0
DWIDTH 18 0
BBX 18 22 0 0
BITMAP
400080
E000C0
600180
700380
300300
180600
1C0E00
0C0C00
0E1C00
061800
033000
03F000
0FFC00
0FFC00
00C000
00C000
0FFC00
07FC00
00C000
00C000
00C000
00C000
ENDCHAR
STARTCHAR 00A6
ENCODING 166
SWIDTH 252 0
DWIDTH 7 0
BBX 2 30 2 -7
BITMAP
C0
C0
C0
C0
C0
C0
C0
C0
C0
C0
C0
C0
00
00
00
00
00
00
00
C0
C0
C0
C0
C0
C0
C0
C0
C0
C0
C0
ENDCHAR
STARTCHAR 00A7
ENCODING 167
SWIDTH 468 0
DWIDTH 13 0
BBX 11 29 1 -7
BITMAP
0400
3F80
7BC0
60E0
C060
C060
C060
E000
7000
3F00
3F80
71C0
E0E0
C060
C060
C060
E0E0
7BC0
3F80
0FC0
01C0
00E0
C060
C060
E0E0
60C0
7FC0
3F80
0400
ENDCHAR
STARTCHAR 00A8
ENCODING 168
SWIDTH 468 0
DWIDTH 13 0
BBX 9 3 2 17
BITMAP
6380
E380
4100
ENDCHAR
STARTCHAR 00A9
ENCODING 169
SWIDTH 864 0
DWIDTH 24 0
BBX 22 22 1 0
BITMAP
007800
03FF00
0F03C0
1C00E0
387870
31FE30
638718
670318
46000C
C6000C
C6000C
C6000C
C6000C
C6000C
670018
638318
31FF38
38FC70
1C00E0
0F03C0
03FF80
00FE00
ENDCHAR
STARTCHAR 00AA
ENCODING 170
SWIDTH 468 0
DWIDTH 13 0
BBX 11 11 1 11
BITMAP
1F00
3F80
71C0
E0E0
C060
C060
C060
E0E0
71E0
3FE0
1F60
ENDCHAR
STARTCHAR 00AB
ENCODING 171
SWIDTH 468 0
DWIDTH 13 0
BBX 11 15 1 0
BITMAP
1860
18E0
38C0
31C0
7180
6380
E300
C300
E300
6380
7180
31C0
38C0
18E0
0860
ENDCHAR
STARTCHAR 00AC
ENCODING 172
SWIDTH 540 0
DWIDTH 15 0
BBX 13 6 1 6
BITMAP
FFF8
FFF8
0018
0018
0018
0018
ENDCHAR
STARTCHAR 00AD
ENCODING 173
SWIDTH 396 0
DWIDTH 11 0
BBX 9 2 1 7
BITMAP
7F00
FF80
ENDCHAR
STARTCHAR 00AE
ENCODING 174
SWIDTH 864 0
DWIDTH 24 0
BBX 22 22 1 0
BITMAP
007800
03FF00
0F03C0
1C00E0
39F870
31FE30
618618
618318
41830C
C1830C
C1860C
C1FC0C
C1F80C
C18C0C
618618
618618
318338
390070
1C00E0
0F03C0
03FF80
00FE00
ENDCHAR
STARTCHAR 00AF
ENCODING 175
SWIDTH 540 0
DWIDTH 15 0
BBX 9 2 3 18
BITMAP
FF80
FF80
ENDCHAR
STARTCHAR 00B0
ENCODING 176
SWIDTH 468 0
DWIDTH 13 0
BBX 11 11 1 11
BITMAP
0E00
3F80
7BC0
60C0
C0E0
C060
C060
E0E0
71C0
3F80
1F00
ENDCHAR
STARTCHAR 00B1
ENCODING 177
SWIDTH 540 0
DWIDTH 15 0
BBX 13 14 1 4
BITMAP
0200
0700
0700
0700
0700
0700
FFF8
FFF8
0700
0700
0700
0700
FFF8
FFF8
ENDCHAR
STARTCHAR 00B2
ENCODING 178
SWIDTH 360 0
DWIDTH 10 0
BBX 8 11 1 11
BITMAP
3C
7E
C6
C3
06
0E
1C
18
30
7E
FF
ENDCHAR
STARTCHAR 00B3
ENCODING 179
SWIDTH 360 0
DWIDTH 10 0
BBX 8 12 1 10
BITMAP
3C
7E
C6
C2
06
1C
06
C3
C3
66
7E
08
ENDCHAR
STARTCHAR 00B4
ENCODING 180
SWIDTH 288 0
DWIDTH 8 0
BBX 5 6 1 16
BITMAP
08
18
38
70
E0
40
ENDCHAR
STARTCHAR 00B5
ENCODING 181
SWIDTH 684 0
DWIDTH 19 0
BBX 14 21 2 -7
BITMAP
C00C
C00C
C00C
C00C
C00C
C00C
C00C
C00C
C00C
E00C
E00C
F01C
F83C
DFFC
C7CC
C000
C000
C000
C000
C000
C000
ENDCHAR
STARTCHAR 00B6
ENCODING 182
SWIDTH 576 0
DWIDTH 16 0
BBX 14 22 1 0
BITMAP
07F8
3FFC
7F38
7F38
FF38
FF38
FF38
7F38
7F38
3F38
1F38
0338
0338
0338
0338
0338
0338
0338
0338
0338
0338
0310
ENDCHAR
STARTCHAR 00B7
ENCODING 183
SWIDTH 180 0
DWIDTH 5 0
BBX 3 3 1 9
BITMAP
60
E0
E0
ENDCHAR
STARTCHAR 00B8
ENCODING 184
SWIDTH 324 0
DWIDTH 9 0
BBX 7 7 1 -6
BITMAP
18
38
3C
0E
06
EE
FC
ENDCHAR
STARTCHAR 00B9
ENCODING 185
SWIDTH 288 0
DWIDTH 8 0
BBX 5 11 1 11
BITMAP
10
F8
F8
18
18
18
18
18
18
18
18
ENDCHAR
STARTCHAR 00BA
ENCODING 186
SWIDTH 468 0
DWIDTH 13 0
BBX 11 11 1 11
BITMAP
1F00
3F80
71C0
E0E0
C060
C060
C060
E0E0
71C0
3F80
1F00
ENDCHAR
STARTCHAR 00BB
ENCODING 187
SWIDTH 468 0
DWIDTH 13 0
BBX 11 15 1 0
BITMAP
C300
E300
6380
7180
31C0
38C0
18E0
1860
18E0
38C0
31C0
7180
6380
E300
C300
ENDCHAR
STARTCHAR 00BC
ENCODING 188
SWIDTH 756 0
DWIDTH 21 0
BBX 19 22 1 0
BITMAP
100180
F80180
F80300
180700
180600
180C00
181C00
181800
183000
187000
186000
00C180
00C380
018380
030780
030D80
061980
0C1980
0C3FE0
181FE0
300180
300180
ENDCHAR
STARTCHAR 00BD
ENCODING 189
SWIDTH 828 0
DWIDTH 23 0
BBX 21 22 1 0
BITMAP
1000C0
F801C0
F80180
180300
180300
180600
180C00
180C00
181800
183000
183000
0063E0
00C770
00C630
018630
030030
030060
0600C0
0C0180
0C0300
1807F0
1807F8
ENDCHAR
STARTCHAR 00BE
ENCODING 190
SWIDTH 828 0
DWIDTH 23 0
BBX 21 22 1 0
BITMAP
3C0040
7E00C0
C60180
C20180
060300
1C0700
060600
C30C00
C31C00
661800
7E3000
087060
0060E0
00C0E0
01C1E0
018360
030660
030C60
060FF8
0C0FF8
0C0060
180060
ENDCHAR
STARTCHAR 00BF
ENCODING 191
SWIDTH 540 0
DWIDTH 15 0
BBX 13 22 1 -5
BITMAP
0700
0700
0700
0000
0000
0700
0700
0600
0600
0C00
1800
3000
6000
E000
C008
C018
C018
E038
6030
78F0
3FE0
0F80
ENDCHAR
STARTCHAR 00C0
ENCODING 192
SWIDTH 720 0
DWIDTH 20 0
BBX 18 29 1 0
BITMAP
060000
070000
038000
01C000
00C000
000000
000000
008000
00C000
01C000
01E000
03E000
033000
073000
063800
061800
0C1800
0C0C00
1C0C00
180E00
180600
300700
3FFF00
7FFF00
600380
E00180
C001C0
C000C0
8000C0
ENDCHAR
STARTCHAR 00C1
ENCODING 193
SWIDTH 720 0
DWIDTH 20 0
BBX 18 29 1 0
BITMAP
003800
007000
00F000
00E000
00C000
000000
000000
008000
00C000
01C000
01E000
03E000
033000
073000
063800
061800
0C1800
0C0C00
1C0C00
180E00
180600
300700
3FFF00
7FFF00
600380
E00180
C001C0
C000C0
8000C0
ENDCHAR
STARTCHAR 00C2
ENCODING 194
SWIDTH 720 0
DWIDTH 20 0
BBX 18 28 1 0
BITMAP
01C000
03F000
073800
041800
000000
000000
008000
00C000
01C000
01E000
03E000
033000
073000
063800
061800
0C1800
0C0C00
1C0C00
180E00
180600
300700
3FFF00
7FFF00
600380
E00180
C001C0
C000C0
8000C0
ENDCHAR
STARTCHAR 00C3
ENCODING 195
SWIDTH 720 0
DWIDTH 20 0
BBX 18 28 1 0
BITMAP
030000
07D800
0CF000
002000
000000
000000
008000
00C000
01C000
01E000
03E000
033000
073000
063800
061800
0C1800
0C0C00
1C0C00
180E00
180600
300700
3FFF00
7FFF00
600380
E00180
C001C0
C000C0
8000C0
ENDCHAR
STARTCHAR 00C4
ENCODING 196
SWIDTH 720 0
DWIDTH 20 0
BBX 18 27 1 1
BITMAP
0E3800
0E3800
000000
000000
000000
008000
00C000
01C000
01E000
03E000
033000
073000
063800
061800
0C1800
0C0C00
1C0C00
180E00
180600
300700
3FFF00
7FFF00
600380
E00180
C001C0
C000C0
8000C0
ENDCHAR
STARTCHAR 00C5
ENCODING 197
SWIDTH 720 0
DWIDTH 20 0
BBX 18 28 1 0
BITMAP
01E000
032000
022000
036000
01C000
000000
008000
00C000
01C000
01E000
03E000
033000
073000
063800
061800
0C1800
0C0C00
1C0C00
180E00
180600
300700
3FFF00
7FFF00
600380
E00180
C001C0
C000C0
8000C0
ENDCHAR
STARTCHAR 00C6
ENCODING 198
SWIDTH 972 0
DWIDTH 27 0
BBX 24 22 1 0
BITMAP
000FFF
001FFF
003C00
003C00
007C00
007C00
00DC00
01DC00
019C00
039C00
031FF8
061FF8
0E1C00
0C1C00
1C1C00
1FFC00
3FFC00
701C00
601C00
E01C00
C01FFF
C01FFF
ENDCHAR
STARTCHAR 00C7
ENCODING 199
SWIDTH 756 0
DWIDTH 21 0
BBX 18 28 2 -6
BITMAP
01FC00
07FF00
0F0780
1C01C0
380000
700000
600000
E00000
C00000
C00000
C00000
C00000
C00000
C00000
C00000
600000
700000
300000
380080
1E03C0
07FF80
01FE00
007000
007800
001C00
000C00
019C00
01F800
ENDCHAR
STARTCHAR 00C8
ENCODING 200
SWIDTH 684 0
DWIDTH 19 0
BBX 15 29 3 0
BITMAP
1C00
0E00
0700
0380
0100
0000
0000
FFFE
FFFE
C000
C000
C000
C000
C000
C000
C000
C000
FFF0
FFF0
C000
C000
C000
C000
C000
C000
C000
C000
FFFE
FFFE
ENDCHAR
STARTCHAR 00C9
ENCODING 201
SWIDTH 684 0
DWIDTH 19 0
BBX 15 29 3 0
BITMAP
0060
00E0
01C0
0380
0300
0000
0000
FFFE
FFFE
C000
C000
C000
C000
C000
C000
C000
C000
FFF0
FFF0
C000
C000
C000
C000
C000
C000
C000
C000
FFFE
FFFE
ENDCHAR
STARTCHAR 00CA
ENCODING 202
SWIDTH 684 0
DWIDTH 19 0
BBX 15 28 3 0
BITMAP
0380
0FE0
1EF0
1830
0000
0000
FFFE
FFFE
C000
C000
C000
C000
C000
C000
C000
C000
FFF0
FFF0
C000
C000
C000
C000
C000
C000
C000
C000
FFFE
FFFE
ENDCHAR
STARTCHAR 00CB
ENCODING 203
SWIDTH 684 0
DWIDTH 19 0
BBX 15 28 3 0
BITMAP
0020
1C70
1C70
0020
0000
0000
FFFE
FFFE
C000
C000
C000
C000
C000
C000
C000
C000
FFF0
FFF0
C000
C000
C000
C000
C000
C000
C000
C000
FFFE
FFFE
ENDCHAR
STARTCHAR 00CC
ENCODING 204
SWIDTH 288 0
DWIDTH 8 0
BBX 5 29 0 0
BITMAP
C0
E0
70
38
18
00
00
10
18
18
18
18
18
18
18
18
18
18
18
18
18
18
18
18
18
18
18
18
18
ENDCHAR
STARTCHAR 00CD
ENCODING 205
SWIDTH 288 0
DWIDTH 8 0
BBX 5 29 3 0
BITMAP
18
38
70
E0
C0
00
00
80
C0
C0
C0
C0
C0
C0
C0
C0
C0
C0
C0
C0
C0
C0
C0
C0
C0
C0
C0
C0
C0
ENDCHAR
STARTCHAR 00CE
ENCODING 206
SWIDTH 288 0
DWIDTH 8 0
BBX 8 28 0 0
BITMAP
38
7E
E7
C3
00
00
10
18
18
18
18
18
18
18
18
18
18
18
18
18
18
18
18
18
18
18
18
18
ENDCHAR
STARTCHAR 00CF
ENCODING 207
SWIDTH 288 0
DWIDTH 8 0
BBX 8 28 0 0
BITMAP
02
C7
C7
00
00
00
10
18
18
18
18
18
18
18
18
18
18
18
18
18
18
18
18
18
18
18
18
18
ENDCHAR
STARTCHAR 00D0
ENCODING 208
SWIDTH 756 0
DWIDTH 21 0
BBX 20 22 0 0
BITMAP
1FE000
1FFC00
181F00
180380
1801C0
1800C0
1800E0
180060
180060
180070
FFC030
FFC030
180070
180060
180060
180060
1800C0
1801C0
180380
180F00
1FFE00
1FF000
ENDCHAR
STARTCHAR 00D1
ENCODING 209
SWIDTH 828 0
DWIDTH 23 0
BBX 17 27 3 0
BITMAP
07C400
0FFC00
187800
000000
000000
800080
C00180
E00180
F00180
F80180
D80180
CC0180
CE0180
C70180
C30180
C18180
C0C180
C0E180
C06180
C03180
C01980
C01D80
C00D80
C00780
C00380
C00380
C00180
ENDCHAR
STARTCHAR 00D2
ENCODING 210
SWIDTH 936 0
DWIDTH 26 0
BBX 22 29 2 0
BITMAP
018000
01C000
00E000
007000
003000
000000
000000
01FC00
07FF80
0F07C0
1C00E0
380070
700030
600018
E00018
C0001C
C0000C
C0000C
C0000C
C0000C
C0001C
C00018
E00018
600038
300070
3800E0
1E03C0
0FFF80
01FE00
ENDCHAR
STARTCHAR 00D3
ENCODING 211
SWIDTH 936 0
DWIDTH 26 0
BBX 22 29 2 0
BITMAP
000E00
001C00
003C00
003800
003000
000000
000000
01FC00
07FF80
0F07C0
1C00E0
380070
700030
600018
E00018
C0001C
C0000C
C0000C
C0000C
C0000C
C0001C
C00018
E00018
600038
300070
3800E0
1E03C0
0FFF80
01FE00
ENDCHAR
STARTCHAR 00D4
ENCODING 212
SWIDTH 936 0
DWIDTH 26 0
BBX 22 28 2 0
BITMAP
007000
00FC00
01CE00
010600
000000
000000
01FC00
07FF80
0F07C0
1C00E0
380070
700030
600018
E00018
C0001C
C0000C
C0000C
C0000C
C0000C
C0001C
C00018
E00018
600038
300070
3800E0
1E03C0
0FFF80
01FE00
ENDCHAR
STARTCHAR 00D5
ENCODING 213
SWIDTH 936 0
DWIDTH 26 0
BBX 22 27 2 0
BITMAP
01F180
03FF80
030F00
000000
000000
01FC00
07FF80
0F07C0
1C00E0
380070
700030
600018
E00018
C0001C
C0000C
C0000C
C0000C
C0000C
C0001C
C00018
E00018
600038
300070
3800E0
1E03C0
0FFF80
01FE00
ENDCHAR
STARTCHAR 00D6
ENCODING 214
SWIDTH 936 0
DWIDTH 26 0
BBX 22 28 2 0
BITMAP
000400
038E00
038E00
000000
000000
000000
01FC00
07FF80
0F07C0
1C00E0
380070
700030
600018
E00018
C0001C
C0000C
C0000C
C0000C
C0000C
C0001C
C00018
E00018
600038
300070
3800E0
1E03C0
0FFF80
01FE00
ENDCHAR
STARTCHAR 00D7
ENCODING 215
SWIDTH 468 0
DWIDTH 13 0
BBX 11 11 1 4
BITMAP
C060
E0E0
71C0
3B80
1F00
0E00
1F00
3B80
71C0
E0E0
4040
ENDCHAR
STARTCHAR 00D8
ENCODING 216
SWIDTH 900 0
DWIDTH 25 0
BBX 22 22 2 0
BITMAP
01FC08
07FF9C
0F03F8
1C00F0
3800F0
7001F0
600398
E00718
C00E1C
C01C0C
C0380C
C0700C
C0E00C
C1C01C
C38018
E70018
6E0038
7C0070
3800E0
7E03C0
C7FF80
83FE00
ENDCHAR
STARTCHAR 00D9
ENCODING 217
SWIDTH 828 0
DWIDTH 23 0
BBX 17 29 3 0
BITMAP
0E0000
070000
038000
018000
008000
000000
000000
800100
C00180
C00180
C00180
C00180
C00180
C00180
C00180
C00180
C00180
C00180
C00180
C00180
C00180
C00180
C00180
C00180
E00300
600700
780E00
3FFC00
0FF800
ENDCHAR
STARTCHAR 00DA
ENCODING 218
SWIDTH 828 0
DWIDTH 23 0
BBX 17 29 3 0
BITMAP
003000
007000
00E000
01C000
018000
000000
000000
800100
C00180
C00180
C00180
C00180
C00180
C00180
C00180
C00180
C00180
C00180
C00180
C00180
C00180
C00180
C00180
C00180
E00300
600700
780E00
3FFC00
0FF800
ENDCHAR
STARTCHAR 00DB
ENCODING 219
SWIDTH 828 0
DWIDTH 23 0
BBX 17 28 3 0
BITMAP
01C000
07E000
0F7800
0C1000
000000
000000
800100
C00180
C00180
C00180
C00180
C00180
C00180
C00180
C00180
C00180
C00180
C00180
C00180
C00180
C00180
C00180
C00180
E00300
600700
780E00
3FFC00
0FF800
ENDCHAR
STARTCHAR 00DC
ENCODING 220
SWIDTH 828 0
DWIDTH 23 0
BBX 17 28 3 0
BITMAP
041000
0E3800
0E3800
040000
000000
000000
800100
C00180
C00180
C00180
C00180
C00180
C00180
C00180
C00180
C00180
C00180
C00180
C00180
C00180
C00180
C00180
C00180
E00300
600700
780E00
3FFC00
0FF800
ENDCHAR
STARTCHAR 00DD
ENCODING 221
SWIDTH 648 0
DWIDTH 18 0
BBX 18 29 0 0
BITMAP
001800
003800
007000
00E000
00C000
000000
000000
400080
E000C0
600180
700380
300300
180600
1C0E00
0C0C00
0E1C00
061800
033000
03F000
01E000
00C000
00C000
00C000
00C000
00C000
00C000
00C000
00C000
00C000
ENDCHAR
STARTCHAR 00DE
ENCODING 222
SWIDTH 612 0
DWIDTH 17 0
BBX 13 22 3 0
BITMAP
8000
C000
C000
C000
FF80
FFE0
C070
C038
C018
C018
C018
C018
C018
C038
C070
FFE0
FF80
C000
C000
C000
C000
C000
ENDCHAR
STARTCHAR 00DF
ENCODING 223
SWIDTH 540 0
DWIDTH 15 0
BBX 13 21 1 1
BITMAP
1FC0
3FE0
7060
6070
E030
E060
E060
E0C0
E180
E180
E180
E0C0
E060
E030
E038
E018
E018
E018
EC38
EFF0
47E0
ENDCHAR
STARTCHAR 00E0
ENCODING 224
SWIDTH 684 0
DWIDTH 19 0
BBX 15 23 2 0
BITMAP
1800
1C00
0E00
0700
0300
0000
0000
0000
0FE0
3FF0
7038
600C
C00E
C006
C006
C006
C006
C006
E00E
601E
783E
3FF6
0FC6
ENDCHAR
STARTCHAR 00E1
ENCODING 225
SWIDTH 684 0
DWIDTH 19 0
BBX 15 23 2 0
BITMAP
0020
0060
00E0
01C0
0380
0000
0000
0000
0FE0
3FF0
7038
600C
C00E
C006
C006
C006
C006
C006
E00E
601E
783E
3FF6
0FC6
ENDCHAR
STARTCHAR 00E2
ENCODING 226
SWIDTH 684 0
DWIDTH 19 0
BBX 15 22 2 0
BITMAP
0100
07C0
0EE0
1C70
0000
0000
0000
0FE0
3FF0
7038
600C
C00E
C006
C006
C006
C006
C006
E00E
601E
783E
3FF6
0FC6
ENDCHAR
STARTCHAR 00E3
ENCODING 227
SWIDTH 684 0
DWIDTH 19 0
BBX 15 21 2 0
BITMAP
0F00
1F98
39F8
1060
0000
0000
0FE0
3FF0
7038
600C
C00E
C006
C006
C006
C006
C006
E00E
601E
783E
3FF6
0FC6
ENDCHAR
STARTCHAR 00E4
ENCODING 228
SWIDTH 684 0
DWIDTH 19 0
BBX 15 21 2 0
BITMAP
1C60
1C70
1C60
0000
0000
0000
0FE0
3FF0
7038
600C
C00E
C006
C006
C006
C006
C006
E00E
601E
783E
3FF6
0FC6
ENDCHAR
STARTCHAR 00E5
ENCODING 229
SWIDTH 684 0
DWIDTH 19 0
BBX 15 22 2 0
BITMAP
0380
06C0
0440
0440
07C0
0100
0000
0FE0
3FF0
7038
600C
C00E
C006
C006
C006
C006
C006
E00E
601E
783E
3FF6
0FC6
ENDCHAR
STARTCHAR 00E6
ENCODING 230
SWIDTH 1080 0
DWIDTH 30 0
BBX 27 15 2 0
BITMAP
0FE07F00
3FF0FF80
703981C0
600F00E0
C00F0060
C0060060
C007FFE0
C007FFE0
C0060000
C0060000
E00F0000
601F8000
783FC0C0
3FF6FFC0
0FC63F00
ENDCHAR
STARTCHAR 00E7
ENCODING 231
SWIDTH 612 0
DWIDTH 17 0
BBX 13 21 2 -6
BITMAP
0FC0
3FF0
7038
6018
C000
C000
C000
C000
C000
C000
E000
6000
7838
3FF0
0FE0
0300
0380
01C0
08C0
1DC0
0F80
ENDCHAR
STARTCHAR 00E8
ENCODING 232
SWIDTH 612 0
DWIDTH 17 0
BBX 14 23 2 0
BITMAP
1800
1C00
0E00
0700
0300
0000
0000
0000
1FC0
3FF0
7038
6018
C01C
C00C
FFFC
FFFC
C000
C000
C000
6000
7038
3FF0
0FE0
ENDCHAR
STARTCHAR 00E9
ENCODING 233
SWIDTH 612 0
DWIDTH 17 0
BBX 14 23 2 0
BITMAP
0040
00E0
01C0
0380
0300
0000
0000
0000
1FC0
3FF0
7038
6018
C01C
C00C
FFFC
FFFC
C000
C000
C000
6000
7038
3FF0
0FE0
ENDCHAR
STARTCHAR 00EA
ENCODING 234
SWIDTH 612 0
DWIDTH 17 0
BBX 14 22 2 0
BITMAP
0300
0F80
1FE0
18E0
0000
0000
0000
1FC0
3FF0
7038
6018
C01C
C00C
FFFC
FFFC
C000
C000
C000
6000
7038
3FF0
0FE0
ENDCHAR
STARTCHAR 00EB
ENCODING 235
SWIDTH 612 0
DWIDTH 17 0
BBX 14 21 2 0
BITMAP
1860
38E0
1860
0000
0000
0000
1FC0
3FF0
7038
6018
C01C
C00C
FFFC
FFFC
C000
C000
C000
6000
7038
3FF0
0FE0
ENDCHAR
STARTCHAR 00EC
ENCODING 236
SWIDTH 288 0
DWIDTH 8 0
BBX 5 23 0 0
BITMAP
C0
E0
70
38
18
00
00
00
18
18
18
18
18
18
18
18
18
18
18
18
18
18
18
ENDCHAR
STARTCHAR 00ED
ENCODING 237
SWIDTH 288 0
DWIDTH 8 0
BBX 5 23 3 0
BITMAP
10
38
70
E0
C0
00
00
00
C0
C0
C0
C0
C0
C0
C0
C0
C0
C0
C0
C0
C0
C0
C0
ENDCHAR
STARTCHAR 00EE
ENCODING 238
SWIDTH 288 0
DWIDTH 8 0
BBX 8 22 0 0
BITMAP
18
3C
7E
E7
00
00
00
18
18
18
18
18
18
18
18
18
18
18
18
18
18
18
ENDCHAR
STARTCHAR 00EF
ENCODING 239
SWIDTH 288 0
DWIDTH 8 0
BBX 8 22 0 0
BITMAP
42
E7
E7
00
00
00
00
18
18
18
18
18
18
18
18
18
18
18
18
18
18
18
ENDCHAR
STARTCHAR 00F0
ENCODING 240
SWIDTH 684 0
DWIDTH 19 0
BBX 15 23 2 0
BITMAP
0180
1D00
0F00
03C0
06E0
0430
0018
000C
000C
1FCC
3FF4
7036
E01E
C00E
C00E
C00E
C00C
C00C
C00C
601C
7038
3FF0
0FC0
ENDCHAR
STARTCHAR 00F1
ENCODING 241
SWIDTH 684 0
DWIDTH 19 0
BBX 15 21 2 0
BITMAP
0700
1F98
39F8
0060
0000
0000
6FE0
FFF8
F838
E01C
E00C
E00C
E00E
E00E
E00E
E00E
E00E
E00E
E00E
E00E
4004
ENDCHAR
STARTCHAR 00F2
ENCODING 242
SWIDTH 684 0
DWIDTH 19 0
BBX 15 23 2 0
BITMAP
1800
1C00
0E00
0700
0300
0000
0000
0000
0FE0
3FF8
7038
600C
C00E
C006
C006
C006
C006
C006
E00E
601C
7838
3FF0
0FE0
ENDCHAR
STARTCHAR 00F3
ENCODING 243
SWIDTH 684 0
DWIDTH 19 0
BBX 15 23 2 0
BITMAP
0020
0060
00E0
01C0
0380
0000
0000
0000
0FE0
3FF8
7038
600C
C00E
C006
C006
C006
C006
C006
E00E
601C
7838
3FF0
0FE0
ENDCHAR
STARTCHAR 00F4
ENCODING 244
SWIDTH 684 0
DWIDTH 19 0
BBX 15 22 2 0
BITMAP
0100
07C0
0EE0
1C70
0000
0000
0000
0FE0
3FF8
7038
600C
C00E
C006
C006
C006
C006
C006
E00E
601C
7838
3FF0
0FE0
ENDCHAR
STARTCHAR 00F5
ENCODING 245
SWIDTH 684 0
DWIDTH 19 0
BBX 15 21 2 0
BITMAP
0F00
1F98
39F8
1060
0000
0000
0FE0
3FF8
7038
600C
C00E
C006
C006
C006
C006
C006
E00E
601C
7838
3FF0
0FE0
ENDCHAR
STARTCHAR 00F6
ENCODING 246
SWIDTH 684 0
DWIDTH 19 0
BBX 15 21 2 0
BITMAP
1C60
1C70
1C60
0000
0000
0000
0FE0
3FF8
7038
600C
C00E
C006
C006
C006
C006
C006
E00E
601C
7838
3FF0
0FE0
ENDCHAR
STARTCHAR 00F7
ENCODING 247
SWIDTH 468 0
DWIDTH 13 0
BBX 11 11 1 4
BITMAP
0E00
0E00
0400
0000
FFE0
FFE0
0000
0000
0E00
0E00
0400
ENDCHAR
STARTCHAR 00F8
ENCODING 248
SWIDTH 684 0
DWIDTH 19 0
BBX 16 16 2 -1
BITMAP
0FE3
1FFE
381C
701E
6036
E066
C0C7
C187
C307
E606
6C06
780E
381C
7FF8
C7E0
8000
ENDCHAR
STARTCHAR 00F9
ENCODING 249
SWIDTH 684 0
DWIDTH 19 0
BBX 14 23 2 0
BITMAP
1800
1C00
0E00
0700
0300
0000
0000
0000
C00C
C00C
C00C
C00C
C00C
C00C
C00C
C00C
C00C
E00C
600C
601C
783C
3FFC
0FCC
ENDCHAR
STARTCHAR 00FA
ENCODING 250
SWIDTH 684 0
DWIDTH 19 0
BBX 14 23 2 0
BITMAP
0020
0060
00E0
01C0
0380
0000
0000
0000
C00C
C00C
C00C
C00C
C00C
C00C
C00C
C00C
C00C
E00C
600C
601C
783C
3FFC
0FCC
ENDCHAR
STARTCHAR 00FB
ENCODING 251
SWIDTH 684 0
DWIDTH 19 0
BBX 14 22 2 0
BITMAP
0100
07C0
0EE0
1C70
0000
0000
0000
C00C
C00C
C00C
C00C
C00C
C00C
C00C
C00C
C00C
E00C
600C
601C
783C
3FFC
0FCC
ENDCHAR
STARTCHAR 00FC
ENCODING 252
SWIDTH 684 0
DWIDTH 19 0
BBX 14 21 2 0
BITMAP
1C60
1C70
1C60
0000
0000
0000
C00C
C00C
C00C
C00C
C00C
C00C
C00C
C00C
C00C
E00C
600C
601C
783C
3FFC
0FCC
ENDCHAR
STARTCHAR 00FD
ENCODING 253
SWIDTH 540 0
DWIDTH 15 0
BBX 14 30 1 -7
BITMAP
0040
00E0
01C0
0380
0700
0000
0000
0000
C00C
C00C
C018
6018
6030
3030
3060
1860
18E0
0CC0
0DC0
0780
0780
0300
0300
0600
0600
0C00
0C00
1C00
1800
0800
ENDCHAR
STARTCHAR 00FE
ENCODING 254
SWIDTH 720 0
DWIDTH 20 0
BBX 16 29 2 -7
BITMAP
4000
E000
E000
E000
E000
E000
E000
E7F0
EFF8
F81C
F00E
E006
E003
E003
E003
E003
E007
E006
F00E
F81C
EFF8
E7F0
E000
E000
E000
E000
E000
E000
4000
ENDCHAR
STARTCHAR 00FF
ENCODING 255
SWIDTH 540 0
DWIDTH 15 0
BBX 14 28 1 -7
BITMAP
1860
38E0
1860
0000
0000
0000
C00C
C00C
C018
6018
6030
3030
3060
1860
18E0
0CC0
0DC0
0780
0780
0300
0300
0600
0600
0C00
0C00
1C00
1800
0800
ENDCHAR
STARTCHAR 0100
ENCODING 256
SWIDTH 720 0
DWIDTH 20 0
BBX 18 27 1 0
BITMAP
0FF800
0FF800
000000
000000
000000
008000
00C000
01C000
01E000
03E000
033000
073000
063800
061800
0C1800
0C0C00
1C0C00
180E00
180600
300700
3FFF00
7FFF00
600380
E00180
C001C0
C000C0
8000C0
ENDCHAR
STARTCHAR 0101
ENCODING 257
SWIDTH 684 0
DWIDTH 19 0
BBX 15 20 2 0
BITMAP
1FF0
1FF0
0000
0000
0000
0FE0
3FF0
7038
600C
C00E
C006
C006
C006
C006
C006
E00E
601E
783E
3FF6
0FC6
ENDCHAR
STARTCHAR 0102
ENCODING 258
SWIDTH 720 0
DWIDTH 20 0
BBX 18 28 1 0
BITMAP
0C1800
061800
07F000
01E000
000000
000000
008000
00C000
01C000
01E000
03E000
033000
073000
063800
061800
0C1800
0C0C00
1C0C00
180E00
180600
300700
3FFF00
7FFF00
600380
E00180
C001C0
C000C0
8000C0
ENDCHAR
STARTCHAR 0103
ENCODING 259
SWIDTH 684 0
DWIDTH 19 0
BBX 15 22 2 0
BITMAP
1820
1830
1EE0
0FE0
0000
0000
0000
0FE0
3FF0
7038
600C
C00E
C006
C006
C006
C006
C006
E00E
601E
783E
3FF6
0FC6
ENDCHAR
STARTCHAR 0104
ENCODING 260
SWIDTH 720 0
DWIDTH 20 0
BBX 20 29 1 -7
BITMAP
008000
00C000
01C000
01E000
03E000
033000
073000
063800
061800
0C1800
0C0C00
1C0C00
180E00
180600
300700
3FFF00
7FFF00
600380
E00180
C001C0
C000C0
8000C0
0001C0
000380
000300
000300
0003F0
0001F0
0000C0
ENDCHAR
STARTCHAR 0105
ENCODING 261
SWIDTH 684 0
DWIDTH 19 0
BBX 18 22 2 -7
BITMAP
0FE000
3FF000
703800
600C00
C00E00
C00600
C00600
C00600
C00600
C00600
E00E00
601E00
783E00
3FF600
0FC600
000300
000700
000E00
000C00
000CC0
000FC0
000780
ENDCHAR
STARTCHAR 0106
ENCODING 262
SWIDTH 756 0
DWIDTH 21 0
BBX 18 29 2 0
BITMAP
000C00
001C00
003800
007000
006000
000000
000000
01FC00
07FF00
0F0780
1C01C0
380000
700000
600000
E00000
C00000
C00000
C00000
C00000
C00000
C00000
C00000
600000
700000
300000
380080
1E03C0
07FF80
01FE00
ENDCHAR
STARTCHAR 0107
ENCODING 263
SWIDTH 612 0
DWIDTH 17 0
BBX 13 23 2 0
BITMAP
0040
00E0
01C0
0380
0300
0000
0000
0000
0FC0
3FF0
7038
6018
C000
C000
C000
C000
C000
C000
E000
6000
7838
3FF0
0FE0
ENDCHAR
STARTCHAR 0108
ENCODING 264
SWIDTH 756 0
DWIDTH 21 0
BBX 18 28 2 0
BITMAP
007000
01F800
03DE00
030400
000000
000000
01FC00
07FF00
0F0780
1C01C0
380000
700000
600000
E00000
C00000
C00000
C00000
C00000
C00000
C00000
C00000
600000
700000
300000
380080
1E03C0
07FF80
01FE00
ENDCHAR
STARTCHAR 0109
ENCODING 265
SWIDTH 612 0
DWIDTH 17 0
BBX 13 22 2 0
BITMAP
0300
0780
1FE0
1860
0000
0000
0000
0FC0
3FF0
7038
6018
C000
C000
C000
C000
C000
C000
E000
6000
7838
3FF0
0FE0
ENDCHAR
STARTCHAR 010A
ENCODING 266
SWIDTH 756 0
DWIDTH 21 0
BBX 18 28 2 0
BITMAP
002000
007000
007000
000000
000000
000000
01FC00
07FF00
0F0780
1C01C0
380000
700000
600000
E00000
C00000
C00000
C00000
C00000
C00000
C00000
C00000
600000
700000
300000
380080
1E03C0
07FF80
01FE00
ENDCHAR
STARTCHAR 010B
ENCODING 267
SWIDTH 612 0
DWIDTH 17 0
BBX 13 21 2 0
BITMAP
0300
0700
0300
0000
0000
0000
0FC0
3FF0
7038
6018
C000
C000
C000
C000
C000
C000
E000
6000
7838
3FF0
0FE0
ENDCHAR
STARTCHAR 010C
ENCODING 268
SWIDTH 756 0
DWIDTH 21 0
BBX 18 28 2 1
BITMAP
038E00
01DC00
00F800
002000
000000
000000
01FC00
07FF00
0F0780
1C01C0
380000
700000
600000
E00000
C00000
C00000
C00000
C00000
C00000
C00000
C00000
600000
700000
300000
380080
1E03C0
07FF80
01FE00
ENDCHAR
STARTCHAR 010D
ENCODING 269
SWIDTH 612 0
DWIDTH 17 0
BBX 13 22 2 0
BITMAP
1020
1CE0
0FC0
0300
0000
0000
0000
0FC0
3FF0
7038
6018
C000
C000
C000
C000
C000
C000
E000
6000
7838
3FF0
0FE0
ENDCHAR
STARTCHAR 010E
ENCODING 270
SWIDTH 756 0
DWIDTH 21 0
BBX 17 28 3 1
BITMAP
1C3000
0EE000
07C000
010000
000000
000000
FF0000
FFE000
C0F800
C01C00
C00E00
C00600
C00700
C00300
C00300
C00380
C00180
C00180
C00380
C00300
C00300
C00300
C00600
C00E00
C01C00
C07800
FFF000
FF8000
ENDCHAR
STARTCHAR 010F
ENCODING 271
SWIDTH 792 0
DWIDTH 22 0
BBX 20 22 2 0
BITMAP
000230
000670
000630
000630
000630
000660
000660
0FE600
3FF600
703E00
600E00
C00E00
C00600
C00600
C00600
C00600
C00600
E00E00
601C00
783800
3FF000
0FE000
ENDCHAR
STARTCHAR 0110
ENCODING 272
SWIDTH 756 0
DWIDTH 21 0
BBX 20 22 0 0
BITMAP
1FE000
1FFC00
181F00
180380
1801C0
1800C0
1800E0
180060
180060
180070
FFC030
FFC030
180070
180060
180060
180060
1800C0
1801C0
180380
180F00
1FFE00
1FF000
ENDCHAR
STARTCHAR 0111
ENCODING 273
SWIDTH 720 0
DWIDTH 20 0
BBX 18 22 2 0
BITMAP
000200
000600
000600
00FFC0
00FF80
000600
000600
0FE600
3FF600
703E00
600E00
C00E00
C00600
C00600
C00600
C00600
C00600
E00E00
601C00
783800
3FF000
0FE000
ENDCHAR
STARTCHAR 0112
ENCODING 274
SWIDTH 684 0
DWIDTH 19 0
BBX 15 27 3 0
BITMAP
1FF0
1FF0
0000
0000
0000
FFFE
FFFE
C000
C000
C000
C000
C000
C000
C000
C000
FFF0
FFF0
C000
C000
C000
C000
C000
C000
C000
C000
FFFE
FFFE
ENDCHAR
STARTCHAR 0113
ENCODING 275
SWIDTH 612 0
DWIDTH 17 0
BBX 14 20 2 0
BITMAP
3FE0
3FE0
0000
0000
0000
1FC0
3FF0
7038
6018
C01C
C00C
FFFC
FFFC
C000
C000
C000
6000
7038
3FF0
0FE0
ENDCHAR
STARTCHAR 0114
ENCODING 276
SWIDTH 684 0
DWIDTH 19 0
BBX 15 28 3 0
BITMAP
1830
1C70
0FE0
07C0
0000
0000
FFFE
FFFE
C000
C000
C000
C000
C000
C000
C000
C000
FFF0
FFF0
C000
C000
C000
C000
C000
C000
C000
C000
FFFE
FFFE
ENDCHAR
STARTCHAR 0115
ENCODING 277
SWIDTH 612 0
DWIDTH 17 0
BBX 14 22 2 0
BITMAP
1060
3860
1DE0
0FC0
0000
0000
0000
1FC0
3FF0
7038
6018
C01C
C00C
FFFC
FFFC
C000
C000
C000
6000
7038
3FF0
0FE0
ENDCHAR
STARTCHAR 0116
ENCODING 278
SWIDTH 684 0
DWIDTH 19 0
BBX 15 28 3 0
BITMAP
0100
0380
0380
0000
0000
0000
FFFE
FFFE
C000
C000
C000
C000
C000
C000
C000
C000
FFF0
FFF0
C000
C000
C000
C000
C000
C000
C000
C000
FFFE
FFFE
ENDCHAR
STARTCHAR 0117
ENCODING 279
SWIDTH 612 0
DWIDTH 17 0
BBX 14 21 2 0
BITMAP
0300
0700
0300
0000
0000
0000
1FC0
3FF0
7038
6018
C01C
C00C
FFFC
FFFC
C000
C000
C000
6000
7038
3FF0
0FE0
ENDCHAR
STARTCHAR 0118
ENCODING 280
SWIDTH 684 0
DWIDTH 19 0
BBX 18 29 3 -7
BITMAP
FFFE00
FFFE00
C00000
C00000
C00000
C00000
C00000
C00000
C00000
C00000
FFF000
FFF000
C00000
C00000
C00000
C00000
C00000
C00000
C00000
C00000
FFFE00
FFFE00
000600
000E00
000E00
001800
001880
001FC0
000F00
ENDCHAR
STARTCHAR 0119
ENCODING 281
SWIDTH 612 0
DWIDTH 17 0
BBX 14 20 2 -6
BITMAP
1FC0
3FF0
7038
6018
C01C
C00C
FFFC
FFFC
C000
C000
C000
6000
7038
3FF0
0FC0
01C0
0380
0310
03F8
01F0
ENDCHAR
STARTCHAR 011A
ENCODING 282
SWIDTH 684 0
DWIDTH 19 0
BBX 15 28 3 1
BITMAP
1C70
0EE0
07C0
0100
0000
0000
FFFE
FFFE
C000
C000
C000
C000
C000
C000
C000
C000
FFF0
FFF0
C000
C000
C000
C000
C000
C000
C000
C000
FFFE
FFFE
ENDCHAR
STARTCHAR 011B
ENCODING 283
SWIDTH 612 0
DWIDTH 17 0
BBX 14 22 2 0
BITMAP
1020
1CE0
0FC0
0700
0000
0000
0000
1FC0
3FF0
7038
6018
C01C
C00C
FFFC
FFFC
C000
C000
C000
6000
7038
3FF0
0FE0
ENDCHAR
STARTCHAR 011C
ENCODING 284
SWIDTH 756 0
DWIDTH 21 0
BBX 18 28 2 0
BITMAP
007000
01F800
039C00
030400
000000
000000
01FC00
07FF00
0F0780
1C01C0
380000
700000
600000
E00000
C00000
C00000
C00000
C03F80
C03FC0
C000C0
C000C0
6000C0
7000C0
3000C0
3800C0
1E03C0
07FF80
01FE00
ENDCHAR
STARTCHAR 011D
ENCODING 285
SWIDTH 684 0
DWIDTH 19 0
BBX 15 28 2 -6
BITMAP
0100
07C0
0EE0
1C70
0000
0000
0000
0FE0
3FF8
701C
600C
C00E
C006
C006
C006
C006
C006
E00E
600E
783E
3FF6
0FC6
0006
400C
601C
7838
3FF0
0FC0
ENDCHAR
STARTCHAR 011E
ENCODING 286
SWIDTH 756 0
DWIDTH 21 0
BBX 18 28 2 0
BITMAP
030E00
030C00
01FC00
00F800
000000
000000
01FC00
07FF00
0F0780
1C01C0
380000
700000
600000
E00000
C00000
C00000
C00000
C03F80
C03FC0
C000C0
C000C0
6000C0
7000C0
3000C0
3800C0
1E03C0
07FF80
01FE00
ENDCHAR
STARTCHAR 011F
ENCODING 287
SWIDTH 684 0
DWIDTH 19 0
BBX 15 28 2 -6
BITMAP
1820
1830
1EE0
0FE0
0000
0000
0000
0FE0
3FF8
701C
600C
C00E
C006
C006
C006
C006
C006
E00E
600E
783E
3FF6
0FC6
0006
400C
601C
7838
3FF0
0FC0
ENDCHAR
STARTCHAR 0120
ENCODING 288
SWIDTH 756 0
DWIDTH 21 0
BBX 18 28 2 0
BITMAP
002000
007000
007000
000000
000000
000000
01FC00
07FF00
0F0780
1C01C0
380000
700000
600000
E00000
C00000
C00000
C00000
C03F80
C03FC0
C000C0
C000C0
6000C0
7000C0
3000C0
3800C0
1E03C0
07FF80
01FE00
ENDCHAR
STARTCHAR 0121
ENCODING 289
SWIDTH 684 0
DWIDTH 19 0
BBX 15 27 2 -6
BITMAP
0380
0380
0300
0000
0000
0000
0FE0
3FF8
701C
600C
C00E
C006
C006
C006
C006
C006
E00E
600E
783E
3FF6
0FC6
0006
400C
601C
7838
3FF0
0FC0
ENDCHAR
STARTCHAR 0122
ENCODING 290
SWIDTH 756 0
DWIDTH 21 0
BBX 18 29 2 -7
BITMAP
01FC00
07FF00
0F0780
1C01C0
380000
700000
600000
E00000
C00000
C00000
C00000
C03F80
C03FC0
C000C0
C000C0
6000C0
7000C0
3000C0
3800C0
1E03C0
07FF80
01FE00
000000
007000
007800
000C00
018800
01F800
006000
ENDCHAR
STARTCHAR 0123
ENCODING 291
SWIDTH 684 0
DWIDTH 19 0
BBX 15 31 2 -6
BITMAP
0180
0300
0300
0300
0380
0380
0380
0000
0000
0000
0FE0
3FF8
701C
600C
C00E
C006
C006
C006
C006
C006
E00E
600E
783E
3FF6
0FC6
0006
400C
601C
7838
3FF0
0FC0
ENDCHAR
STARTCHAR 0124
ENCODING 292
SWIDTH 828 0
DWIDTH 23 0
BBX 18 28 3 0
BITMAP
01C000
03F000
0F3800
041800
000000
000000
800080
C001C0
C001C0
C001C0
C001C0
C001C0
C001C0
C001C0
C001C0
C001C0
FFFFC0
FFFFC0
C001C0
C001C0
C001C0
C001C0
C001C0
C001C0
C001C0
C001C0
C001C0
C00080
ENDCHAR
STARTCHAR 0125
ENCODING 293
SWIDTH 684 0
DWIDTH 19 0
BBX 18 28 -1 0
BITMAP
1C0000
7F0000
F78000
C18000
000000
000000
080000
1C0000
1C0000
1C0000
1C0000
1C0000
1C0000
1DFC00
1FFF00
1F0700
1C0380
1C0180
1C0180
1C01C0
1C01C0
1C01C0
1C01C0
1C01C0
1C01C0
1C01C0
1C01C0
080080
ENDCHAR
STARTCHAR 0126
ENCODING 294
SWIDTH 828 0
DWIDTH 23 0
BBX 22 22 1 0
BITMAP
200020
300070
300070
300070
FFFFFC
FFFFFC
300070
300070
300070
300070
3FFFF0
3FFFF0
300070
300070
300070
300070
300070
300070
300070
300070
300070
300020
ENDCHAR
STARTCHAR 0127
ENCODING 295
SWIDTH 684 0
DWIDTH 19 0
BBX 17 22 0 0
BITMAP
100000
380000
380000
FFE000
FFE000
380000
380000
3BF800
3FFE00
3E0E00
380700
380300
380300
380380
380380
380380
380380
380380
380380
380380
380380
100100
ENDCHAR
STARTCHAR 0128
ENCODING 296
SWIDTH 288 0
DWIDTH 8 0
BBX 9 28 -1 0
BITMAP
3000
7D80
CF80
0300
0000
0000
0800
0C00
0C00
0C00
0C00
0C00
0C00
0C00
0C00
0C00
0C00
0C00
0C00
0C00
0C00
0C00
0C00
0C00
0C00
0C00
0C00
0C00
ENDCHAR
STARTCHAR 0129
ENCODING 297
SWIDTH 288 0
DWIDTH 8 0
BBX 8 21 0 0
BITMAP
F3
DF
8E
00
00
00
18
18
18
18
18
18
18
18
18
18
18
18
18
18
18
ENDCHAR
STARTCHAR 012A
ENCODING 298
SWIDTH 288 0
DWIDTH 8 0
BBX 9 27 -1 0
BITMAP
7F80
FF80
0000
0000
0000
0800
0C00
0C00
0C00
0C00
0C00
0C00
0C00
0C00
0C00
0C00
0C00
0C00
0C00
0C00
0C00
0C00
0C00
0C00
0C00
0C00
0C00
ENDCHAR
STARTCHAR 012B
ENCODING 299
SWIDTH 288 0
DWIDTH 8 0
BBX 8 20 0 0
BITMAP
FF
FE
00
00
00
18
18
18
18
18
18
18
18
18
18
18
18
18
18
18
ENDCHAR
STARTCHAR 012C
ENCODING 300
SWIDTH 288 0
DWIDTH 8 0
BBX 8 28 0 0
BITMAP
C3
C3
FE
3C
00
00
10
18
18
18
18
18
18
18
18
18
18
18
18
18
18
18
18
18
18
18
18
18
ENDCHAR
STARTCHAR 012D
ENCODING 301
SWIDTH 288 0
DWIDTH 8 0
BBX 8 22 0 0
BITMAP
C3
C3
E7
7E
00
00
00
18
18
18
18
18
18
18
18
18
18
18
18
18
18
18
ENDCHAR
STARTCHAR 012E
ENCODING 302
SWIDTH 288 0
DWIDTH 8 0
BBX 6 29 1 -7
BITMAP
20
30
30
30
30
30
30
30
30
30
30
30
30
30
30
30
30
30
30
30
30
30
30
70
E0
C0
CC
FC
78
ENDCHAR
STARTCHAR 012F
ENCODING 303
SWIDTH 288 0
DWIDTH 8 0
BBX 6 28 1 -7
BITMAP
30
78
30
00
00
00
30
30
30
30
30
30
30
30
30
30
30
30
30
30
30
30
70
E0
C0
CC
FC
78
ENDCHAR
STARTCHAR 0130
ENCODING 304
SWIDTH 288 0
DWIDTH 8 0
BBX 3 27 2 1
BITMAP
E0
E0
00
00
00
40
60
60
60
60
60
60
60
60
60
60
60
60
60
60
60
60
60
60
60
60
60
ENDCHAR
STARTCHAR 0131
ENCODING 305
SWIDTH 288 0
DWIDTH 8 0
BBX 2 15 3 0
BITMAP
C0
C0
C0
C0
C0
C0
C0
C0
C0
C0
C0
C0
C0
C0
C0
ENDCHAR
STARTCHAR 0132
ENCODING 306
SWIDTH 648 0
DWIDTH 18 0
BBX 12 22 3 0
BITMAP
8020
C030
C030
C030
C030
C030
C030
C030
C030
C030
C030
C030
C030
C030
0030
0030
C030
C070
C060
E0E0
7FC0
3F80
ENDCHAR
STARTCHAR 0133
ENCODING 307
SWIDTH 576 0
DWIDTH 16 0
BBX 11 28 2 -7
BITMAP
6060
F0E0
6060
0000
0000
0000
6060
6060
6060
6060
6060
6060
6060
6060
6060
6060
6060
6060
6060
6060
6060
0060
0060
00E0
01C0
0F80
1F00
0800
ENDCHAR
STARTCHAR 0134
ENCODING 308
SWIDTH 612 0
DWIDTH 17 0
BBX 16 28 1 0
BITMAP
001C
007E
00E7
00C1
0000
0000
0008
0018
0018
0018
0018
0018
0018
0018
0018
0018
0018
0018
0018
0018
0018
C018
C018
E018
6038
7070
3FE0
0FC0
ENDCHAR
STARTCHAR 0135
ENCODING 309
SWIDTH 288 0
DWIDTH 8 0
BBX 11 29 -3 -7
BITMAP
0300
0780
1FC0
18E0
0000
0000
0000
0300
0300
0300
0300
0300
0300
0300
0300
0300
0300
0300
0300
0300
0300
0300
0300
0300
0700
0E00
7C00
F800
4000
ENDCHAR
STARTCHAR 0136
ENCODING 310
SWIDTH 648 0
DWIDTH 18 0
BBX 14 29 3 -7
BITMAP
8004
C01C
C038
C070
C0E0
C1C0
C380
C700
CE00
DC00
FE00
F600
E700
C380
C180
C1C0
C0E0
C070
C030
C038
C01C
C00C
0000
0700
0780
00C0
18C0
1F80
0600
ENDCHAR
STARTCHAR 0137
ENCODING 311
SWIDTH 576 0
DWIDTH 16 0
BBX 12 29 2 -7
BITMAP
4000
E000
E000
E000
E000
E000
E000
E030
E070
E0C0
E380
E700
EE00
FC00
FE00
F700
E380
E1C0
E0C0
E060
E070
4030
0000
0700
0780
0080
1980
1F80
0600
ENDCHAR
STARTCHAR 0138
ENCODING 312
SWIDTH 576 0
DWIDTH 16 0
BBX 12 15 2 0
BITMAP
6030
E070
E0C0
E380
E700
EE00
FC00
FE00
F700
E380
E1C0
E0C0
E060
E070
4030
ENDCHAR
STARTCHAR 0139
ENCODING 313
SWIDTH 648 0
DWIDTH 18 0
BBX 14 29 3 0
BITMAP
1800
3800
7000
E000
C000
0000
0000
8000
C000
C000
C000
C000
C000
C000
C000
C000
C000
C000
C000
C000
C000
C000
C000
C000
C000
C000
C000
FFFC
FFFC
ENDCHAR
STARTCHAR 013A
ENCODING 314
SWIDTH 288 0
DWIDTH 8 0
BBX 5 26 2 0
BITMAP
18
38
70
E0
C0
00
00
C0
C0
C0
C0
C0
C0
C0
C0
C0
C0
C0
C0
C0
C0
C0
C0
E0
78
38
ENDCHAR
STARTCHAR 013B
ENCODING 315
SWIDTH 648 0
DWIDTH 18 0
BBX 14 29 3 -7
BITMAP
8000
C000
C000
C000
C000
C000
C000
C000
C000
C000
C000
C000
C000
C000
C000
C000
C000
C000
C000
C000
FFFC
FFFC
0000
0700
0780
00C0
18C0
1F80
0600
ENDCHAR
STARTCHAR 013C
ENCODING 316
SWIDTH 288 0
DWIDTH 8 0
BBX 7 29 2 -7
BITMAP
80
C0
C0
C0
C0
C0
C0
C0
C0
C0
C0
C0
C0
C0
C0
C0
C0
C0
C0
E0
78
38
00
1C
1E
02
66
7E
18
ENDCHAR
STARTCHAR 013D
ENCODING 317
SWIDTH 648 0
DWIDTH 18 0
BBX 14 22 3 0
BITMAP
80C0
C0E0
C0E0
C0C0
C0C0
C0C0
C180
C000
C000
C000
C000
C000
C000
C000
C000
C000
C000
C000
C000
C000
FFFC
FFFC
ENDCHAR
STARTCHAR 013E
ENCODING 318
SWIDTH 360 0
DWIDTH 10 0
BBX 8 22 2 0
BITMAP
83
C3
C3
C3
C3
C6
C6
C0
C0
C0
C0
C0
C0
C0
C0
C0
C0
C0
C0
E0
78
38
ENDCHAR
STARTCHAR 013F
ENCODING 319
SWIDTH 576 0
DWIDTH 16 0
BBX 14 22 3 0
BITMAP
8000
C000
C000
C000
C000
C000
C000
C000
C000
C000
C0C0
C0E0
C0E0
C000
C000
C000
C000
C000
C000
C000
FFFC
FFFC
ENDCHAR
STARTCHAR 0140
ENCODING 320
SWIDTH 360 0
DWIDTH 10 0
BBX 8 22 2 0
BITMAP
80
C0
C0
C0
C0
C0
C0
C0
C0
C0
C6
C7
C7
C0
C0
C0
C0
C0
C0
E0
78
38
ENDCHAR
STARTCHAR 0141
ENCODING 321
SWIDTH 648 0
DWIDTH 18 0
BBX 17 22 0 0
BITMAP
080000
180000
180000
180000
180000
18C000
19C000
1BC000
1F8000
1F0000
1E0000
380000
780000
F80000
D80000
180000
180000
180000
180000
180000
1FFF80
1FFF80
ENDCHAR
STARTCHAR 0142
ENCODING 322
SWIDTH 360 0
DWIDTH 10 0
BBX 9 22 0 0
BITMAP
0800
1800
1800
1800
1800
1800
1800
1B80
1F00
1F00
1C00
3800
7800
F800
D800
1800
1800
1800
1800
1800
1E00
1E00
ENDCHAR
STARTCHAR 0143
ENCODING 323
SWIDTH 828 0
DWIDTH 23 0
BBX 17 29 3 0
BITMAP
003000
007000
00E000
01C000
018000
000000
000000
800080
C00180
E00180
F00180
F80180
D80180
CC0180
CE0180
C70180
C30180
C18180
C0C180
C0E180
C06180
C03180
C01980
C01D80
C00D80
C00780
C00380
C00380
C00180
ENDCHAR
STARTCHAR 0144
ENCODING 324
SWIDTH 684 0
DWIDTH 19 0
BBX 15 23 2 0
BITMAP
0020
0060
00E0
01C0
0380
0000
0000
0000
6FE0
FFF8
F838
E01C
E00C
E00C
E00E
E00E
E00E
E00E
E00E
E00E
E00E
E00E
4004
ENDCHAR
STARTCHAR 0145
ENCODING 325
SWIDTH 828 0
DWIDTH 23 0
BBX 17 29 3 -7
BITMAP
800080
C00180
E00180
F00180
F80180
D80180
CC0180
CE0180
C70180
C30180
C18180
C0C180
C0E180
C06180
C03180
C01980
C01D80
C00D80
C00780
C00380
C00380
C00180
000000
01C000
00F000
003000
063000
03E000
018000
ENDCHAR
STARTCHAR 0146
ENCODING 326
SWIDTH 684 0
DWIDTH 19 0
BBX 15 22 2 -7
BITMAP
6FE0
FFF8
F838
E01C
E00C
E00C
E00E
E00E
E00E
E00E
E00E
E00E
E00E
E00E
4004
0000
0380
01E0
0060
0C60
07C0
0100
ENDCHAR
STARTCHAR 0147
ENCODING 327
SWIDTH 828 0
DWIDTH 23 0
BBX 17 28 3 1
BITMAP
0E3800
077000
03E000
008000
000000
000000
800080
C00180
E00180
F00180
F80180
D80180
CC0180
CE0180
C70180
C30180
C18180
C0C180
C0E180
C06180
C03180
C01980
C01D80
C00D80
C00780
C00380
C00380
C00180
ENDCHAR
STARTCHAR 0148
ENCODING 328
SWIDTH 684 0
DWIDTH 19 0
BBX 15 22 2 0
BITMAP
1830
1C70
0FC0
0380
0000
0000
0000
6FE0
FFF8
F838
E01C
E00C
E00C
E00E
E00E
E00E
E00E
E00E
E00E
E00E
E00E
4004
ENDCHAR
STARTCHAR 014A
ENCODING 330
SWIDTH 720 0
DWIDTH 20 0
BBX 15 22 3 0
BITMAP
8380
DFE0
FEF8
F018
E00C
C00C
C00E
C006
C006
C006
C006
C006
C006
C006
C006
C006
C00E
C00C
C80C
CC18
CFF8
C3F0
ENDCHAR
STARTCHAR 014B
ENCODING 331
SWIDTH 684 0
DWIDTH 19 0
BBX 15 21 2 -6
BITMAP
6FE0
FFF8
F038
E01C
E00C
E00C
E00E
E00E
E00E
E00E
E00E
E00E
E00E
E00C
400C
000C
000C
0C18
0E78
07F0
0080
ENDCHAR
STARTCHAR 014C
ENCODING 332
SWIDTH 936 0
DWIDTH 26 0
BBX 22 27 2 0
BITMAP
01FE00
03FE00
000000
000000
000000
01FC00
07FF80
0F07C0
1C00E0
380070
700030
600018
E00018
C0001C
C0000C
C0000C
C0000C
C0000C
C0001C
C00018
E00018
600038
300070
3800E0
1E03C0
0FFF80
01FE00
ENDCHAR
STARTCHAR 014D
ENCODING 333
SWIDTH 684 0
DWIDTH 19 0
BBX 15 20 2 0
BITMAP
1FF0
1FF0
0000
0000
0000
0FE0
3FF8
7038
600C
C00E
C006
C006
C006
C006
C006
E00E
601C
7838
3FF0
0FE0
ENDCHAR
STARTCHAR 014E
ENCODING 334
SWIDTH 936 0
DWIDTH 26 0
BBX 22 28 2 0
BITMAP
030600
018600
01FC00
007800
000000
000000
01FC00
07FF80
0F07C0
1C00E0
380070
700030
600018
E00018
C0001C
C0000C
C0000C
C0000C
C0000C
C0001C
C00018
E00018
600038
300070
3800E0
1E03C0
0FFF80
01FE00
ENDCHAR
STARTCHAR 014F
ENCODING 335
SWIDTH 684 0
DWIDTH 19 0
BBX 15 22 2 0
BITMAP
1820
1830
1EE0
0FE0
0000
0000
0000
0FE0
3FF8
7038
600C
C00E
C006
C006
C006
C006
C006
E00E
601C
7838
3FF0
0FE0
ENDCHAR
STARTCHAR 0150
ENCODING 336
SWIDTH 936 0
DWIDTH 26 0
BBX 22 29 2 0
BITMAP
006600
006600
00C600
00CC00
008C00
000000
000000
01FC00
07FF80
0F07C0
1C00E0
380070
700030
600018
E00018
C0001C
C0000C
C0000C
C0000C
C0000C
C0001C
C00018
E00018
600038
300070
3800E0
1E03C0
0FFF80
01FE00
ENDCHAR
STARTCHAR 0151
ENCODING 337
SWIDTH 684 0
DWIDTH 19 0
BBX 15 23 2 0
BITMAP
0330
0730
0660
0660
0460
0440
0000
0000
0FE0
3FF8
7038
600C
C00E
C006
C006
C006
C006
C006
E00E
601C
7838
3FF0
0FE0
ENDCHAR
STARTCHAR 0152
ENCODING 338
SWIDTH 1152 0
DWIDTH 32 0
BBX 29 22 2 0
BITMAP
01FFFFF0
07FFFFF8
0F018000
1C018000
38018000
70018000
60018000
E0018000
C0018000
C0018000
C001FF80
C001FF80
C0018000
C0018000
C0018000
E0018000
60018000
30018000
38018000
1E018000
0FFFFFF8
01FFFFF8
ENDCHAR
STARTCHAR 0153
ENCODING 339
SWIDTH 1080 0
DWIDTH 30 0
BBX 27 15 2 0
BITMAP
0FE07F00
3FF1FF80
701981C0
600F00E0
C00F0060
C0060060
C007FFE0
C007FFE0
C0060000
C0060000
E00F0000
600F8000
7839C0C0
3FF0FFC0
0FE03F00
ENDCHAR
STARTCHAR 0154
ENCODING 340
SWIDTH 612 0
DWIDTH 17 0
BBX 13 29 3 0
BITMAP
00C0
01C0
0380
0700
0600
0000
0000
FF00
FFC0
C1E0
C070
C038
C018
C018
C018
C018
C038
C070
FFE0
FFC0
FF80
C1C0
C0C0
C0E0
C070
C030
C038
C018
C008
ENDCHAR
STARTCHAR 0155
ENCODING 341
SWIDTH 468 0
DWIDTH 13 0
BBX 10 23 2 0
BITMAP
0180
0380
0700
0E00
0C00
0000
0000
0000
6FC0
FFC0
F000
E000
E000
E000
E000
E000
E000
E000
E000
E000
E000
E000
4000
ENDCHAR
STARTCHAR 0156
ENCODING 342
SWIDTH 612 0
DWIDTH 17 0
BBX 13 29 3 -7
BITMAP
FF00
FFC0
C1E0
C070
C038
C018
C018
C018
C018
C038
C070
FFE0
FFC0
FF80
C1C0
C0C0
C0E0
C070
C030
C038
C018
C008
0000
0700
0780
0080
1880
1F80
0600
ENDCHAR
STARTCHAR 0157
ENCODING 343
SWIDTH 468 0
DWIDTH 13 0
BBX 12 22 0 -7
BITMAP
1BF0
3FF0
3C00
3800
3800
3800
3800
3800
3800
3800
3800
3800
3800
3800
1000
0000
3C00
1E00
0600
C600
7C00
1800
ENDCHAR
STARTCHAR 0158
ENCODING 344
SWIDTH 612 0
DWIDTH 17 0
BBX 13 28 3 1
BITMAP
30C0
3FC0
0F00
0600
0000
0000
FF00
FFC0
C1E0
C070
C038
C018
C018
C018
C018
C038
C070
FFE0
FFC0
FF80
C1C0
C0C0
C0E0
C070
C030
C038
C018
C008
ENDCHAR
STARTCHAR 0159
ENCODING 345
SWIDTH 468 0
DWIDTH 13 0
BBX 10 22 2 0
BITMAP
4080
7380
3F00
0E00
0000
0000
0000
6FC0
FFC0
F000
E000
E000
E000
E000
E000
E000
E000
E000
E000
E000
E000
4000
ENDCHAR
STARTCHAR 015A
ENCODING 346
SWIDTH 648 0
DWIDTH 18 0
BBX 15 29 2 0
BITMAP
0060
00E0
01C0
0380
0300
0000
0000
0FC0
3FF0
7838
601C
E00C
E000
E000
6000
7000
3E00
0FE0
01F8
003C
000C
000C
000E
000E
C00C
E00C
703C
3FF8
0FE0
ENDCHAR
STARTCHAR 015B
ENCODING 347
SWIDTH 540 0
DWIDTH 15 0
BBX 12 23 2 0
BITMAP
0080
01C0
0380
0700
0E00
0000
0000
0000
3F80
7FE0
E060
C020
C000
6000
7E00
1FC0
01E0
0070
0030
8030
E060
7FE0
3F80
ENDCHAR
STARTCHAR 015C
ENCODING 348
SWIDTH 648 0
DWIDTH 18 0
BBX 15 28 2 0
BITMAP
0380
0FC0
1CE0
1820
0000
0000
0FC0
3FF0
7838
601C
E00C
E000
E000
6000
7000
3E00
0FE0
01F8
003C
000C
000C
000E
000E
C00C
E00C
703C
3FF8
0FE0
ENDCHAR
STARTCHAR 015D
ENCODING 349
SWIDTH 540 0
DWIDTH 15 0
BBX 12 22 2 0
BITMAP
0600
1F00
3FC0
71C0
0000
0000
0000
3F80
7FE0
E060
C020
C000
6000
7E00
1FC0
01E0
0070
0030
8030
E060
7FE0
3F80
ENDCHAR
STARTCHAR 015E
ENCODING 350
SWIDTH 648 0
DWIDTH 18 0
BBX 15 28 2 -6
BITMAP
0FC0
3FF0
7838
601C
E00C
E000
E000
6000
7000
3E00
0FE0
01F8
003C
000C
000C
000E
000E
C00C
E00C
703C
3FF8
1FE0
0380
03C0
00E0
0860
0CE0
0FC0
ENDCHAR
STARTCHAR 015F
ENCODING 351
SWIDTH 540 0
DWIDTH 15 0
BBX 12 21 2 -6
BITMAP
3F80
7FE0
E060
C020
C000
6000
7E00
1FC0
01E0
0070
0030
8030
E060
7FE0
3F80
0600
0700
0380
1180
3B80
1F00
ENDCHAR
STARTCHAR 0160
ENCODING 352
SWIDTH 648 0
DWIDTH 18 0
BBX 15 28 2 1
BITMAP
1870
1EE0
0780
0300
0000
0000
0FC0
3FF0
7838
601C
E00C
E000
E000
6000
7000
3E00
0FE0
01F8
003C
000C
000C
000E
000E
C00C
E00C
703C
3FF8
0FE0
ENDCHAR
STARTCHAR 0161
ENCODING 353
SWIDTH 540 0
DWIDTH 15 0
BBX 12 22 2 0
BITMAP
20C0
79C0
1F80
0E00
0000
0000
0000
3F80
7FE0
E060
C020
C000
6000
7E00
1FC0
01E0
0070
0030
8030
E060
7FE0
3F80
ENDCHAR
STARTCHAR 0162
ENCODING 354
SWIDTH 648 0
DWIDTH 18 0
BBX 18 28 0 -6
BITMAP
7FFF80
FFFFC0
00C000
00C000
00C000
00C000
00C000
00C000
00C000
00C000
00C000
00C000
00C000
00C000
00C000
00C000
00C000
00C000
00C000
00C000
00C000
00E000
00C000
00E000
003800
023800
033800
03F000
ENDCHAR
STARTCHAR 0163
ENCODING 355
SWIDTH 396 0
DWIDTH 11 0
BBX 9 26 1 -6
BITMAP
3000
3000
3000
3000
3000
FF00
FF80
3000
3000
3000
3000
3000
3000
3000
3000
3800
1800
1C00
0F80
0780
0C00
0F00
0380
2180
3380
3F00
ENDCHAR
STARTCHAR 0164
ENCODING 356
SWIDTH 648 0
DWIDTH 18 0
BBX 18 28 0 1
BITMAP
061800
07F800
01E000
00C000
000000
000000
7FFF80
FFFFC0
00C000
00C000
00C000
00C000
00C000
00C000
00C000
00C000
00C000
00C000
00C000
00C000
00C000
00C000
00C000
00C000
00C000
00C000
00C000
00C000
ENDCHAR
STARTCHAR 0165
ENCODING 357
SWIDTH 396 0
DWIDTH 11 0
BBX 9 24 1 0
BITMAP
0180
0180
0180
0180
3180
3300
3200
3000
3000
FF00
FF80
3000
3000
3000
3000
3000
3000
3000
3000
3800
1800
1C00
0F80
0780
ENDCHAR
STARTCHAR 0166
ENCODING 358
SWIDTH 648 0
DWIDTH 18 0
BBX 18 22 0 0
BITMAP
7FFF80
FFFFC0
00C000
00C000
00C000
00C000
00C000
00C000
00C000
00C000
0FFC00
0FFE00
00C000
00C000
00C000
00C000
00C000
00C000
00C000
00C000
00C000
00C000
ENDCHAR
STARTCHAR 0167
ENCODING 359
SWIDTH 396 0
DWIDTH 11 0
BBX 9 20 1 0
BITMAP
3000
3000
3000
3000
3000
FF00
FF80
3000
3000
3000
FF00
FF00
3000
3000
3000
3800
1800
1C00
0F80
0780
ENDCHAR
STARTCHAR 0168
ENCODING 360
SWIDTH 828 0
DWIDTH 23 0
BBX 17 27 3 0
BITMAP
0F8400
1FFC00
187800
000000
000000
800100
C00180
C00180
C00180
C00180
C00180
C00180
C00180
C00180
C00180
C00180
C00180
C00180
C00180
C00180
C00180
C00180
E00300
600700
780E00
3FFC00
0FF800
ENDCHAR
STARTCHAR 0169
ENCODING 361
SWIDTH 684 0
DWIDTH 19 0
BBX 14 21 2 0
BITMAP
0700
1F98
39F8
0060
0000
0000
C00C
C00C
C00C
C00C
C00C
C00C
C00C
C00C
C00C
E00C
600C
601C
783C
3FFC
0FCC
ENDCHAR
STARTCHAR 016A
ENCODING 362
SWIDTH 828 0
DWIDTH 23 0
BBX 17 27 3 0
BITMAP
0FF800
0FF800
000000
000000
000000
800100
C00180
C00180
C00180
C00180
C00180
C00180
C00180
C00180
C00180
C00180
C00180
C00180
C00180
C00180
C00180
C00180
E00300
600700
780E00
3FFC00
0FF800
ENDCHAR
STARTCHAR 016B
ENCODING 363
SWIDTH 684 0
DWIDTH 19 0
BBX 14 20 2 0
BITMAP
1FF0
1FF0
0000
0000
0000
C00C
C00C
C00C
C00C
C00C
C00C
C00C
C00C
C00C
E00C
600C
601C
783C
3FFC
0FCC
ENDCHAR
STARTCHAR 016C
ENCODING 364
SWIDTH 828 0
DWIDTH 23 0
BBX 17 28 3 0
BITMAP
0C1800
0E3800
07F000
03E000
000000
000000
800100
C00180
C00180
C00180
C00180
C00180
C00180
C00180
C00180
C00180
C00180
C00180
C00180
C00180
C00180
C00180
C00180
E00300
600700
780E00
3FFC00
0FF800
ENDCHAR
STARTCHAR 016D
ENCODING 365
SWIDTH 684 0
DWIDTH 19 0
BBX 14 22 2 0
BITMAP
1820
1830
1EE0
0FE0
0000
0000
0000
C00C
C00C
C00C
C00C
C00C
C00C
C00C
C00C
C00C
E00C
600C
601C
783C
3FFC
0FCC
ENDCHAR
STARTCHAR 016E
ENCODING 366
SWIDTH 828 0
DWIDTH 23 0
BBX 17 28 3 0
BITMAP
03C000
022000
022000
036000
01C000
000000
800100
C00180
C00180
C00180
C00180
C00180
C00180
C00180
C00180
C00180
C00180
C00180
C00180
C00180
C00180
C00180
C00180
E00300
600700
780E00
3FFC00
0FF800
ENDCHAR
STARTCHAR 016F
ENCODING 367
SWIDTH 684 0
DWIDTH 19 0
BBX 14 22 2 0
BITMAP
0380
06C0
0440
0440
07C0
0100
0000
C00C
C00C
C00C
C00C
C00C
C00C
C00C
C00C
C00C
E00C
600C
601C
783C
3FFC
0FCC
ENDCHAR
STARTCHAR 0170
ENCODING 368
SWIDTH 828 0
DWIDTH 23 0
BBX 17 29 3 0
BITMAP
019800
031800
033000
033000
062000
000000
000000
800100
C00180
C00180
C00180
C00180
C00180
C00180
C00180
C00180
C00180
C00180
C00180
C00180
C00180
C00180
C00180
C00180
E00300
600700
780E00
3FFC00
0FF800
ENDCHAR
STARTCHAR 0171
ENCODING 369
SWIDTH 684 0
DWIDTH 19 0
BBX 14 23 2 0
BITMAP
0330
0730
0660
0660
0460
0440
0000
0000
C00C
C00C
C00C
C00C
C00C
C00C
C00C
C00C
C00C
E00C
600C
601C
783C
3FFC
0FCC
ENDCHAR
STARTCHAR 0172
ENCODING 370
SWIDTH 828 0
DWIDTH 23 0
BBX 17 28 3 -6
BITMAP
800100
C00180
C00180
C00180
C00180
C00180
C00180
C00180
C00180
C00180
C00180
C00180
C00180
C00180
C00180
C00180
C00180
E00300
600700
780E00
3FFC00
0FF800
007000
00E000
00C000
00EC00
00FC00
003800
ENDCHAR
STARTCHAR 0173
ENCODING 371
SWIDTH 684 0
DWIDTH 19 0
BBX 16 22 2 -7
BITMAP
C00C
C00C
C00C
C00C
C00C
C00C
C00C
C00C
C00C
E00C
600C
601C
783C
3FFC
0FCC
000C
001C
0038
0030
0033
003F
001E
ENDCHAR
STARTCHAR 0174
ENCODING 372
SWIDTH 936 0
DWIDTH 26 0
BBX 24 28 1 0
BITMAP
003C00
007E00
00E700
00C300
000000
000000
800001
C01803
C01803
C03C03
E03C07
603C06
603C06
606606
30660C
30660C
30C30C
38C31C
18C318
18C318
198198
0D81B0
0D81B0
0D81B0
0700E0
0700E0
0700E0
060040
ENDCHAR
STARTCHAR 0175
ENCODING 373
SWIDTH 756 0
DWIDTH 21 0
BBX 19 22 1 0
BITMAP
00C000
01F000
07F800
071C00
000000
000000
000000
80C060
C0E060
C0E0E0
C1E0C0
61B0C0
61B0C0
633180
331180
331980
321B00
1E1B00
1E0F00
1C0E00
0C0E00
0C0600
ENDCHAR
STARTCHAR 0176
ENCODING 374
SWIDTH 648 0
DWIDTH 18 0
BBX 18 28 0 0
BITMAP
01E000
03F000
073800
061800
000000
000000
400080
E000C0
600180
700380
300300
180600
1C0E00
0C0C00
0E1C00
061800
033000
03F000
01E000
00C000
00C000
00C000
00C000
00C000
00C000
00C000
00C000
00C000
ENDCHAR
STARTCHAR 0177
ENCODING 375
SWIDTH 540 0
DWIDTH 15 0
BBX 14 29 1 -7
BITMAP
0300
0F80
1FE0
38E0
0000
0000
0000
C00C
C00C
C018
6018
6030
3030
3060
1860
18E0
0CC0
0DC0
0780
0780
0300
0300
0600
0600
0C00
0C00
1C00
1800
0800
ENDCHAR
STARTCHAR 0178
ENCODING 376
SWIDTH 648 0
DWIDTH 18 0
BBX 18 27 0 1
BITMAP
073800
073800
020000
000000
000000
400080
E000C0
600180
700380
300300
180600
1C0E00
0C0C00
0E1C00
061800
033000
03F000
01E000
00C000
00C000
00C000
00C000
00C000
00C000
00C000
00C000
00C000
ENDCHAR
STARTCHAR 0179
ENCODING 377
SWIDTH 720 0
DWIDTH 20 0
BBX 18 29 1 0
BITMAP
001800
003800
007000
00E000
00C000
000000
000000
7FFF80
7FFFC0
000180
000300
000700
000E00
000C00
001800
003000
007000
00E000
00C000
018000
030000
070000
0E0000
0C0000
180000
300000
700000
FFFFC0
7FFFC0
ENDCHAR
STARTCHAR 017A
ENCODING 378
SWIDTH 540 0
DWIDTH 15 0
BBX 12 23 2 0
BITMAP
0080
01C0
0380
0700
0600
0000
0000
0000
FFF0
FFF0
0060
00C0
0180
0380
0700
0600
0C00
1800
3800
7000
6000
FFF0
FFF0
ENDCHAR
STARTCHAR 017B
ENCODING 379
SWIDTH 720 0
DWIDTH 20 0
BBX 18 27 1 1
BITMAP
00C000
00C000
000000
000000
000000
7FFF80
7FFFC0
000180
000300
000700
000E00
000C00
001800
003000
007000
00E000
00C000
018000
030000
070000
0E0000
0C0000
180000
300000
700000
FFFFC0
7FFFC0
ENDCHAR
STARTCHAR 017C
ENCODING 380
SWIDTH 540 0
DWIDTH 15 0
BBX 12 21 2 0
BITMAP
0600
0E00
0600
0000
0000
0000
FFF0
FFF0
0060
00C0
0180
0380
0700
0600
0C00
1800
3800
7000
6000
FFF0
FFF0
ENDCHAR
STARTCHAR 017D
ENCODING 381
SWIDTH 720 0
DWIDTH 20 0
BBX 18 28 1 1
BITMAP
061800
07F800
01E000
00C000
000000
000000
7FFF80
7FFFC0
000180
000300
000700
000E00
000C00
001800
003000
007000
00E000
00C000
018000
030000
070000
0E0000
0C0000
180000
300000
700000
FFFFC0
7FFFC0
ENDCHAR
STARTCHAR 017E
ENCODING 382
SWIDTH 540 0
DWIDTH 15 0
BBX 12 22 2 0
BITMAP
2040
39C0
1F80
0E00
0000
0000
0000
FFF0
FFF0
0060
00C0
0180
0380
0700
0600
0C00
1800
3800
7000
6000
FFF0
FFF0
ENDCHAR
STARTCHAR 017F
ENCODING 383
SWIDTH 324 0
DWIDTH 9 0
BBX 7 22 2 0
BITMAP
04
3E
70
E0
C0
C0
C0
C0
C0
C0
C0
C0
C0
C0
C0
C0
C0
C0
C0
C0
C0
C0
ENDCHAR
STARTCHAR 018F
ENCODING 399
SWIDTH 828 0
DWIDTH 23 0
BBX 20 22 2 0
BITMAP
07F000
1FFC00
3C1F00
300380
0001C0
0000C0
0000E0
000060
000060
000060
FFFFF0
FFFFF0
C00070
C00060
C00060
E00060
6000C0
7001C0
380380
1C0700
0FFE00
03FC00
ENDCHAR
STARTCHAR 0192
ENCODING 402
SWIDTH 468 0
DWIDTH 13 0
BBX 13 28 0 -7
BITMAP
0018
00F8
01F0
0380
0300
0300
0700
0700
1FF0
0FF0
0700
0700
0700
0700
0700
0700
0700
0700
0700
0700
0700
0700
0700
0600
0600
0E00
7C00
F800
ENDCHAR
STARTCHAR 01A0
ENCODING 416
SWIDTH 936 0
DWIDTH 26 0
BBX 22 24 2 0
BITMAP
000010
000030
01FC30
07FFF0
0F07E0
1C00E0
380070
700038
600018
E00018
C0001C
C0000C
C0000C
C0000C
C0000C
C0001C
C00018
E00018
600038
300070
3800E0
1E03C0
0FFF80
01FE00
ENDCHAR
STARTCHAR 01A1
ENCODING 417
SWIDTH 684 0
DWIDTH 19 0
BBX 15 18 2 0
BITMAP
0002
0006
0006
0FFE
3FFC
7038
600C
C00E
C006
C006
C006
C006
C006
E00E
601C
7838
3FF0
0FE0
ENDCHAR
STARTCHAR 01AF
ENCODING 431
SWIDTH 828 0
DWIDTH 23 0
BBX 20 25 3 0
BITMAP
000010
000030
000030
8001F0
C001E0
C00180
C00180
C00180
C00180
C00180
C00180
C00180
C00180
C00180
C00180
C00180
C00180
C00180
C00180
C00180
E00300
600700
780E00
3FFC00
0FF800
ENDCHAR
STARTCHAR 01B0
ENCODING 432
SWIDTH 684 0
DWIDTH 19 0
BBX 18 18 2 0
BITMAP
0000C0
0000C0
000180
C00F80
C00F00
C00C00
C00C00
C00C00
C00C00
C00C00
C00C00
C00C00
E00C00
600C00
601C00
783C00
3FFC00
0FCC00
ENDCHAR
STARTCHAR 01CE
ENCODING 462
SWIDTH 684 0
DWIDTH 19 0
BBX 15 22 2 0
BITMAP
1830
1C70
0FC0
0380
0000
0000
0000
0FE0
3FF0
7038
600C
C00E
C006
C006
C006
C006
C006
E00E
601E
783E
3FF6
0FC6
ENDCHAR
STARTCHAR 01D4
ENCODING 468
SWIDTH 684 0
DWIDTH 19 0
BBX 14 22 2 0
BITMAP
1830
1C70
0FC0
0380
0000
0000
0000
C00C
C00C
C00C
C00C
C00C
C00C
C00C
C00C
C00C
E00C
600C
601C
783C
3FFC
0FCC
ENDCHAR
STARTCHAR 01E6
ENCODING 486
SWIDTH 756 0
DWIDTH 21 0
BBX 18 28 2 1
BITMAP
030E00
03DC00
00F000
002000
000000
000000
01FC00
07FF00
0F0780
1C01C0
380000
700000
600000
E00000
C00000
C00000
C00000
C03F80
C03FC0
C000C0
C000C0
6000C0
7000C0
3000C0
3800C0
1E03C0
07FF80
01FE00
ENDCHAR
STARTCHAR 01E7
ENCODING 487
SWIDTH 684 0
DWIDTH 19 0
BBX 15 28 2 -6
BITMAP
1830
1C70
0FC0
0380
0000
0000
0000
0FE0
3FF8
701C
600C
C00E
C006
C006
C006
C006
C006
E00E
600E
783E
3FF6
0FC6
0006
400C
601C
7838
3FF0
0FC0
ENDCHAR
STARTCHAR 01EA
ENCODING 490
SWIDTH 936 0
DWIDTH 26 0
BBX 22 29 2 -7
BITMAP
01FC00
07FF80
0F07C0
1C00E0
380070
700030
600018
E00018
C0001C
C0000C
C0000C
C0000C
C0000C
C0001C
C00018
E00018
600038
300070
3800E0
1E03C0
07FF80
01FE00
003000
007000
00E000
00C000
00CC00
00FC00
007800
ENDCHAR
STARTCHAR 01EB
ENCODING 491
SWIDTH 684 0
DWIDTH 19 0
BBX 15 21 2 -6
BITMAP
0FE0
3FF8
7038
600C
C00E
C006
C006
C006
C006
C006
E00E
601C
7838
3FF0
0FE0
00E0
01C0
0180
0198
01F8
00F0
ENDCHAR
STARTCHAR 01FA
ENCODING 506
SWIDTH 720 0
DWIDTH 20 0
BBX 18 35 1 0
BITMAP
001000
003800
007000
00E000
01C000
000000
000000
01E000
032000
022000
036000
01C000
000000
008000
00C000
01C000
01E000
03E000
033000
073000
063800
061800
0C1800
0C0C00
1C0C00
180E00
180600
300700
3FFF00
7FFF00
600380
E00180
C001C0
C000C0
8000C0
ENDCHAR
STARTCHAR 01FB
ENCODING 507
SWIDTH 684 0
DWIDTH 19 0
BBX 15 28 2 0
BITMAP
0060
00E0
01C0
0380
0300
0000
0380
06C0
0440
0440
07C0
0100
0000
0FE0
3FF0
7038
600C
C00E
C006
C006
C006
C006
C006
E00E
601E
783E
3FF6
0FC6
ENDCHAR
STARTCHAR 01FC
ENCODING 508
SWIDTH 972 0
DWIDTH 27 0
BBX 24 29 1 0
BITMAP
000060
0000E0
0001C0
000380
000300
000000
000000
000FFF
001FFF
003C00
003C00
007C00
007C00
00DC00
01DC00
019C00
039C00
031FF8
061FF8
0E1C00
0C1C00
1C1C00
1FFC00
3FFC00
701C00
601C00
E01C00
C01FFF
C01FFF
ENDCHAR
STARTCHAR 01FD
ENCODING 509
SWIDTH 1080 0
DWIDTH 30 0
BBX 27 23 2 0
BITMAP
00008000
00018000
00038000
00070000
000E0000
00000000
00000000
00000000
0FE07F00
3FF0FF80
703981C0
600F00E0
C00F0060
C0060060
C007FFE0
C007FFE0
C0060000
C0060000
E00F0000
601F8000
783FC0C0
3FF6FFC0
0FC63F00
ENDCHAR
STARTCHAR 01FE
ENCODING 510
SWIDTH 900 0
DWIDTH 25 0
BBX 22 29 2 0
BITMAP
000E00
001C00
003C00
003800
003000
000000
000000
01FC08
07FF9C
0F03F8
1C00F0
3800F0
7001F0
600398
E00718
C00E1C
C01C0C
C0380C
C0700C
C0E00C
C1C01C
C38018
E70018
6E0038
7C0070
3800E0
7E03C0
C7FF80
83FE00
ENDCHAR
STARTCHAR 01FF
ENCODING 511
SWIDTH 684 0
DWIDTH 19 0
BBX 16 24 2 -1
BITMAP
0020
0070
00E0
01C0
0180
0000
0000
0000
0FE3
1FFE
381C
701E
6036
E066
C0C7
C187
C307
E606
6C06
780E
381C
7FF8
C7E0
8000
ENDCHAR
STARTCHAR 0200
ENCODING 512
SWIDTH 720 0
DWIDTH 20 0
BBX 18 29 1 0
BITMAP
066000
067000
033000
033000
011800
000000
000000
008000
00C000
01C000
01E000
03E000
033000
073000
063800
061800
0C1800
0C0C00
1C0C00
180E00
180600
300700
3FFF00
7FFF00
600380
E00180
C001C0
C000C0
8000C0
ENDCHAR
STARTCHAR 0201
ENCODING 513
SWIDTH 684 0
DWIDTH 19 0
BBX 15 23 2 0
BITMAP
0CC0
0CC0
0CC0
0660
0660
0220
0000
0000
0FE0
3FF0
7038
600C
C00E
C006
C006
C006
C006
C006
E00E
601E
783E
3FF6
0FC6
ENDCHAR
STARTCHAR 0202
ENCODING 514
SWIDTH 720 0
DWIDTH 20 0
BBX 18 28 1 0
BITMAP
03F000
07F800
0E1800
041800
000000
000000
008000
00C000
01C000
01E000
03E000
033000
073000
063800
061800
0C1800
0C0C00
1C0C00
180E00
180600
300700
3FFF00
7FFF00
600380
E00180
C001C0
C000C0
8000C0
ENDCHAR
STARTCHAR 0203
ENCODING 515
SWIDTH 684 0
DWIDTH 19 0
BBX 15 22 2 0
BITMAP
0780
0FE0
1C70
1830
0000
0000
0000
0FE0
3FF0
7038
600C
C00E
C006
C006
C006
C006
C006
E00E
601E
783E
3FF6
0FC6
ENDCHAR
STARTCHAR 0204
ENCODING 516
SWIDTH 684 0
DWIDTH 19 0
BBX 15 29 3 0
BITMAP
0CC0
0CE0
0660
0660
0620
0000
0000
FFFE
FFFE
C000
C000
C000
C000
C000
C000
C000
C000
FFF0
FFF0
C000
C000
C000
C000
C000
C000
C000
C000
FFFE
FFFE
ENDCHAR
STARTCHAR 0205
ENCODING 517
SWIDTH 612 0
DWIDTH 17 0
BBX 14 23 2 0
BITMAP
1980
19C0
0CC0
0CC0
0460
0440
0000
0000
1FC0
3FF0
7038
6018
C01C
C00C
FFFC
FFFC
C000
C000
C000
6000
7038
3FF0
0FE0
ENDCHAR
STARTCHAR 0206
ENCODING 518
SWIDTH 684 0
DWIDTH 19 0
BBX 15 28 3 0
BITMAP
07C0
0EE0
1830
1830
0000
0000
FFFE
FFFE
C000
C000
C000
C000
C000
C000
C000
C000
FFF0
FFF0
C000
C000
C000
C000
C000
C000
C000
C000
FFFE
FFFE
ENDCHAR
STARTCHAR 0207
ENCODING 519
SWIDTH 612 0
DWIDTH 17 0
BBX 14 22 2 0
BITMAP
0780
1FC0
1860
3860
0000
0000
0000
1FC0
3FF0
7038
6018
C01C
C00C
FFFC
FFFC
C000
C000
C000
6000
7038
3FF0
0FE0
ENDCHAR
STARTCHAR 0208
ENCODING 520
SWIDTH 288 0
DWIDTH 8 0
BBX 8 29 0 0
BITMAP
CC
E6
66
66
23
00
00
10
18
18
18
18
18
18
18
18
18
18
18
18
18
18
18
18
18
18
18
18
18
ENDCHAR
STARTCHAR 0209
ENCODING 521
SWIDTH 288 0
DWIDTH 8 0
BBX 8 23 0 0
BITMAP
C4
EE
66
66
33
20
00
00
18
18
18
18
18
18
18
18
18
18
18
18
18
18
18
ENDCHAR
STARTCHAR 020A
ENCODING 522
SWIDTH 288 0
DWIDTH 8 0
BBX 8 28 0 0
BITMAP
7E
FF
C3
83
00
00
10
18
18
18
18
18
18
18
18
18
18
18
18
18
18
18
18
18
18
18
18
18
ENDCHAR
STARTCHAR 020B
ENCODING 523
SWIDTH 288 0
DWIDTH 8 0
BBX 8 22 0 0
BITMAP
3C
7E
C3
C3
00
00
00
18
18
18
18
18
18
18
18
18
18
18
18
18
18
18
ENDCHAR
STARTCHAR 020C
ENCODING 524
SWIDTH 936 0
DWIDTH 26 0
BBX 22 29 2 0
BITMAP
019800
019C00
00CC00
00CC00
004600
000000
000000
01FC00
07FF80
0F07C0
1C00E0
380070
700030
600018
E00018
C0001C
C0000C
C0000C
C0000C
C0000C
C0001C
C00018
E00018
600038
300070
3800E0
1E03C0
0FFF80
01FE00
ENDCHAR
STARTCHAR 020D
ENCODING 525
SWIDTH 684 0
DWIDTH 19 0
BBX 15 23 2 0
BITMAP
0CC0
0CC0
0CC0
0660
0660
0220
0000
0000
0FE0
3FF8
7038
600C
C00E
C006
C006
C006
C006
C006
E00E
601C
7838
3FF0
0FE0
ENDCHAR
STARTCHAR 020E
ENCODING 526
SWIDTH 936 0
DWIDTH 26 0
BBX 22 28 2 0
BITMAP
00FC00
01FE00
038600
010600
000000
000000
01FC00
07FF80
0F07C0
1C00E0
380070
700030
600018
E00018
C0001C
C0000C
C0000C
C0000C
C0000C
C0001C
C00018
E00018
600038
300070
3800E0
1E03C0
0FFF80
01FE00
ENDCHAR
STARTCHAR 020F
ENCODING 527
SWIDTH 684 0
DWIDTH 19 0
BBX 15 22 2 0
BITMAP
0780
0FE0
1C70
1830
0000
0000
0000
0FE0
3FF8
7038
600C
C00E
C006
C006
C006
C006
C006
E00E
601C
7838
3FF0
0FE0
ENDCHAR
STARTCHAR 0210
ENCODING 528
SWIDTH 612 0
DWIDTH 17 0
BBX 13 29 3 0
BITMAP
3380
3980
1980
1880
08C0
0000
0000
FF00
FFC0
C1E0
C070
C038
C018
C018
C018
C018
C038
C070
FFE0
FFC0
FF80
C1C0
C0C0
C0E0
C070
C030
C038
C018
C008
ENDCHAR
STARTCHAR 0211
ENCODING 529
SWIDTH 468 0
DWIDTH 13 0
BBX 10 23 2 0
BITMAP
2200
7300
3300
3180
1980
1080
0000
0000
6FC0
FFC0
F000
E000
E000
E000
E000
E000
E000
E000
E000
E000
E000
E000
4000
ENDCHAR
STARTCHAR 0212
ENCODING 530
SWIDTH 612 0
DWIDTH 17 0
BBX 13 28 3 0
BITMAP
1F80
3FC0
30C0
20C0
0000
0000
FF00
FFC0
C1E0
C070
C038
C018
C018
C018
C018
C038
C070
FFE0
FFC0
FF80
C1C0
C0C0
C0E0
C070
C030
C038
C018
C008
ENDCHAR
STARTCHAR 0213
ENCODING 531
SWIDTH 468 0
DWIDTH 13 0
BBX 10 22 2 0
BITMAP
1E00
3F80
6180
6180
0080
0000
0000
6FC0
FFC0
F000
E000
E000
E000
E000
E000
E000
E000
E000
E000
E000
E000
4000
ENDCHAR
STARTCHAR 0214
ENCODING 532
SWIDTH 828 0
DWIDTH 23 0
BBX 17 29 3 0
BITMAP
066000
066000
063000
033000
033000
000000
000000
800100
C00180
C00180
C00180
C00180
C00180
C00180
C00180
C00180
C00180
C00180
C00180
C00180
C00180
C00180
C00180
C00180
E00300
600700
780E00
3FFC00
0FF800
ENDCHAR
STARTCHAR 0215
ENCODING 533
SWIDTH 684 0
DWIDTH 19 0
BBX 14 23 2 0
BITMAP
0CC0
0CC0
0CC0
0660
0660
0220
0000
0000
C00C
C00C
C00C
C00C
C00C
C00C
C00C
C00C
C00C
E00C
600C
601C
783C
3FFC
0FCC
ENDCHAR
STARTCHAR 0216
ENCODING 534
SWIDTH 828 0
DWIDTH 23 0
BBX 17 28 3 0
BITMAP
07E000
0FF000
0C3800
0C1800
000000
000000
800100
C00180
C00180
C00180
C00180
C00180
C00180
C00180
C00180
C00180
C00180
C00180
C00180
C00180
C00180
C00180
C00180
E00300
600700
780E00
3FFC00
0FF800
ENDCHAR
STARTCHAR 0217
ENCODING 535
SWIDTH 684 0
DWIDTH 19 0
BBX 14 22 2 0
BITMAP
0780
0FE0
1C70
1830
0000
0000
0000
C00C
C00C
C00C
C00C
C00C
C00C
C00C
C00C
C00C
E00C
600C
601C
783C
3FFC
0FCC
ENDCHAR
STARTCHAR 0218
ENCODING 536
SWIDTH 648 0
DWIDTH 18 0
BBX 15 29 2 -7
BITMAP
0FC0
3FF0
7838
601C
E00C
E000
E000
6000
7000
3E00
0FE0
01F8
003C
000C
000C
000E
000E
C00C
E00C
703C
3FF8
0FE0
0000
0380
03C0
0060
0C60
0FC0
0380
ENDCHAR
STARTCHAR 0219
ENCODING 537
SWIDTH 540 0
DWIDTH 15 0
BBX 12 22 2 -7
BITMAP
3F80
7FE0
E060
C020
C000
6000
7E00
1FC0
01E0
0070
0030
8030
E060
7FE0
3F80
0000
0700
0780
0080
1980
1F80
0600
ENDCHAR
STARTCHAR 021A
ENCODING 538
SWIDTH 648 0
DWIDTH 18 0
BBX 18 29 0 -7
BITMAP
7FFF80
FFFFC0
00C000
00C000
00C000
00C000
00C000
00C000
00C000
00C000
00C000
00C000
00C000
00C000
00C000
00C000
00C000
00C000
00C000
00C000
00C000
00C000
000000
00E000
00F000
001800
031800
03F000
00C000
ENDCHAR
STARTCHAR 021B
ENCODING 539
SWIDTH 396 0
DWIDTH 11 0
BBX 9 27 1 -7
BITMAP
3000
3000
3000
3000
3000
FF00
FF80
3000
3000
3000
3000
3000
3000
3000
3000
3800
1800
1C00
0F80
0780
0000
0E00
0F00
0180
3180
3F00
0C00
ENDCHAR
STARTCHAR 022A
ENCODING 554
SWIDTH 936 0
DWIDTH 26 0
BBX 22 32 2 0
BITMAP
03FE00
03FE00
000000
000000
000400
038E00
038E00
000000
000000
000000
01FC00
07FF80
0F07C0
1C00E0
380070
700030
600018
E00018
C0001C
C0000C
C0000C
C0000C
C0000C
C0001C
C00018
E00018
600038
300070
3800E0
1E03C0
0FFF80
01FE00
ENDCHAR
STARTCHAR 022B
ENCODING 555
SWIDTH 684 0
DWIDTH 19 0
BBX 15 26 2 0
BITMAP
0FE0
1FF0
0000
0000
0000
1C60
1C70
1C60
0000
0000
0000
0FE0
3FF8
7038
600C
C00E
C006
C006
C006
C006
C006
E00E
601C
7838
3FF0
0FE0
ENDCHAR
STARTCHAR 022C
ENCODING 556
SWIDTH 936 0
DWIDTH 26 0
BBX 22 31 2 0
BITMAP
03FF00
01FE00
000000
000000
01F180
03FF80
030F00
000000
000000
01FC00
07FF80
0F07C0
1C00E0
380070
700030
600018
E00018
C0001C
C0000C
C0000C
C0000C
C0000C
C0001C
C00018
E00018
600038
300070
3800E0
1E03C0
0FFF80
01FE00
ENDCHAR
STARTCHAR 022D
ENCODING 557
SWIDTH 684 0
DWIDTH 19 0
BBX 15 25 2 0
BITMAP
1FF0
1FF0
0000
0000
0F00
1F98
39F8
1060
0000
0000
0FE0
3FF8
7038
600C
C00E
C006
C006
C006
C006
C006
E00E
601C
7838
3FF0
0FE0
ENDCHAR
STARTCHAR 0230
ENCODING 560
SWIDTH 936 0
DWIDTH 26 0
BBX 22 31 2 0
BITMAP
03FE00
01FE00
000000
002000
007000
007000
000000
000000
000000
01FC00
07FF80
0F07C0
1C00E0
380070
700030
600018
E00018
C0001C
C0000C
C0000C
C0000C
C0000C
C0001C
C00018
E00018
600038
300070
3800E0
1E03C0
0FFF80
01FE00
ENDCHAR
STARTCHAR 0231
ENCODING 561
SWIDTH 684 0
DWIDTH 19 0
BBX 15 25 2 0
BITMAP
1FF0
1FF0
0000
0000
0380
0380
0300
0000
0000
0000
0FE0
3FF8
7038
600C
C00E
C006
C006
C006
C006
C006
E00E
601C
7838
3FF0
0FE0
ENDCHAR
STARTCHAR 0232
ENCODING 562
SWIDTH 648 0
DWIDTH 18 0
BBX 18 27 0 0
BITMAP
07F800
0FFC00
000000
000000
000000
400080
E000C0
600180
700380
300300
180600
1C0E00
0C0C00
0E1C00
061800
033000
03F000
01E000
00C000
00C000
00C000
00C000
00C000
00C000
00C000
00C000
00C000
ENDCHAR
STARTCHAR 0233
ENCODING 563
SWIDTH 540 0
DWIDTH 15 0
BBX 14 27 1 -7
BITMAP
3FE0
3FE0
0000
0000
0000
C00C
C00C
C018
6018
6030
3030
3060
1860
18E0
0CC0
0DC0
0780
0780
0300
0300
0600
0600
0C00
0C00
1C00
1800
0800
ENDCHAR
STARTCHAR 0237
ENCODING 567
SWIDTH 288 0
DWIDTH 8 0
BBX 8 22 -3 -7
BITMAP
03
03
03
03
03
03
03
03
03
03
03
03
03
03
03
03
03
07
0E
7C
F8
40
ENDCHAR
STARTCHAR 0259
ENCODING 601
SWIDTH 612 0
DWIDTH 17 0
BBX 14 15 1 0
BITMAP
1FC0
3FF0
7038
0018
000C
000C
000C
FFFC
C00C
C00C
600C
6018
3038
1FF0
0FC0
ENDCHAR
STARTCHAR 02BB
ENCODING 699
SWIDTH 216 0
DWIDTH 6 0
BBX 3 7 2 15
BITMAP
20
60
E0
C0
C0
E0
E0
ENDCHAR
STARTCHAR 02BC
ENCODING 700
SWIDTH 180 0
DWIDTH 5 0
BBX 4 7 -2 15
BITMAP
60
70
70
60
60
60
C0
ENDCHAR
STARTCHAR 02C6
ENCODING 710
SWIDTH 396 0
DWIDTH 11 0
BBX 9 4 1 17
BITMAP
1C00
7E00
F700
C380
ENDCHAR
STARTCHAR 02C7
ENCODING 711
SWIDTH 396 0
DWIDTH 11 0
BBX 9 4 1 18
BITMAP
C380
7700
3E00
0800
ENDCHAR
STARTCHAR 02C9
ENCODING 713
SWIDTH 396 0
DWIDTH 11 0
BBX 9 2 1 17
BITMAP
FF80
FF00
ENDCHAR
STARTCHAR 02D8
ENCODING 728
SWIDTH 396 0
DWIDTH 11 0
BBX 9 5 1 17
BITMAP
0100
C180
E300
7F00
1C00
ENDCHAR
STARTCHAR 02D9
ENCODING 729
SWIDTH 180 0
DWIDTH 5 0
BBX 3 3 1 17
BITMAP
E0
E0
40
ENDCHAR
STARTCHAR 02DA
ENCODING 730
SWIDTH 288 0
DWIDTH 8 0
BBX 5 5 1 16
BITMAP
70
D8
88
88
78
ENDCHAR
STARTCHAR 02DB
ENCODING 731
SWIDTH 324 0
DWIDTH 9 0
BBX 7 7 1 -6
BITMAP
30
70
70
E0
C4
FE
7C
ENDCHAR
STARTCHAR 02DC
ENCODING 732
SWIDTH 468 0
DWIDTH 13 0
BBX 11 3 1 17
BITMAP
3800
7E60
C7E0
ENDCHAR
STARTCHAR 02DD
ENCODING 733
SWIDTH 360 0
DWIDTH 10 0
BBX 8 6 1 16
BITMAP
22
67
66
66
CC
CC
ENDCHAR
STARTCHAR 0300
ENCODING 768
SWIDTH 0 0
DWIDTH 0 0
BBX 5 5 1 18
BITMAP
C0
E0
70
38
18
ENDCHAR
STARTCHAR 0301
ENCODING 769
SWIDTH 0 0
DWIDTH 0 0
BBX 5 5 1 17
BITMAP
08
18
38
70
E0
ENDCHAR
STARTCHAR 0302
ENCODING 770
SWIDTH 0 0
DWIDTH 0 0
BBX 9 4 1 18
BITMAP
0800
3E00
7700
E380
ENDCHAR
STARTCHAR 0303
ENCODING 771
SWIDTH 0 0
DWIDTH 0 0
BBX 11 3 1 17
BITMAP
3800
7E60
C7E0
ENDCHAR
STARTCHAR 0304
ENCODING 772
SWIDTH 0 0
DWIDTH 0 0
BBX 9 2 3 18
BITMAP
FF80
FF80
ENDCHAR
STARTCHAR 0306
ENCODING 774
SWIDTH 0 0
DWIDTH 0 0
BBX 9 4 1 18
BITMAP
C100
C180
F700
7E00
ENDCHAR
STARTCHAR 0307
ENCODING 775
SWIDTH 0 0
DWIDTH 0 0
BBX 3 3 3 18
BITMAP
C0
E0
C0
ENDCHAR
STARTCHAR 0308
ENCODING 776
SWIDTH 0 0
DWIDTH 0 0
BBX 9 3 2 18
BITMAP
6180
E380
6180
ENDCHAR
STARTCHAR 0309
ENCODING 777
SWIDTH 0 0
DWIDTH 0 0
BBX 6 7 1 17
BITMAP
78
FC
0C
04
1C
38
30
ENDCHAR
STARTCHAR 030A
ENCODING 778
SWIDTH 0 0
DWIDTH 0 0
BBX 5 5 1 16
BITMAP
70
D8
88
88
78
ENDCHAR
STARTCHAR 030B
ENCODING 779
SWIDTH 0 0
DWIDTH 0 0
BBX 8 6 1 17
BITMAP
22
67
66
46
CC
84
ENDCHAR
STARTCHAR 030C
ENCODING 780
SWIDTH 0 0
DWIDTH 0 0
BBX 9 4 1 18
BITMAP
C100
E380
7E00
1C00
ENDCHAR
STARTCHAR 030F
ENCODING 783
SWIDTH 0 0
DWIDTH 0 0
BBX 7 6 1 17
BITMAP
CC
CE
E6
66
62
22
ENDCHAR
STARTCHAR 0311
ENCODING 785
SWIDTH 0 0
DWIDTH 0 0
BBX 9 5 1 17
BITMAP
1E00
7F00
6380
C180
4000
ENDCHAR
STARTCHAR 0312
ENCODING 786
SWIDTH 0 0
DWIDTH 0 0
BBX 4 7 1 18
BITMAP
30
60
60
E0
F0
F0
60
ENDCHAR
STARTCHAR 031B
ENCODING 795
SWIDTH 0 0
DWIDTH 0 0
BBX 4 5 0 13
BITMAP
30
30
30
F0
E0
ENDCHAR
STARTCHAR 0323
ENCODING 803
SWIDTH 0 0
DWIDTH 0 0
BBX 3 3 1 -6
BITMAP
60
E0
60
ENDCHAR
STARTCHAR 0324
ENCODING 804
SWIDTH 0 0
DWIDTH 0 0
BBX 9 3 1 -6
BITMAP
6380
E380
0100
ENDCHAR
STARTCHAR 0326
ENCODING 806
SWIDTH 0 0
DWIDTH 0 0
BBX 7 6 1 -7
BITMAP
38
1C
06
C6
FC
30
ENDCHAR
STARTCHAR 0327
ENCODING 807
SWIDTH 0 0
DWIDTH 0 0
BBX 7 7 1 -6
BITMAP
18
38
3C
0E
06
EE
FC
ENDCHAR
STARTCHAR 0328
ENCODING 808
SWIDTH 0 0
DWIDTH 0 0
BBX 7 7 1 -6
BITMAP
30
70
70
E0
C4
FE
7C
ENDCHAR
STARTCHAR 032E
ENCODING 814
SWIDTH 0 0
DWIDTH 0 0
BBX 9 5 1 -7
BITMAP
4100
C180
E300
7F00
1800
ENDCHAR
STARTCHAR 0331
ENCODING 817
SWIDTH 0 0
DWIDTH 0 0
BBX 10 2 1 -5
BITMAP
FFC0
7F80
ENDCHAR
STARTCHAR 0335
ENCODING 821
SWIDTH 0 0
DWIDTH 0 0
BBX 11 2 2 8
BITMAP
FFC0
FFE0
ENDCHAR
STARTCHAR 0336
ENCODING 822
SWIDTH 0 0
DWIDTH 0 0
BBX 23 2 1 8
BITMAP
7FFFFC
FFFFFE
ENDCHAR
STARTCHAR 0344
ENCODING 836
SWIDTH 0 0
DWIDTH 0 0
BBX 12 6 -6 18
BITMAP
0300
0300
0300
6730
F670
6670
ENDCHAR
STARTCHAR 0374
ENCODING 884
SWIDTH 252 0
DWIDTH 7 0
BBX 5 8 1 16
BITMAP
18
38
30
70
60
60
E0
C0
ENDCHAR
STARTCHAR 0375
ENCODING 885
SWIDTH 252 0
DWIDTH 7 0
BBX 5 8 1 -8
BITMAP
18
38
30
70
60
60
E0
C0
ENDCHAR
STARTCHAR 037E
ENCODING 894
SWIDTH 216 0
DWIDTH 6 0
BBX 4 19 1 -5
BITMAP
E0
E0
E0
00
00
00
00
00
00
00
00
00
60
F0
70
70
30
60
60
ENDCHAR
STARTCHAR 0384
ENCODING 900
SWIDTH 216 0
DWIDTH 6 0
BBX 4 5 1 19
BITMAP
30
70
60
E0
C0
ENDCHAR
STARTCHAR 0385
ENCODING 901
SWIDTH 576 0
DWIDTH 16 0
BBX 12 6 2 18
BITMAP
0300
0300
0700
6670
E670
6670
ENDCHAR
STARTCHAR 0386
ENCODING 902
SWIDTH 720 0
DWIDTH 20 0
BBX 18 22 1 0
BITMAP
108000
38C000
31C000
71E000
63E000
633000
073000
063800
061800
0C1800
0C0C00
1C0C00
180E00
180600
300700
3FFF00
7FFF00
600380
E00180
C001C0
C000C0
8000C0
ENDCHAR
STARTCHAR 0387
ENCODING 903
SWIDTH 180 0
DWIDTH 5 0
BBX 3 3 1 12
BITMAP
E0
E0
E0
ENDCHAR
STARTCHAR 0388
ENCODING 904
SWIDTH 684 0
DWIDTH 19 0
BBX 22 22 -4 0
BITMAP
31FFFC
31FFFC
718000
618000
E18000
C18000
018000
018000
018000
018000
01FFE0
01FFE0
018000
018000
018000
018000
018000
018000
018000
018000
01FFFC
01FFFC
ENDCHAR
STARTCHAR 0389
ENCODING 905
SWIDTH 828 0
DWIDTH 23 0
BBX 25 22 -4 0
BITMAP
31000100
31800380
71800380
61800380
E1800380
C1800380
01800380
01800380
01800380
01800380
01FFFF80
01FFFF80
01800380
01800380
01800380
01800380
01800380
01800380
01800380
01800380
01800380
01800100
ENDCHAR
STARTCHAR 038A
ENCODING 906
SWIDTH 288 0
DWIDTH 8 0
BBX 9 22 -4 0
BITMAP
3100
3180
7180
6180
E180
C180
0180
0180
0180
0180
0180
0180
0180
0180
0180
0180
0180
0180
0180
0180
0180
0180
ENDCHAR
STARTCHAR 038C
ENCODING 908
SWIDTH 936 0
DWIDTH 26 0
BBX 26 22 -2 0
BITMAP
201FC000
707FF800
60F07C00
E1C00E00
C3800700
C7000300
06000180
0E000180
0C0001C0
0C0000C0
0C0000C0
0C0000C0
0C0000C0
0C0001C0
0C000180
0E000180
06000380
03000700
03800E00
01E03C00
00FFF800
001FE000
ENDCHAR
STARTCHAR 038E
ENCODING 910
SWIDTH 648 0
DWIDTH 18 0
BBX 24 22 -6 0
BITMAP
310002
338003
718006
61C00E
E0C00C
C06018
007038
003030
003870
001860
000CC0
000FC0
000780
000300
000300
000300
000300
000300
000300
000300
000300
000300
ENDCHAR
STARTCHAR 038F
ENCODING 911
SWIDTH 864 0
DWIDTH 24 0
BBX 24 22 -2 0
BITMAP
203FC0
70FFF0
61E07C
E3801C
C7000E
CE0007
0C0003
0C0003
0C0003
0C0003
0C0003
0C0003
0C0003
0E0007
060006
03000E
03C03C
00F0F8
0070E0
0030C0
0FF0FF
0FF0FF
ENDCHAR
STARTCHAR 0390
ENCODING 912
SWIDTH 360 0
DWIDTH 10 0
BBX 12 24 -2 0
BITMAP
0300
0600
0600
E660
EE70
EC60
0000
0000
0000
0C00
0C00
0C00
0C00
0C00
0C00
0C00
0C00
0C00
0C00
0C00
0E00
0700
03E0
01E0
ENDCHAR
STARTCHAR 0391
ENCODING 913
SWIDTH 720 0
DWIDTH 20 0
BBX 18 22 1 0
BITMAP
008000
00C000
01C000
01E000
03E000
033000
073000
063800
061800
0C1800
0C0C00
1C0C00
180E00
180600
300700
3FFF00
7FFF00
600380
E00180
C001C0
C000C0
8000C0
ENDCHAR
STARTCHAR 0392
ENCODING 914
SWIDTH 684 0
DWIDTH 19 0
BBX 15 22 3 0
BITMAP
FF80
FFE0
C0F0
C018
C018
C01C
C018
C018
C038
FFF0
FFE0
C0F8
C01C
C00C
C00E
C006
C006
C00E
C00C
C03C
FFF8
FFE0
ENDCHAR
STARTCHAR 0393
ENCODING 915
SWIDTH 612 0
DWIDTH 17 0
BBX 15 22 1 0
BITMAP
7FFE
FFFE
C000
C000
C000
C000
C000
C000
C000
C000
C000
C000
C000
C000
C000
C000
C000
C000
C000
C000
C000
C000
ENDCHAR
STARTCHAR 0394
ENCODING 916
SWIDTH 684 0
DWIDTH 19 0
BBX 18 22 1 0
BITMAP
00C000
00C000
01E000
01E000
03E000
037000
073000
063800
061800
0E1800
0C1C00
1C0C00
180E00
180600
300700
300300
700300
600380
E00180
C001C0
FFFFC0
FFFFC0
ENDCHAR
STARTCHAR 0395
ENCODING 917
SWIDTH 684 0
DWIDTH 19 0
BBX 15 22 3 0
BITMAP
FFFE
FFFE
C000
C000
C000
C000
C000
C000
C000
C000
FFF0
FFF0
C000
C000
C000
C000
C000
C000
C000
C000
FFFE
FFFE
ENDCHAR
STARTCHAR 0396
ENCODING 918
SWIDTH 720 0
DWIDTH 20 0
BBX 18 22 1 0
BITMAP
7FFF80
7FFFC0
000180
000300
000700
000E00
000C00
001800
003000
007000
00E000
00C000
018000
030000
070000
0E0000
0C0000
180000
300000
700000
FFFFC0
7FFFC0
ENDCHAR
STARTCHAR 0397
ENCODING 919
SWIDTH 828 0
DWIDTH 23 0
BBX 18 22 3 0
BITMAP
800080
C001C0
C001C0
C001C0
C001C0
C001C0
C001C0
C001C0
C001C0
C001C0
FFFFC0
FFFFC0
C001C0
C001C0
C001C0
C001C0
C001C0
C001C0
C001C0
C001C0
C001C0
C00080
ENDCHAR
STARTCHAR 0398
ENCODING 920
SWIDTH 936 0
DWIDTH 26 0
BBX 22 22 2 0
BITMAP
01FC00
07FF80
0F07C0
1C00E0
380070
700030
600018
E00018
C0001C
C0000C
C7FF0C
C7FF0C
C0000C
C0001C
C00018
E00018
600038
300070
3800E0
1E03C0
0FFF80
01FE00
ENDCHAR
STARTCHAR 0399
ENCODING 921
SWIDTH 288 0
DWIDTH 8 0
BBX 2 22 3 0
BITMAP
80
C0
C0
C0
C0
C0
C0
C0
C0
C0
C0
C0
C0
C0
C0
C0
C0
C0
C0
C0
C0
C0
ENDCHAR
STARTCHAR 039A
ENCODING 922
SWIDTH 648 0
DWIDTH 18 0
BBX 14 22 3 0
BITMAP
8004
C01C
C038
C070
C0E0
C1C0
C380
C700
CE00
DC00
FE00
F600
E700
C380
C180
C1C0
C0E0
C070
C030
C038
C01C
C00C
ENDCHAR
STARTCHAR 039B
ENCODING 923
SWIDTH 684 0
DWIDTH 19 0
BBX 17 22 1 0
BITMAP
008000
01C000
01C000
01E000
036000
036000
073000
063000
0E3800
0C1800
0C1800
1C0C00
180C00
380E00
300600
300600
700300
600300
E00380
C00180
C00180
800080
ENDCHAR
STARTCHAR 039C
ENCODING 924
SWIDTH 972 0
DWIDTH 27 0
BBX 21 22 3 0
BITMAP
800008
C00018
E00018
E00038
F00038
F00078
F80078
D800D8
DC00D8
CC0198
CE0198
C60318
C70318
C30618
C38618
C18C18
C1CC18
C0D818
C0F818
C07018
C07018
C00018
ENDCHAR
STARTCHAR 039D
ENCODING 925
SWIDTH 828 0
DWIDTH 23 0
BBX 17 22 3 0
BITMAP
800080
C00180
E00180
F00180
F80180
D80180
CC0180
CE0180
C70180
C30180
C18180
C0C180
C0E180
C06180
C03180
C01980
C01D80
C00D80
C00780
C00380
C00380
C00180
ENDCHAR
STARTCHAR 039E
ENCODING 926
SWIDTH 756 0
DWIDTH 21 0
BBX 19 22 1 0
BITMAP
7FFFC0
FFFFE0
000000
000000
000000
000000
000000
000000
000000
000000
1FFF00
1FFF00
000000
000000
000000
000000
000000
000000
000000
000000
FFFFE0
7FFFE0
ENDCHAR
STARTCHAR 039F
ENCODING 927
SWIDTH 936 0
DWIDTH 26 0
BBX 22 22 2 0
BITMAP
01FC00
07FF80
0F07C0
1C00E0
380070
700030
600018
E00018
C0001C
C0000C
C0000C
C0000C
C0000C
C0001C
C00018
E00018
600038
300070
3800E0
1E03C0
0FFF80
01FE00
ENDCHAR
STARTCHAR 03A0
ENCODING 928
SWIDTH 828 0
DWIDTH 23 0
BBX 17 22 3 0
BITMAP
FFFF00
FFFF80
C00180
C00180
C00180
C00180
C00180
C00180
C00180
C00180
C00180
C00180
C00180
C00180
C00180
C00180
C00180
C00180
C00180
C00180
C00180
C00180
ENDCHAR
STARTCHAR 03A1
ENCODING 929
SWIDTH 612 0
DWIDTH 17 0
BBX 13 22 3 0
BITMAP
FF00
FFC0
C1F0
C030
C038
C018
C018
C018
C018
C018
C038
C070
FFE0
FFC0
C000
C000
C000
C000
C000
C000
C000
C000
ENDCHAR
STARTCHAR 03A3
ENCODING 931
SWIDTH 720 0
DWIDTH 20 0
BBX 16 22 2 0
BITMAP
FFFF
FFFF
E000
7000
3800
1800
1C00
0E00
0700
0300
0180
0180
0300
0700
0E00
0C00
1800
3000
7000
E000
FFFF
FFFF
ENDCHAR
STARTCHAR 03A4
ENCODING 932
SWIDTH 648 0
DWIDTH 18 0
BBX 18 22 0 0
BITMAP
7FFF80
FFFFC0
00C000
00C000
00C000
00C000
00C000
00C000
00C000
00C000
00C000
00C000
00C000
00C000
00C000
00C000
00C000
00C000
00C000
00C000
00C000
00C000
ENDCHAR
STARTCHAR 03A5
ENCODING 933
SWIDTH 648 0
DWIDTH 18 0
BBX 18 22 0 0
BITMAP
400080
E000C0
600180
700380
300300
180600
1C0E00
0C0C00
0E1C00
061800
033000
03F000
01E000
00C000
00C000
00C000
00C000
00C000
00C000
00C000
00C000
00C000
ENDCHAR
STARTCHAR 03A6
ENCODING 934
SWIDTH 900 0
DWIDTH 25 0
BBX 22 23 2 0
BITMAP
003000
003000
07FF00
1FFFC0
3C30E0
703070
603038
C03018
C03018
C0301C
C0300C
C0300C
C0300C
C0301C
C03018
603038
703030
3830E0
1FBFC0
07FF00
003000
003000
002000
ENDCHAR
STARTCHAR 03A7
ENCODING 935
SWIDTH 720 0
DWIDTH 20 0
BBX 17 22 1 0
BITMAP
400080
600180
700380
380700
180600
0C0C00
0E1C00
073800
033000
03E000
01E000
01E000
03F000
073000
063800
0E1C00
1C0C00
180600
300700
700380
E00180
C00180
ENDCHAR
STARTCHAR 03A8
ENCODING 936
SWIDTH 900 0
DWIDTH 25 0
BBX 19 22 3 0
BITMAP
804020
C0E060
C0E060
C0E060
C0E060
C0E060
C0E060
C0E060
C0E060
C0E060
C0E060
E0E0E0
60E0C0
78E3C0
3FFF80
0FFE00
00E000
00E000
00E000
00E000
00E000
004000
ENDCHAR
STARTCHAR 03A9
ENCODING 937
SWIDTH 864 0
DWIDTH 24 0
BBX 20 22 2 0
BITMAP
03FC00
0FFF00
1E07C0
3801C0
7000E0
E00070
C00030
C00030
C00030
C00030
C00030
C00030
C00030
E00070
600060
3000E0
3C03C0
0F0F80
070E00
030C00
FF0FF0
FF0FF0
ENDCHAR
STARTCHAR 03AA
ENCODING 938
SWIDTH 288 0
DWIDTH 8 0
BBX 8 28 0 0
BITMAP
02
C7
C7
00
00
00
10
18
18
18
18
18
18
18
18
18
18
18
18
18
18
18
18
18
18
18
18
18
ENDCHAR
STARTCHAR 03AB
ENCODING 939
SWIDTH 648 0
DWIDTH 18 0
BBX 18 27 0 1
BITMAP
073800
073800
020000
000000
000000
400080
E000C0
600180
700380
300300
180600
1C0E00
0C0C00
0E1C00
061800
033000
03F000
01E000
00C000
00C000
00C000
00C000
00C000
00C000
00C000
00C000
00C000
ENDCHAR
STARTCHAR 03AC
ENCODING 940
SWIDTH 756 0
DWIDTH 21 0
BBX 17 24 2 0
BITMAP
004000
00C000
01C000
018000
038000
030000
000000
000000
000000
1FC180
3FF180
703B80
601B00
C00F00
C00E00
C00600
C00600
C00E00
C00F00
E01B00
601B80
707180
3FE180
0FC080
ENDCHAR
STARTCHAR 03AD
ENCODING 941
SWIDTH 612 0
DWIDTH 17 0
BBX 13 24 2 0
BITMAP
0080
00C0
01C0
0180
0380
0300
0000
0000
0000
1FE0
7FF8
6018
E008
C000
E000
7F80
3FC0
7000
C000
C000
C000
E018
7FF8
1FE0
ENDCHAR
STARTCHAR 03AE
ENCODING 942
SWIDTH 684 0
DWIDTH 19 0
BBX 15 31 2 -7
BITMAP
0040
00C0
01C0
0180
0380
0300
0000
0000
0000
6FE0
FFF8
F838
E01C
E00C
E00C
E00E
E00E
E00E
E00E
E00E
E00E
E00E
E00E
400E
000E
000E
000E
000E
000E
000E
0004
ENDCHAR
STARTCHAR 03AF
ENCODING 943
SWIDTH 360 0
DWIDTH 10 0
BBX 7 24 2 0
BITMAP
10
38
30
70
60
60
00
00
00
C0
C0
C0
C0
C0
C0
C0
C0
C0
C0
C0
E0
70
3E
1E
ENDCHAR
STARTCHAR 03B0
ENCODING 944
SWIDTH 684 0
DWIDTH 19 0
BBX 14 24 2 0
BITMAP
0180
0180
0180
3198
3BB8
3318
0000
0000
0000
600C
E00C
E00C
E00C
E00C
E00C
E00C
E00C
E00C
600C
600C
701C
3838
3FF0
0FE0
ENDCHAR
STARTCHAR 03B1
ENCODING 945
SWIDTH 756 0
DWIDTH 21 0
BBX 17 15 2 0
BITMAP
1FC180
3FF180
703B80
601B00
C00F00
C00E00
C00600
C00600
C00E00
C00F00
E01B00
601B80
707180
3FE180
0FC080
ENDCHAR
STARTCHAR 03B2
ENCODING 946
SWIDTH 684 0
DWIDTH 19 0
BBX 15 29 2 -7
BITMAP
0380
1FE0
3C70
7018
6018
600C
6018
E018
E038
E7F0
E7F8
E03C
E00E
E006
E006
E006
E006
E006
F00E
F81C
EFF8
E7F0
E000
E000
E000
E000
E000
E000
4000
ENDCHAR
STARTCHAR 03B3
ENCODING 947
SWIDTH 540 0
DWIDTH 15 0
BBX 14 21 0 -6
BITMAP
C00C
600C
601C
3018
3018
3830
1830
1860
0C60
0CE0
06C0
06C0
0380
0380
0380
0380
0380
0380
0380
0380
0100
ENDCHAR
STARTCHAR 03B4
ENCODING 948
SWIDTH 684 0
DWIDTH 19 0
BBX 15 22 2 0
BITMAP
3FFC
7FFC
3800
1C00
0E00
0780
03C0
07E0
1FF0
3838
601C
E00C
C006
C006
C006
C006
C00E
E00C
601C
7838
1FF0
0FC0
ENDCHAR
STARTCHAR 03B5
ENCODING 949
SWIDTH 612 0
DWIDTH 17 0
BBX 13 15 2 0
BITMAP
1FE0
7FF8
6018
E008
C000
E000
7F80
3FC0
7000
C000
C000
C000
E018
7FF8
1FE0
ENDCHAR
STARTCHAR 03B6
ENCODING 950
SWIDTH 540 0
DWIDTH 15 0
BBX 13 28 1 -7
BITMAP
7FF8
7FF8
0070
00E0
01C0
0380
0700
0E00
1C00
1800
3000
7000
6000
6000
E000
E000
E000
6000
6000
3800
1FC0
07F0
0030
0018
0018
0038
00F0
01E0
ENDCHAR
STARTCHAR 03B7
ENCODING 951
SWIDTH 684 0
DWIDTH 19 0
BBX 15 22 2 -7
BITMAP
6FE0
FFF8
F838
E01C
E00C
E00C
E00E
E00E
E00E
E00E
E00E
E00E
E00E
E00E
400E
000E
000E
000E
000E
000E
000E
0004
ENDCHAR
STARTCHAR 03B8
ENCODING 952
SWIDTH 684 0
DWIDTH 19 0
BBX 15 22 2 0
BITMAP
0780
1FF0
3C78
7018
601C
E00C
C00C
C006
C006
C006
FFFE
FFFE
C006
C006
C006
C00E
E00C
600C
7018
3838
1FF0
07C0
ENDCHAR
STARTCHAR 03B9
ENCODING 953
SWIDTH 360 0
DWIDTH 10 0
BBX 7 15 2 0
BITMAP
C0
C0
C0
C0
C0
C0
C0
C0
C0
C0
C0
E0
70
3E
1E
ENDCHAR
STARTCHAR 03BA
ENCODING 954
SWIDTH 576 0
DWIDTH 16 0
BBX 12 15 2 0
BITMAP
6030
E070
E0C0
E380
E700
EE00
FC00
FE00
F700
E380
E1C0
E0C0
E060
E070
4030
ENDCHAR
STARTCHAR 03BB
ENCODING 955
SWIDTH 540 0
DWIDTH 15 0
BBX 14 22 0 0
BITMAP
1800
1C00
0C00
0C00
0600
0600
0700
0300
0780
0780
07C0
0EC0
0CE0
1C60
1860
1870
3030
3038
7018
601C
E00C
400C
ENDCHAR
STARTCHAR 03BC
ENCODING 956
SWIDTH 684 0
DWIDTH 19 0
BBX 14 22 2 -7
BITMAP
600C
E00C
E00C
E00C
E00C
E00C
E00C
E00C
E00C
E00C
E00C
F01C
F83C
FFFC
EFCC
E000
E000
E000
E000
E000
E000
4000
ENDCHAR
STARTCHAR 03BD
ENCODING 957
SWIDTH 540 0
DWIDTH 15 0
BBX 14 15 0 0
BITMAP
C00C
600C
601C
3018
3018
3830
1830
1860
0C60
0C60
06C0
06C0
0380
0380
0100
ENDCHAR
STARTCHAR 03BE
ENCODING 958
SWIDTH 576 0
DWIDTH 16 0
BBX 13 29 2 -7
BITMAP
FFF0
FFF0
07E0
3C00
3000
6000
6000
6000
6000
3000
3FE0
1FE0
3E00
7000
E000
C000
C000
C000
6000
7000
3FC0
0FF0
0038
0018
0018
0038
00F0
01E0
0080
ENDCHAR
STARTCHAR 03BF
ENCODING 959
SWIDTH 684 0
DWIDTH 19 0
BBX 15 15 2 0
BITMAP
0FE0
3FF8
7038
600C
C00E
C006
C006
C006
C006
C006
E00E
601C
7838
3FF0
0FE0
ENDCHAR
STARTCHAR 03C0
ENCODING 960
SWIDTH 792 0
DWIDTH 22 0
BBX 19 15 1 0
BITMAP
FFFFE0
FFFFE0
0C0600
0C0600
0C0600
0C0600
0C0600
0C0600
0C0600
0C0600
0C0600
0C0600
0C0700
0C03E0
0C01E0
ENDCHAR
STARTCHAR 03C1
ENCODING 961
SWIDTH 720 0
DWIDTH 20 0
BBX 16 22 2 -7
BITMAP
07F0
1FF8
381C
700E
6006
6003
6003
E003
E003
E007
E006
F00E
F81C
EFF8
E7F0
E000
E000
E000
E000
E000
E000
4000
ENDCHAR
STARTCHAR 03C2
ENCODING 962
SWIDTH 612 0
DWIDTH 17 0
BBX 13 21 2 -7
BITMAP
1FE0
3FF0
7038
6018
C000
C000
C000
C000
C000
C000
C000
E000
7000
3FC0
0FE0
0070
0030
0030
0030
00E0
01E0
ENDCHAR
STARTCHAR 03C3
ENCODING 963
SWIDTH 756 0
DWIDTH 21 0
BBX 17 15 2 0
BITMAP
0FFF80
3FFF80
783800
600C00
E00E00
C00600
C00600
C00600
C00600
C00600
E00E00
601C00
783800
3FF000
0FE000
ENDCHAR
STARTCHAR 03C4
ENCODING 964
SWIDTH 540 0
DWIDTH 15 0
BBX 13 15 1 0
BITMAP
FFF8
FFF8
0600
0600
0600
0600
0600
0600
0600
0600
0600
0700
0380
03F0
00F0
ENDCHAR
STARTCHAR 03C5
ENCODING 965
SWIDTH 684 0
DWIDTH 19 0
BBX 14 15 2 0
BITMAP
600C
E00C
E00C
E00C
E00C
E00C
E00C
E00C
E00C
600C
600C
701C
3838
3FF0
0FE0
ENDCHAR
STARTCHAR 03C6
ENCODING 966
SWIDTH 792 0
DWIDTH 22 0
BBX 19 26 2 -7
BITMAP
00C000
00C000
00C000
00C000
00C000
0FFC00
3FFF00
70C380
60C1C0
C0C0C0
C0C0C0
C0C0E0
C0C0E0
C0C0C0
C0C0C0
E0C0C0
60C1C0
78C380
1FFF00
0FFC00
00C000
00C000
00C000
00C000
00C000
00C000
ENDCHAR
STARTCHAR 03C7
ENCODING 967
SWIDTH 540 0
DWIDTH 15 0
BBX 13 21 1 -7
BITMAP
C018
E038
6030
7070
3060
38E0
1CC0
0DC0
0F80
0700
0700
0700
0F80
0DC0
1CC0
18E0
3860
3070
6030
E038
C018
ENDCHAR
STARTCHAR 03C8
ENCODING 968
SWIDTH 792 0
DWIDTH 22 0
BBX 18 26 2 -7
BITMAP
00C000
00C000
00C000
00C000
00C000
60C0C0
E0C1C0
E0C1C0
E0C1C0
E0C1C0
E0C1C0
E0C1C0
E0C1C0
E0C1C0
60C180
60C180
70C380
38C700
1FFE00
07FC00
00C000
00C000
00C000
00C000
00C000
00C000
ENDCHAR
STARTCHAR 03C9
ENCODING 969
SWIDTH 900 0
DWIDTH 25 0
BBX 21 15 2 0
BITMAP
1800C0
3800E0
700070
602030
607030
E07038
C07018
C07018
C07018
C07018
C07018
E07030
60D870
3FDFE0
1F0FC0
ENDCHAR
STARTCHAR 03CA
ENCODING 970
SWIDTH 360 0
DWIDTH 10 0
BBX 10 21 -1 0
BITMAP
E300
E380
E300
0000
0000
0000
1800
1800
1800
1800
1800
1800
1800
1800
1800
1800
1800
1C00
0E00
07C0
03C0
ENDCHAR
STARTCHAR 03CB
ENCODING 971
SWIDTH 684 0
DWIDTH 19 0
BBX 14 21 2 0
BITMAP
1860
1C70
1860
0000
0000
0000
600C
E00C
E00C
E00C
E00C
E00C
E00C
E00C
E00C
600C
600C
701C
3838
3FF0
0FE0
ENDCHAR
STARTCHAR 03CC
ENCODING 972
SWIDTH 684 0
DWIDTH 19 0
BBX 15 24 2 0
BITMAP
0040
00C0
00C0
01C0
0180
0380
0000
0000
0000
0FE0
3FF8
7038
600C
C00E
C006
C006
C006
C006
C006
E00E
601C
7838
3FF0
0FE0
ENDCHAR
STARTCHAR 03CD
ENCODING 973
SWIDTH 684 0
DWIDTH 19 0
BBX 14 24 2 0
BITMAP
0040
00C0
00C0
01C0
0180
0380
0000
0000
0000
600C
E00C
E00C
E00C
E00C
E00C
E00C
E00C
E00C
600C
600C
701C
3838
3FF0
0FE0
ENDCHAR
STARTCHAR 03CE
ENCODING 974
SWIDTH 900 0
DWIDTH 25 0
BBX 21 24 2 0
BITMAP
000800
001C00
001800
003800
003000
003000
000000
000000
000000
1800C0
3800E0
700070
602030
607030
E07038
C07018
C07018
C07018
C07018
C07018
E07030
60D870
3FDFE0
1F0FC0
ENDCHAR
STARTCHAR 03CF
ENCODING 975
SWIDTH 648 0
DWIDTH 18 0
BBX 14 27 3 -6
BITMAP
8004
C01C
C038
C070
C0E0
C1C0
C380
C700
CE00
DC00
FE00
F600
E700
C380
C1C0
C0C0
C0E0
C070
C038
C018
C01C
C01C
0038
0070
00E0
07C0
0F00
ENDCHAR
STARTCHAR 03D7
ENCODING 983
SWIDTH 612 0
DWIDTH 17 0
BBX 14 21 2 -5
BITMAP
6030
E070
E0E0
E380
E700
EE00
FC00
FE00
F700
E380
E1C0
E0E0
E070
E030
4018
001C
000C
001C
0018
00F8
01F0
ENDCHAR
STARTCHAR 0400
ENCODING 1024
SWIDTH 684 0
DWIDTH 19 0
BBX 15 29 3 0
BITMAP
1C00
0E00
0700
0380
0100
0000
0000
FFFE
FFFE
C000
C000
C000
C000
C000
C000
C000
C000
FFF0
FFF0
C000
C000
C000
C000
C000
C000
C000
C000
FFFE
FFFE
ENDCHAR
STARTCHAR 0401
ENCODING 1025
SWIDTH 684 0
DWIDTH 19 0
BBX 15 28 3 0
BITMAP
0020
1C70
1C70
0020
0000
0000
FFFE
FFFE
C000
C000
C000
C000
C000
C000
C000
C000
FFF0
FFF0
C000
C000
C000
C000
C000
C000
C000
C000
FFFE
FFFE
ENDCHAR
STARTCHAR 0402
ENCODING 1026
SWIDTH 792 0
DWIDTH 22 0
BBX 20 22 0 0
BITMAP
7FFF00
FFFF80
030000
030000
030000
030000
030000
037F80
03FFC0
0380E0
030060
030030
030030
030030
030030
030030
030030
030070
030060
0301C0
030FC0
030F00
ENDCHAR
STARTCHAR 0403
ENCODING 1027
SWIDTH 612 0
DWIDTH 17 0
BBX 14 29 3 0
BITMAP
00E0
01C0
0380
0700
0200
0000
0000
FFF8
FFFC
C000
C000
C000
C000
C000
C000
C000
C000
C000
C000
C000
C000
C000
C000
C000
C000
C000
C000
C000
C000
ENDCHAR
STARTCHAR 0404
ENCODING 1028
SWIDTH 756 0
DWIDTH 21 0
BBX 18 22 2 0
BITMAP
01FC00
07FF00
0F0780
1C01C0
380000
700000
600000
E00000
C00000
C00000
FFF800
FFF800
C00000
C00000
C00000
600000
700000
300000
380080
1E03C0
07FF80
01FE00
ENDCHAR
STARTCHAR 0405
ENCODING 1029
SWIDTH 648 0
DWIDTH 18 0
BBX 15 22 2 0
BITMAP
0FC0
3FF0
7838
601C
E00C
E000
E000
6000
7000
3E00
0FE0
01F8
003C
000C
000C
000E
000E
C00C
E00C
703C
3FF8
0FE0
ENDCHAR
STARTCHAR 0406
ENCODING 1030
SWIDTH 288 0
DWIDTH 8 0
BBX 2 22 3 0
BITMAP
80
C0
C0
C0
C0
C0
C0
C0
C0
C0
C0
C0
C0
C0
C0
C0
C0
C0
C0
C0
C0
C0
ENDCHAR
STARTCHAR 0407
ENCODING 1031
SWIDTH 288 0
DWIDTH 8 0
BBX 8 28 0 0
BITMAP
02
C7
C7
00
00
00
10
18
18
18
18
18
18
18
18
18
18
18
18
18
18
18
18
18
18
18
18
18
ENDCHAR
STARTCHAR 0408
ENCODING 1032
SWIDTH 612 0
DWIDTH 17 0
BBX 13 22 1 0
BITMAP
0008
0018
0018
0018
0018
0018
0018
0018
0018
0018
0018
0018
0018
0018
0018
C018
C018
E018
6038
7070
3FE0
0FC0
ENDCHAR
STARTCHAR 0409
ENCODING 1033
SWIDTH 1008 0
DWIDTH 28 0
BBX 26 22 1 0
BITMAP
00800000
00C00000
01E00000
01E00000
03E00000
03300000
07300000
06380000
06180000
0E1FFC00
0C0FFF00
1C0C0380
180E0180
180600C0
300700C0
300300C0
700300C0
600180C0
E0018180
C001C380
C000FF00
C000FC00
ENDCHAR
STARTCHAR 040A
ENCODING 1034
SWIDTH 1188 0
DWIDTH 33 0
BBX 28 22 3 0
BITMAP
80010000
C0038000
C0038000
C0038000
C0038000
C0038000
C0038000
C0038000
C0038000
C003FF00
FFFFFFC0
FFFF80E0
C0038070
C0038030
C0038030
C0038030
C0038030
C0038030
C0038070
C00380E0
C003FFC0
C001FF00
ENDCHAR
STARTCHAR 040B
ENCODING 1035
SWIDTH 864 0
DWIDTH 24 0
BBX 22 22 0 0
BITMAP
7FFF80
FFFF80
018000
018000
018000
018000
018000
018000
01BFC0
01FFE0
01C070
018038
018018
01801C
01800C
01800C
01800C
01800C
01800C
01800C
01800C
01800C
ENDCHAR
STARTCHAR 040C
ENCODING 1036
SWIDTH 684 0
DWIDTH 19 0
BBX 15 29 3 0
BITMAP
00C0
01C0
0380
0700
0600
0000
0000
8004
C00C
C01C
C038
C030
C060
C0E0
C1C0
C380
C300
FE00
FF00
C300
C380
C1C0
C0E0
C070
C038
C018
C00C
C00E
C006
ENDCHAR
STARTCHAR 040D
ENCODING 1037
SWIDTH 864 0
DWIDTH 24 0
BBX 18 29 3 0
BITMAP
060000
070000
038000
01C000
00C000
000000
000000
800080
C001C0
C003C0
C003C0
C006C0
C00CC0
C01CC0
C038C0
C030C0
C060C0
C0C0C0
C1C0C0
C180C0
C300C0
C600C0
CC00C0
DC00C0
D800C0
F000C0
E000C0
E000C0
C000C0
ENDCHAR
STARTCHAR 040E
ENCODING 1038
SWIDTH 720 0
DWIDTH 20 0
BBX 18 28 0 0
BITMAP
060400
060C00
07BC00
01F800
000000
000000
400040
C000C0
E001C0
600180
300180
380300
180300
1C0600
0C0600
060C00
060C00
031C00
039800
01B800
00F000
00F000
006000
00E000
00C000
01C000
3F8000
1F0000
ENDCHAR
STARTCHAR 040F
ENCODING 1039
SWIDTH 828 0
DWIDTH 23 0
BBX 17 27 3 -5
BITMAP
800100
C00180
C00180
C00180
C00180
C00180
C00180
C00180
C00180
C00180
C00180
C00180
C00180
C00180
C00180
C00180
C00180
C00180
C00180
C00180
FFFF80
FFFF80
018000
018000
018000
018000
018000
ENDCHAR
STARTCHAR 0410
ENCODING 1040
SWIDTH 720 0
DWIDTH 20 0
BBX 18 22 1 0
BITMAP
008000
00C000
01C000
01E000
03E000
033000
073000
063800
061800
0C1800
0C0C00
1C0C00
180E00
180600
300700
3FFF00
7FFF00
600380
E00180
C001C0
C000C0
8000C0
ENDCHAR
STARTCHAR 0411
ENCODING 1041
SWIDTH 720 0
DWIDTH 20 0
BBX 16 22 3 0
BITMAP
FFF8
FFFC
C000
C000
C000
C000
C000
C000
C000
FFC0
FFF8
C01C
C00E
C006
C006
C007
C006
C006
C00E
C01C
FFF8
FFF0
ENDCHAR
STARTCHAR 0412
ENCODING 1042
SWIDTH 684 0
DWIDTH 19 0
BBX 15 22 3 0
BITMAP
FF80
FFE0
C0F0
C018
C018
C01C
C018
C018
C038
FFF0
FFE0
C0F8
C01C
C00C
C00E
C006
C006
C00E
C00C
C03C
FFF8
FFE0
ENDCHAR
STARTCHAR 0413
ENCODING 1043
SWIDTH 612 0
DWIDTH 17 0
BBX 14 22 3 0
BITMAP
FFF8
FFFC
C000
C000
C000
C000
C000
C000
C000
C000
C000
C000
C000
C000
C000
C000
C000
C000
C000
C000
C000
C000
ENDCHAR
STARTCHAR 0414
ENCODING 1044
SWIDTH 828 0
DWIDTH 23 0
BBX 22 27 1 -5
BITMAP
002000
007000
007000
007800
00D800
00D800
018C00
018C00
038600
030600
030700
060300
060300
0E0180
0C0180
0C01C0
1800C0
1800C0
380060
300060
FFFFF8
FFFFFC
C0001C
C0001C
C0001C
C0001C
C00008
ENDCHAR
STARTCHAR 0415
ENCODING 1045
SWIDTH 684 0
DWIDTH 19 0
BBX 15 22 3 0
BITMAP
FFFE
FFFE
C000
C000
C000
C000
C000
C000
C000
C000
FFF0
FFF0
C000
C000
C000
C000
C000
C000
C000
C000
FFFE
FFFE
ENDCHAR
STARTCHAR 0416
ENCODING 1046
SWIDTH 1044 0
DWIDTH 29 0
BBX 27 22 1 0
BITMAP
40040080
600C00C0
700C0180
300C0380
180C0700
1C0C0600
0E0C0C00
060C1C00
030C3800
038C3000
01FFE000
01FFF000
038C3000
070C3800
060C1C00
0C0C0E00
1C0C0600
380C0300
700C0380
600C01C0
E00C00E0
C00C0060
ENDCHAR
STARTCHAR 0417
ENCODING 1047
SWIDTH 648 0
DWIDTH 18 0
BBX 14 22 2 0
BITMAP
0F80
3FE0
7070
C038
C018
0018
0018
0018
0030
00E0
07C0
00F0
0038
0018
000C
000C
000C
000C
C018
E038
7FF0
1FC0
ENDCHAR
STARTCHAR 0418
ENCODING 1048
SWIDTH 864 0
DWIDTH 24 0
BBX 18 22 3 0
BITMAP
800080
C001C0
C003C0
C003C0
C006C0
C00CC0
C01CC0
C038C0
C030C0
C060C0
C0C0C0
C1C0C0
C180C0
C300C0
C600C0
CC00C0
DC00C0
D800C0
F000C0
E000C0
E000C0
C000C0
ENDCHAR
STARTCHAR 0419
ENCODING 1049
SWIDTH 864 0
DWIDTH 24 0
BBX 18 28 3 0
BITMAP
0C0C00
0C1800
077800
03F000
000000
000000
800080
C001C0
C003C0
C003C0
C006C0
C00CC0
C01CC0
C038C0
C030C0
C060C0
C0C0C0
C1C0C0
C180C0
C300C0
C600C0
CC00C0
DC00C0
D800C0
F000C0
E000C0
E000C0
C000C0
ENDCHAR
STARTCHAR 041A
ENCODING 1050
SWIDTH 684 0
DWIDTH 19 0
BBX 15 22 3 0
BITMAP
8004
C00C
C01C
C038
C030
C060
C0E0
C1C0
C380
C300
FE00
FF00
C300
C380
C1C0
C0E0
C070
C038
C018
C00C
C00E
C006
ENDCHAR
STARTCHAR 041B
ENCODING 1051
SWIDTH 720 0
DWIDTH 20 0
BBX 18 22 1 0
BITMAP
008000
00C000
01E000
01E000
03E000
033000
073000
063800
061800
0E1800
0C0C00
1C0C00
180E00
180600
300700
300300
700300
600180
E00180
C001C0
C000C0
C000C0
ENDCHAR
STARTCHAR 041C
ENCODING 1052
SWIDTH 972 0
DWIDTH 27 0
BBX 21 22 3 0
BITMAP
800008
C00018
E00018
E00038
F00038
F00078
F80078
D800D8
DC00D8
CC0198
CE0198
C60318
C70318
C30618
C38618
C18C18
C1CC18
C0D818
C0F818
C07018
C07018
C00018
ENDCHAR
STARTCHAR 041D
ENCODING 1053
SWIDTH 828 0
DWIDTH 23 0
BBX 18 22 3 0
BITMAP
800080
C001C0
C001C0
C001C0
C001C0
C001C0
C001C0
C001C0
C001C0
C001C0
FFFFC0
FFFFC0
C001C0
C001C0
C001C0
C001C0
C001C0
C001C0
C001C0
C001C0
C001C0
C00080
ENDCHAR
STARTCHAR 041E
ENCODING 1054
SWIDTH 936 0
DWIDTH 26 0
BBX 22 22 2 0
BITMAP
01FC00
07FF80
0F07C0
1C00E0
380070
700030
600018
E00018
C0001C
C0000C
C0000C
C0000C
C0000C
C0001C
C00018
E00018
600038
300070
3800E0
1E03C0
0FFF80
01FE00
ENDCHAR
STARTCHAR 041F
ENCODING 1055
SWIDTH 828 0
DWIDTH 23 0
BBX 17 22 3 0
BITMAP
FFFF00
FFFF80
C00180
C00180
C00180
C00180
C00180
C00180
C00180
C00180
C00180
C00180
C00180
C00180
C00180
C00180
C00180
C00180
C00180
C00180
C00180
C00180
ENDCHAR
STARTCHAR 0420
ENCODING 1056
SWIDTH 612 0
DWIDTH 17 0
BBX 13 22 3 0
BITMAP
FF00
FFC0
C1F0
C030
C038
C018
C018
C018
C018
C018
C038
C070
FFE0
FFC0
C000
C000
C000
C000
C000
C000
C000
C000
ENDCHAR
STARTCHAR 0421
ENCODING 1057
SWIDTH 756 0
DWIDTH 21 0
BBX 18 22 2 0
BITMAP
01FC00
07FF00
0F0780
1C01C0
380000
700000
600000
E00000
C00000
C00000
C00000
C00000
C00000
C00000
C00000
600000
700000
300000
380080
1E03C0
07FF80
01FE00
ENDCHAR
STARTCHAR 0422
ENCODING 1058
SWIDTH 648 0
DWIDTH 18 0
BBX 18 22 0 0
BITMAP
7FFF80
FFFFC0
00C000
00C000
00C000
00C000
00C000
00C000
00C000
00C000
00C000
00C000
00C000
00C000
00C000
00C000
00C000
00C000
00C000
00C000
00C000
00C000
ENDCHAR
STARTCHAR 0423
ENCODING 1059
SWIDTH 720 0
DWIDTH 20 0
BBX 18 22 0 0
BITMAP
400040
C000C0
E001C0
600180
300180
380300
180300
1C0600
0C0600
060C00
060C00
031C00
039800
01B800
00F000
00F000
006000
00E000
00C000
01C000
3F8000
1F0000
ENDCHAR
STARTCHAR 0424
ENCODING 1060
SWIDTH 864 0
DWIDTH 24 0
BBX 20 22 2 0
BITMAP
004000
006000
006000
07FE00
1FFF80
3C63C0
7060E0
606060
C06030
C06030
C06030
C06030
C06030
C06030
E06070
7060E0
3861C0
1F6F80
07FE00
00F000
006000
006000
ENDCHAR
STARTCHAR 0425
ENCODING 1061
SWIDTH 720 0
DWIDTH 20 0
BBX 17 22 1 0
BITMAP
400080
600180
700380
380700
180600
0C0C00
0E1C00
073800
033000
03E000
01E000
01E000
03F000
073000
063800
0E1C00
1C0C00
180600
300700
700380
E00180
C00180
ENDCHAR
STARTCHAR 0426
ENCODING 1062
SWIDTH 864 0
DWIDTH 24 0
BBX 20 27 3 -5
BITMAP
800100
C00180
C00180
C00180
C00180
C00180
C00180
C00180
C00180
C00180
C00180
C00180
C00180
C00180
C00180
C00180
C00180
C00180
C00180
C00180
FFFFE0
FFFFF0
000070
000070
000070
000070
000020
ENDCHAR
STARTCHAR 0427
ENCODING 1063
SWIDTH 756 0
DWIDTH 21 0
BBX 16 22 2 0
BITMAP
4001
C003
C003
C003
C003
C003
C003
C003
E003
6003
7003
3007
3E3F
0FFB
01C3
0003
0003
0003
0003
0003
0003
0003
ENDCHAR
STARTCHAR 0428
ENCODING 1064
SWIDTH 1080 0
DWIDTH 30 0
BBX 24 22 3 0
BITMAP
801002
C01803
C01803
C01803
C01803
C01803
C01803
C01803
C01803
C01803
C01803
C01803
C01803
C01803
C01803
C01803
C01803
C01803
C01803
C01803
FFFFFF
FFFFFF
ENDCHAR
STARTCHAR 0429
ENCODING 1065
SWIDTH 1116 0
DWIDTH 31 0
BBX 27 27 3 -5
BITMAP
80100200
C0180300
C0180300
C0180300
C0180300
C0180300
C0180300
C0180300
C0180300
C0180300
C0180300
C0180300
C0180300
C0180300
C0180300
C0180300
C0180300
C0180300
C0180300
C0180300
FFFFFFE0
FFFFFFE0
00000060
00000060
00000060
00000060
00000040
ENDCHAR
STARTCHAR 042A
ENCODING 1066
SWIDTH 828 0
DWIDTH 23 0
BBX 22 22 0 0
BITMAP
7F8000
FF8000
018000
018000
018000
018000
018000
018000
018000
01FFC0
01FFF0
018038
018018
01800C
01800C
01800C
01800C
01801C
018018
018078
01FFF0
01FFC0
ENDCHAR
STARTCHAR 042B
ENCODING 1067
SWIDTH 936 0
DWIDTH 26 0
BBX 20 22 3 0
BITMAP
800020
C00030
C00030
C00030
C00030
C00030
C00030
C00030
C00030
FFC030
FFF030
C03830
C01830
C00C30
C00C30
C00C30
C00C30
C01C30
C01830
C07830
FFF030
FFC030
ENDCHAR
STARTCHAR 042C
ENCODING 1068
SWIDTH 684 0
DWIDTH 19 0
BBX 15 22 3 0
BITMAP
8000
C000
C000
C000
C000
C000
C000
C000
C000
FFE0
FFF8
C01C
C00C
C00E
C006
C006
C006
C00E
C00C
C03C
FFF8
FFE0
ENDCHAR
STARTCHAR 042D
ENCODING 1069
SWIDTH 756 0
DWIDTH 21 0
BBX 18 22 2 0
BITMAP
0FC000
7FF000
F07C00
C01E00
000700
000300
000380
000180
000180
0001C0
07FFC0
07FFC0
0001C0
000180
000180
000380
000300
000700
C00E00
E03C00
7FF800
1FE000
ENDCHAR
STARTCHAR 042E
ENCODING 1070
SWIDTH 1188 0
DWIDTH 33 0
BBX 28 22 3 0
BITMAP
8003F000
C01FFE00
C03C0F00
C0700380
C0E001C0
C0C000E0
C1C00060
C1800060
C1800070
C3800030
FF800030
FF800030
C3800030
C1800070
C1800060
C1800060
C0C000E0
C0E001C0
C0700380
C03C0700
C01FFE00
C007F800
ENDCHAR
STARTCHAR 042F
ENCODING 1071
SWIDTH 684 0
DWIDTH 19 0
BBX 15 22 2 0
BITMAP
03FC
1FFE
3C0E
700E
600E
C00E
C00E
C00E
C00E
600E
700E
3FFE
0FFE
07FE
0E0E
1C0E
180E
380E
300E
600E
E00E
C004
ENDCHAR
STARTCHAR 0430
ENCODING 1072
SWIDTH 684 0
DWIDTH 19 0
BBX 15 15 2 0
BITMAP
0FE0
3FF0
7038
600C
C00E
C006
C006
C006
C006
C006
E00E
601E
783E
3FF6
0FC6
ENDCHAR
STARTCHAR 0431
ENCODING 1073
SWIDTH 648 0
DWIDTH 18 0
BBX 15 23 2 0
BITMAP
0008
0078
01F0
0780
0E00
1800
3000
6000
6000
CFE0
DFF8
F038
E01C
C00C
C00E
C006
C006
C00E
E00C
601C
7038
3FF0
0FE0
ENDCHAR
STARTCHAR 0432
ENCODING 1074
SWIDTH 612 0
DWIDTH 17 0
BBX 13 15 2 0
BITMAP
7FE0
FFF0
E038
E018
E018
E030
FFF0
FFF0
E038
E018
E018
E018
E038
FFF0
7FE0
ENDCHAR
STARTCHAR 0433
ENCODING 1075
SWIDTH 504 0
DWIDTH 14 0
BBX 12 15 1 0
BITMAP
1FC0
7FE0
6060
4060
0060
0060
03C0
1F80
7800
6000
E000
E010
6070
7FE0
1FC0
ENDCHAR
STARTCHAR 0434
ENCODING 1076
SWIDTH 684 0
DWIDTH 19 0
BBX 15 21 2 -6
BITMAP
0FE0
3FF8
701C
600C
C00E
C006
C006
C006
C006
C006
E00E
600E
783E
3FF6
0FC6
0006
400C
601C
7838
3FF0
0FC0
ENDCHAR
STARTCHAR 0435
ENCODING 1077
SWIDTH 612 0
DWIDTH 17 0
BBX 14 15 2 0
BITMAP
1FC0
3FF0
7038
6018
C01C
C00C
FFFC
FFFC
C000
C000
C000
6000
7038
3FF0
0FE0
ENDCHAR
STARTCHAR 0436
ENCODING 1078
SWIDTH 792 0
DWIDTH 22 0
BBX 20 15 1 0
BITMAP
406060
606060
7060C0
3061C0
186180
1C6300
0FFF00
0FFE00
0C6300
1C6380
3861C0
3060C0
606060
E06070
C06030
ENDCHAR
STARTCHAR 0437
ENCODING 1079
SWIDTH 504 0
DWIDTH 14 0
BBX 12 15 1 0
BITMAP
1FC0
7FE0
6060
4070
0060
0060
07C0
07C0
0060
0030
0030
4030
E070
7FE0
1FC0
ENDCHAR
STARTCHAR 0438
ENCODING 1080
SWIDTH 684 0
DWIDTH 19 0
BBX 14 15 2 0
BITMAP
C00C
C00C
C00C
C00C
C00C
C00C
C00C
C00C
C00C
E00C
600C
601C
783C
3FFC
0FCC
ENDCHAR
STARTCHAR 0439
ENCODING 1081
SWIDTH 684 0
DWIDTH 19 0
BBX 14 22 2 0
BITMAP
1010
1830
1830
0FE0
07C0
0000
0000
C00C
C00C
C00C
C00C
C00C
C00C
C00C
C00C
C00C
E00C
600C
601C
783C
3FFC
0FCC
ENDCHAR
STARTCHAR 043A
ENCODING 1082
SWIDTH 576 0
DWIDTH 16 0
BBX 12 15 2 0
BITMAP
6030
E070
E0E0
E0C0
E180
E300
FF00
FE00
E700
E380
E1C0
E0E0
E070
E030
4010
ENDCHAR
STARTCHAR 043B
ENCODING 1083
SWIDTH 576 0
DWIDTH 16 0
BBX 14 15 1 0
BITMAP
0300
0380
0780
07C0
0EC0
0CE0
1C60
1860
3830
3030
7018
6018
601C
C00C
C00C
ENDCHAR
STARTCHAR 043C
ENCODING 1084
SWIDTH 792 0
DWIDTH 22 0
BBX 17 15 2 0
BITMAP
600180
E00380
F00380
F80780
FC0D80
EC0D80
E61980
E73180
E37180
E1E180
E1C180
E0C180
E00180
E00180
400180
ENDCHAR
STARTCHAR 043D
ENCODING 1085
SWIDTH 684 0
DWIDTH 19 0
BBX 15 15 2 0
BITMAP
600C
E00E
E00E
E00E
E00E
E00E
FFFE
FFFE
E00E
E00E
E00E
E00E
E00E
E00E
4004
ENDCHAR
STARTCHAR 043E
ENCODING 1086
SWIDTH 684 0
DWIDTH 19 0
BBX 15 15 2 0
BITMAP
0FE0
3FF8
7038
600C
C00E
C006
C006
C006
C006
C006
E00E
601C
7838
3FF0
0FE0
ENDCHAR
STARTCHAR 043F
ENCODING 1087
SWIDTH 684 0
DWIDTH 19 0
BBX 15 15 2 0
BITMAP
6FE0
FFF8
F838
E01C
E00C
E00C
E00E
E00E
E00E
E00E
E00E
E00E
E00E
E00E
4004
ENDCHAR
STARTCHAR 0440
ENCODING 1088
SWIDTH 720 0
DWIDTH 20 0
BBX 16 22 2 -7
BITMAP
07F0
1FF8
381C
700E
6006
6003
6003
E003
E003
E007
E006
F00E
F81C
EFF8
E7F0
E000
E000
E000
E000
E000
E000
4000
ENDCHAR
STARTCHAR 0441
ENCODING 1089
SWIDTH 612 0
DWIDTH 17 0
BBX 13 15 2 0
BITMAP
0FC0
3FF0
7038
6018
C000
C000
C000
C000
C000
C000
E000
6000
7838
3FF0
0FE0
ENDCHAR
STARTCHAR 0442
ENCODING 1090
SWIDTH 936 0
DWIDTH 26 0
BBX 22 15 2 0
BITMAP
6FC7F0
FFEFF8
F07C18
E0381C
E0380C
E0300C
E0300C
E0300C
E0300C
E0300C
E0300C
E0300C
E0300C
E0300C
40300C
ENDCHAR
STARTCHAR 0443
ENCODING 1091
SWIDTH 576 0
DWIDTH 16 0
BBX 15 22 0 -7
BITMAP
6006
600C
700C
301C
3018
1838
1830
0C30
0C60
0660
06C0
03C0
03C0
0180
0180
0300
0300
0600
0E00
DC00
F800
7000
ENDCHAR
STARTCHAR 0444
ENCODING 1092
SWIDTH 756 0
DWIDTH 21 0
BBX 17 28 2 -7
BITMAP
008000
01C000
01C000
01C000
01C000
01C000
01C000
0FF800
3FFE00
71C700
61C300
C1C380
C1C180
C1C180
C1C180
C1C180
C1C180
E1C380
61C300
79CF00
3FFE00
0FF800
01C000
01C000
01C000
01C000
01C000
01C000
ENDCHAR
STARTCHAR 0445
ENCODING 1093
SWIDTH 540 0
DWIDTH 15 0
BBX 13 15 1 0
BITMAP
C018
6038
7070
3860
1CC0
0D80
0780
0700
0F80
1DC0
18E0
3060
7030
E038
C018
ENDCHAR
STARTCHAR 0446
ENCODING 1094
SWIDTH 720 0
DWIDTH 20 0
BBX 17 20 2 -5
BITMAP
C00C00
C00C00
C00C00
C00C00
C00C00
C00C00
C00C00
C00C00
C00C00
E00C00
600C00
701C00
383C00
3FFF80
0FC780
000180
000180
000180
000180
000180
ENDCHAR
STARTCHAR 0447
ENCODING 1095
SWIDTH 576 0
DWIDTH 16 0
BBX 13 15 1 0
BITMAP
C018
C018
C018
C018
C018
E018
6018
7038
3FF8
1FD8
0018
0018
0018
0018
0018
ENDCHAR
STARTCHAR 0448
ENCODING 1096
SWIDTH 936 0
DWIDTH 26 0
BBX 22 15 2 0
BITMAP
C0300C
C0300C
C0300C
C0300C
C0300C
C0300C
C0300C
C0300C
C0300C
C0300C
E0301C
60781C
70DC3C
3F9FEC
1F07CC
ENDCHAR
STARTCHAR 0449
ENCODING 1097
SWIDTH 972 0
DWIDTH 27 0
BBX 25 20 2 -5
BITMAP
C0300C00
C0300C00
C0300C00
C0300C00
C0300C00
C0300C00
C0300C00
C0300C00
C0300C00
C0300C00
E0301C00
60781C00
70DC3C00
3F9FEF00
1F07CF80
00000380
00000380
00000380
00000380
00000100
ENDCHAR
STARTCHAR 044A
ENCODING 1098
SWIDTH 648 0
DWIDTH 18 0
BBX 16 15 1 0
BITMAP
FE00
FE00
0E00
0E00
0E00
0FFC
0FFE
0E07
0E03
0E03
0E03
0603
0707
03FE
01FC
ENDCHAR
STARTCHAR 044B
ENCODING 1099
SWIDTH 792 0
DWIDTH 22 0
BBX 17 15 2 0
BITMAP
600180
E00180
E00180
E00180
E00180
FFC180
FFE180
E07180
E03180
E03180
603180
603180
707180
3FE180
1FC180
ENDCHAR
STARTCHAR 044C
ENCODING 1100
SWIDTH 576 0
DWIDTH 16 0
BBX 13 15 2 0
BITMAP
6000
E000
E000
E000
E000
FFC0
FFF0
E038
E018
E018
6018
6018
7038
3FF0
1FC0
ENDCHAR
STARTCHAR 044D
ENCODING 1101
SWIDTH 612 0
DWIDTH 17 0
BBX 13 15 2 0
BITMAP
3F80
7FC0
E0E0
8030
0030
0018
0FF8
1FF8
0018
0038
0030
0070
C0E0
FFC0
3F00
ENDCHAR
STARTCHAR 044E
ENCODING 1102
SWIDTH 900 0
DWIDTH 25 0
BBX 21 15 2 0
BITMAP
603F80
E0FFE0
E1C0F0
E18030
E30038
E30018
FF0018
FF0018
E30018
E30018
E38038
E18070
E1E0E0
E07FC0
403F80
ENDCHAR
STARTCHAR 044F
ENCODING 1103
SWIDTH 576 0
DWIDTH 16 0
BBX 12 15 2 0
BITMAP
1FF0
7FF0
6070
E070
C070
C070
E070
7070
3FF0
1FF0
3870
3070
6070
E070
C020
ENDCHAR
STARTCHAR 0450
ENCODING 1104
SWIDTH 612 0
DWIDTH 17 0
BBX 14 23 2 0
BITMAP
1800
1C00
0E00
0700
0300
0000
0000
0000
1FC0
3FF0
7038
6018
C01C
C00C
FFFC
FFFC
C000
C000
C000
6000
7038
3FF0
0FE0
ENDCHAR
STARTCHAR 0451
ENCODING 1105
SWIDTH 612 0
DWIDTH 17 0
BBX 14 21 2 0
BITMAP
1860
1CE0
1860
0000
0000
0000
1FC0
3FF0
7038
6018
C01C
C00C
FFFC
FFFC
C000
C000
C000
6000
7038
3FF0
0FE0
ENDCHAR
STARTCHAR 0452
ENCODING 1106
SWIDTH 720 0
DWIDTH 20 0
BBX 17 28 1 -7
BITMAP
100000
380000
380000
FFE000
FFE000
380000
380000
380000
3BF800
3FFC00
3C0E00
380600
380700
380300
380300
380380
380380
380380
380380
380300
380300
100300
000300
000600
000600
000C00
007C00
007800
ENDCHAR
STARTCHAR 0453
ENCODING 1107
SWIDTH 504 0
DWIDTH 14 0
BBX 12 23 1 0
BITMAP
0040
00C0
01C0
0380
0700
0000
0000
0000
1FC0
7FE0
6060
4060
0060
0060
03C0
1F80
7800
6000
E000
E010
6070
7FE0
1FC0
ENDCHAR
STARTCHAR 0454
ENCODING 1108
SWIDTH 612 0
DWIDTH 17 0
BBX 13 15 2 0
BITMAP
0FC0
3FF0
7038
6018
C000
C000
FF80
FF80
C000
C000
E000
6000
7838
3FF0
0FE0
ENDCHAR
STARTCHAR 0455
ENCODING 1109
SWIDTH 540 0
DWIDTH 15 0
BBX 12 15 2 0
BITMAP
3F80
7FE0
E060
C020
C000
6000
7E00
1FC0
01E0
0070
0030
8030
E060
7FE0
3F80
ENDCHAR
STARTCHAR 0456
ENCODING 1110
SWIDTH 288 0
DWIDTH 8 0
BBX 4 21 2 0
BITMAP
60
F0
60
00
00
00
60
60
60
60
60
60
60
60
60
60
60
60
60
60
60
ENDCHAR
STARTCHAR 0457
ENCODING 1111
SWIDTH 288 0
DWIDTH 8 0
BBX 8 21 0 0
BITMAP
C3
E7
C3
00
00
00
18
18
18
18
18
18
18
18
18
18
18
18
18
18
18
ENDCHAR
STARTCHAR 0458
ENCODING 1112
SWIDTH 288 0
DWIDTH 8 0
BBX 8 28 -3 -7
BITMAP
03
07
03
00
00
00
03
03
03
03
03
03
03
03
03
03
03
03
03
03
03
03
03
07
0E
7C
F8
40
ENDCHAR
STARTCHAR 0459
ENCODING 1113
SWIDTH 792 0
DWIDTH 22 0
BBX 20 15 1 0
BITMAP
030000
038000
078000
07C000
0CC000
0CFFC0
1C7FE0
186070
383030
303030
701830
601830
601C70
C00FE0
C00780
ENDCHAR
STARTCHAR 045A
ENCODING 1114
SWIDTH 972 0
DWIDTH 27 0
BBX 23 15 2 0
BITMAP
600C00
E00C00
E00C00
E00C00
E00C00
E00FF8
FFFFFC
FFFC0E
E00C06
E00C06
E00C06
E00C06
E0060E
E007FC
4001F8
ENDCHAR
STARTCHAR 045B
ENCODING 1115
SWIDTH 684 0
DWIDTH 19 0
BBX 17 22 0 0
BITMAP
100000
180000
180000
FFF000
FFF000
180000
180000
18F000
1BFC00
1F0E00
1C0700
180380
180180
180180
180180
180180
180180
180180
180180
180180
180180
180180
ENDCHAR
STARTCHAR 045C
ENCODING 1116
SWIDTH 576 0
DWIDTH 16 0
BBX 12 23 2 0
BITMAP
0080
0180
0380
0700
0E00
0000
0000
0000
6030
E070
E0E0
E0C0
E180
E300
FF00
FE00
E700
E380
E1C0
E0E0
E070
E030
4010
ENDCHAR
STARTCHAR 045D
ENCODING 1117
SWIDTH 684 0
DWIDTH 19 0
BBX 14 23 2 0
BITMAP
1800
1C00
0E00
0700
0300
0000
0000
0000
C00C
C00C
C00C
C00C
C00C
C00C
C00C
C00C
C00C
E00C
600C
601C
783C
3FFC
0FCC
ENDCHAR
STARTCHAR 045E
ENCODING 1118
SWIDTH 576 0
DWIDTH 16 0
BBX 15 29 0 -7
BITMAP
1810
1818
1C30
0FF0
03C0
0000
0000
6006
600C
700C
301C
3018
1838
1830
0C30
0C60
0660
06C0
03C0
03C0
0180
0180
0300
0300
0600
0E00
DC00
F800
7000
ENDCHAR
STARTCHAR 045F
ENCODING 1119
SWIDTH 540 0
DWIDTH 15 0
BBX 13 19 1 -4
BITMAP
C018
C018
C018
C018
C018
C018
C018
C018
C018
C018
C018
C018
C018
FFF8
FFF8
0700
0700
0700
0300
ENDCHAR
STARTCHAR 0462
ENCODING 1122
SWIDTH 756 0
DWIDTH 21 0
BBX 20 22 0 0
BITMAP
040000
060000
060000
060000
FFFE00
7FFC00
060000
060000
060000
07FF00
07FFC0
0600E0
060060
060030
060030
060030
060030
060070
060060
0600E0
07FFC0
07FF00
ENDCHAR
STARTCHAR 0463
ENCODING 1123
SWIDTH 612 0
DWIDTH 17 0
BBX 15 22 1 0
BITMAP
0800
1800
1800
1800
1800
1800
FFC0
FFC0
1800
1800
1800
1800
1FF0
1FF8
181C
180C
180E
180E
1C0C
0C1C
0FF8
03F0
ENDCHAR
STARTCHAR 046A
ENCODING 1130
SWIDTH 936 0
DWIDTH 26 0
BBX 24 22 1 0
BITMAP
0FFFF0
1FFFF0
0C0070
060060
0700C0
0381C0
018180
00C300
00E600
006E00
01FF00
07FFC0
0E18F0
1C1830
181838
381818
30181C
70180C
60180E
E01806
C01807
C01803
ENDCHAR
STARTCHAR 046B
ENCODING 1131
SWIDTH 720 0
DWIDTH 20 0
BBX 18 15 1 0
BITMAP
1FFF00
1FFE00
0C0E00
060C00
071800
033000
01E000
0FFE00
3CCF00
30C380
70C180
60C180
60C0C0
C0C0C0
C0C0C0
ENDCHAR
STARTCHAR 0472
ENCODING 1138
SWIDTH 936 0
DWIDTH 26 0
BBX 22 22 2 0
BITMAP
01FC00
07FF80
0F03C0
1C00E0
380070
700030
600018
E00018
C0001C
C0000C
FFFFFC
FFFFFC
C0000C
C0001C
C00018
E00018
600038
300070
3800E0
1E03C0
0FFF80
01FE00
ENDCHAR
STARTCHAR 0473
ENCODING 1139
SWIDTH 684 0
DWIDTH 19 0
BBX 15 15 2 0
BITMAP
0FE0
3FF8
7038
600C
C00E
C006
C006
FFFE
C006
C006
E00E
601C
7838
3FF0
0FE0
ENDCHAR
STARTCHAR 0474
ENCODING 1140
SWIDTH 720 0
DWIDTH 20 0
BBX 19 22 1 0
BITMAP
800060
C001E0
C00180
E00300
600300
600600
700600
300600
300C00
180C00
181800
1C1800
0C1800
0C3000
063000
063000
076000
036000
03C000
01C000
01C000
018000
ENDCHAR
STARTCHAR 0475
ENCODING 1141
SWIDTH 540 0
DWIDTH 15 0
BBX 15 15 0 0
BITMAP
C00E
600E
6018
3038
3030
3830
1860
1C60
0C60
0CC0
06C0
0780
0380
0380
0300
ENDCHAR
STARTCHAR 0490
ENCODING 1168
SWIDTH 612 0
DWIDTH 17 0
BBX 14 26 3 0
BITMAP
001C
001C
001C
001C
FFFC
FFFC
C000
C000
C000
C000
C000
C000
C000
C000
C000
C000
C000
C000
C000
C000
C000
C000
C000
C000
C000
C000
ENDCHAR
STARTCHAR 0491
ENCODING 1169
SWIDTH 504 0
DWIDTH 14 0
BBX 11 20 2 0
BITMAP
0060
0060
0060
0060
0060
7FE0
FFC0
E000
E000
E000
E000
E000
E000
E000
E000
E000
E000
E000
E000
4000
ENDCHAR
STARTCHAR 0492
ENCODING 1170
SWIDTH 612 0
DWIDTH 17 0
BBX 17 22 0 0
BITMAP
1FFF00
1FFF80
180000
180000
180000
180000
180000
180000
180000
180000
FFC000
FFC000
180000
180000
180000
180000
180000
180000
180000
180000
180000
180000
ENDCHAR
STARTCHAR 0493
ENCODING 1171
SWIDTH 504 0
DWIDTH 14 0
BBX 12 15 1 0
BITMAP
3FF0
3FF0
3000
3000
3000
3000
FF00
FF80
3000
3000
3000
3000
3000
3000
3000
ENDCHAR
STARTCHAR 0494
ENCODING 1172
SWIDTH 684 0
DWIDTH 19 0
BBX 15 22 3 0
BITMAP
FFF8
FFFC
C000
C000
C000
C000
C000
DFE0
FFF0
E038
C01C
C00C
C00C
C00E
C00E
C00C
C00C
C00C
C018
C038
C3F0
C3C0
ENDCHAR
STARTCHAR 0495
ENCODING 1173
SWIDTH 576 0
DWIDTH 16 0
BBX 13 20 2 -5
BITMAP
7FE0
FFC0
E000
E000
E000
E700
FFC0
F9E0
E070
E030
E038
E018
E018
E018
4018
0030
0030
0070
03E0
03C0
ENDCHAR
STARTCHAR 0496
ENCODING 1174
SWIDTH 1044 0
DWIDTH 29 0
BBX 28 27 1 -5
BITMAP
40040080
600C00C0
700C0180
300C0380
180C0700
1C0C0600
0E0C0C00
060C1C00
030C3800
038C3000
01FFE000
01FFE000
038C3000
070C3800
060C1C00
0C0C0C00
1C0C0E00
380C0700
700C0300
600C0180
E00C01F0
C00C00F0
00000030
00000030
00000030
00000030
00000030
ENDCHAR
STARTCHAR 0497
ENCODING 1175
SWIDTH 792 0
DWIDTH 22 0
BBX 21 20 1 -5
BITMAP
C06060
606060
7060C0
3061C0
186180
1C6300
0FFF00
0FFE00
0C6700
186300
386180
7061C0
6060C0
E06078
C06078
000018
000018
000018
000018
000018
ENDCHAR
STARTCHAR 0498
ENCODING 1176
SWIDTH 648 0
DWIDTH 18 0
BBX 14 27 2 -5
BITMAP
0F80
3FE0
7070
C038
C018
0018
0018
0018
0030
00E0
07C0
00F0
0038
0018
000C
000C
000C
000C
C018
E038
7FF0
1FC0
0300
0300
0300
0300
0300
ENDCHAR
STARTCHAR 0499
ENCODING 1177
SWIDTH 504 0
DWIDTH 14 0
BBX 12 20 1 -5
BITMAP
1FC0
7FE0
6060
4070
0060
0060
07C0
07C0
0060
0030
0030
4030
E070
7FE0
1FC0
0600
0600
0600
0600
0200
ENDCHAR
STARTCHAR 049A
ENCODING 1178
SWIDTH 684 0
DWIDTH 19 0
BBX 16 27 3 -5
BITMAP
8004
C00C
C01C
C038
C030
C060
C0E0
C1C0
C380
C300
FE00
FE00
C300
C380
C1C0
C0C0
C0E0
C070
C038
C018
C01F
C00F
0003
0003
0003
0003
0003
ENDCHAR
STARTCHAR 049B
ENCODING 1179
SWIDTH 576 0
DWIDTH 16 0
BBX 14 20 2 -5
BITMAP
6018
E030
E060
E0E0
E1C0
E380
FF00
FE00
E300
E380
E1C0
E0C0
E060
E078
403C
000C
000C
000C
000C
0008
ENDCHAR
STARTCHAR 049C
ENCODING 1180
SWIDTH 684 0
DWIDTH 19 0
BBX 15 22 3 0
BITMAP
8004
C00C
C01C
C038
C030
C060
C8E0
C9C0
CB80
CB00
FE00
FF00
CB00
CB80
C9C0
C8E0
C070
C038
C018
C00C
C00E
C006
ENDCHAR
STARTCHAR 049D
ENCODING 1181
SWIDTH 576 0
DWIDTH 16 0
BBX 13 15 2 0
BITMAP
6018
E038
E070
E8E0
EDC0
EF80
FF00
FF00
EF80
ED80
ECC0
E060
E070
E038
4018
ENDCHAR
STARTCHAR 04A0
ENCODING 1184
SWIDTH 864 0
DWIDTH 24 0
BBX 23 22 0 0
BITMAP
7F8004
FFC00C
01C018
01C038
01C070
01C0E0
01C0C0
01C180
01C380
01C700
01FE00
01FE00
01C700
01C380
01C1C0
01C0E0
01C060
01C030
01C038
01C01C
01C00E
008006
ENDCHAR
STARTCHAR 04A1
ENCODING 1185
SWIDTH 684 0
DWIDTH 19 0
BBX 16 15 1 0
BITMAP
FE03
FE07
0E0E
0E0C
0E18
0E30
0FF0
0FE0
0E70
0E38
0E1C
0E0E
0E07
0E03
0401
ENDCHAR
STARTCHAR 04A2
ENCODING 1186
SWIDTH 828 0
DWIDTH 23 0
BBX 20 27 3 -5
BITMAP
800080
C001C0
C001C0
C001C0
C001C0
C001C0
C001C0
C001C0
C001C0
C001C0
FFFFC0
FFFFC0
C001C0
C001C0
C001C0
C001C0
C001C0
C001C0
C001C0
C001C0
C001F0
C000F0
000030
000030
000030
000030
000010
ENDCHAR
STARTCHAR 04A3
ENCODING 1187
SWIDTH 684 0
DWIDTH 19 0
BBX 17 20 2 -5
BITMAP
600C00
E00E00
E00E00
E00E00
E00E00
E00E00
FFFE00
FFFE00
E00E00
E00E00
E00E00
E00E00
E00E00
E00F80
400780
000180
000180
000180
000180
000180
ENDCHAR
STARTCHAR 04A4
ENCODING 1188
SWIDTH 1116 0
DWIDTH 31 0
BBX 27 22 3 0
BITMAP
8001FFE0
C003FFE0
C0030000
C0030000
C0030000
C0030000
C0030000
C0030000
C0030000
C0030000
FFFF0000
FFFF0000
C0030000
C0030000
C0030000
C0030000
C0030000
C0030000
C0030000
C0030000
C0030000
C0030000
ENDCHAR
STARTCHAR 04A5
ENCODING 1189
SWIDTH 900 0
DWIDTH 25 0
BBX 21 15 2 0
BITMAP
601FF8
E01FF8
E01800
E01800
E01800
E01800
FFF800
FFF800
E01800
E01800
E01800
E01800
E01800
E01800
401800
ENDCHAR
STARTCHAR 04AA
ENCODING 1194
SWIDTH 756 0
DWIDTH 21 0
BBX 18 27 2 -5
BITMAP
01FC00
07FF00
0F0780
1C01C0
380000
700000
600000
E00000
C00000
C00000
C00000
C00000
C00000
C00000
C00000
600000
700000
300000
380080
1E03C0
07FF80
01FE00
007000
007000
007000
007000
002000
ENDCHAR
STARTCHAR 04AB
ENCODING 1195
SWIDTH 612 0
DWIDTH 17 0
BBX 13 20 2 -5
BITMAP
0FC0
3FF0
7038
6018
C000
C000
C000
C000
C000
C000
E000
6000
7838
3FF0
0FE0
0300
0300
0300
0300
0100
ENDCHAR
STARTCHAR 04AE
ENCODING 1198
SWIDTH 648 0
DWIDTH 18 0
BBX 18 22 0 0
BITMAP
400080
E000C0
600180
700380
300300
180600
1C0E00
0C0C00
0E1C00
061800
033000
03F000
01E000
00C000
00C000
00C000
00C000
00C000
00C000
00C000
00C000
00C000
ENDCHAR
STARTCHAR 04AF
ENCODING 1199
SWIDTH 540 0
DWIDTH 15 0
BBX 14 21 0 -6
BITMAP
C00C
600C
601C
3018
3018
3830
1830
1860
0C60
0CE0
06C0
06C0
0380
0380
0380
0380
0380
0380
0380
0380
0100
ENDCHAR
STARTCHAR 04B0
ENCODING 1200
SWIDTH 648 0
DWIDTH 18 0
BBX 18 22 0 0
BITMAP
400080
E000C0
600180
700380
300300
180600
1C0E00
0C0C00
0E1C00
061800
033000
03F000
01E000
0FFC00
0FFC00
00C000
00C000
00C000
00C000
00C000
00C000
00C000
ENDCHAR
STARTCHAR 04B1
ENCODING 1201
SWIDTH 576 0
DWIDTH 16 0
BBX 14 21 1 -7
BITMAP
C00C
E00C
601C
7018
3038
3030
1870
1860
1CE0
0CC0
0EC0
0780
0780
0380
7FF8
7FF8
0300
0300
0300
0300
0300
ENDCHAR
STARTCHAR 04B6
ENCODING 1206
SWIDTH 756 0
DWIDTH 21 0
BBX 19 27 2 -5
BITMAP
400100
C00300
C00300
C00300
C00300
C00300
C00300
C00300
E00300
600300
700300
300700
3E3F00
0FFB00
01C300
000300
000300
000300
000300
000300
0003E0
0003E0
000060
000060
000060
000060
000060
ENDCHAR
STARTCHAR 04B7
ENCODING 1207
SWIDTH 576 0
DWIDTH 16 0
BBX 15 20 1 -5
BITMAP
C018
C018
C018
C018
C018
E018
6018
7038
3FF8
1FD8
0018
0018
0018
001E
001E
0006
0006
0006
0006
0002
ENDCHAR
STARTCHAR 04B8
ENCODING 1208
SWIDTH 756 0
DWIDTH 21 0
BBX 16 22 2 0
BITMAP
4001
C003
C003
C003
C003
C003
C003
E003
E083
6183
7183
3187
3FBF
0FFB
01C3
0183
0183
0083
0003
0003
0003
0003
ENDCHAR
STARTCHAR 04B9
ENCODING 1209
SWIDTH 576 0
DWIDTH 16 0
BBX 13 15 1 0
BITMAP
C018
C018
C018
C018
C018
E318
6318
7338
3FF8
1FD8
0318
0318
0318
0018
0018
ENDCHAR
STARTCHAR 04BA
ENCODING 1210
SWIDTH 756 0
DWIDTH 21 0
BBX 16 22 3 0
BITMAP
8000
C000
C000
C000
C000
C000
C000
C000
CFF0
FFF8
F01C
C00E
C006
C007
C003
C003
C003
C003
C003
C003
C003
C003
ENDCHAR
STARTCHAR 04BB
ENCODING 1211
SWIDTH 684 0
DWIDTH 19 0
BBX 15 22 2 0
BITMAP
4000
E000
E000
E000
E000
E000
E000
EFE0
FFF8
F838
E01C
E00C
E00C
E00E
E00E
E00E
E00E
E00E
E00E
E00E
E00E
4004
ENDCHAR
STARTCHAR 04C0
ENCODING 1216
SWIDTH 288 0
DWIDTH 8 0
BBX 2 22 3 0
BITMAP
80
C0
C0
C0
C0
C0
C0
C0
C0
C0
C0
C0
C0
C0
C0
C0
C0
C0
C0
C0
C0
C0
ENDCHAR
STARTCHAR 04C1
ENCODING 1217
SWIDTH 1044 0
DWIDTH 29 0
BBX 27 28 1 0
BITMAP
0040C000
0060C000
007B8000
003F0000
00000000
00000000
40040080
600C00C0
700C0180
300C0380
180C0700
1C0C0600
0E0C0C00
060C1C00
030C3800
038C3000
01FFE000
01FFF000
038C3000
070C3800
060C1C00
0C0C0E00
1C0C0600
380C0300
700C0380
600C01C0
E00C00E0
C00C0060
ENDCHAR
STARTCHAR 04C2
ENCODING 1218
SWIDTH 792 0
DWIDTH 22 0
BBX 20 22 1 0
BITMAP
060400
060600
070C00
03FC00
00F000
000000
000000
406060
606060
7060C0
3061C0
186180
1C6300
0FFF00
0FFE00
0C6300
1C6380
3861C0
3060C0
606060
E06070
C06030
ENDCHAR
STARTCHAR 04CB
ENCODING 1227
SWIDTH 792 0
DWIDTH 22 0
BBX 16 27 2 -5
BITMAP
4001
C003
C003
C003
C003
C003
C003
C003
E003
6003
7003
3007
3E3F
0FFB
01C3
0003
0003
0003
0003
0003
000F
000F
000C
000C
000C
000C
0008
ENDCHAR
STARTCHAR 04CC
ENCODING 1228
SWIDTH 576 0
DWIDTH 16 0
BBX 13 20 1 -5
BITMAP
C018
C018
C018
C018
C018
E018
6018
7038
3FF8
1FD8
0018
0018
0018
00F8
00F8
00C0
00C0
00C0
00C0
00C0
ENDCHAR
STARTCHAR 04CF
ENCODING 1231
SWIDTH 288 0
DWIDTH 8 0
BBX 5 22 2 0
BITMAP
80
C0
C0
C0
C0
C0
C0
C0
C0
C0
C0
C0
C0
C0
C0
C0
C0
C0
C0
E0
78
38
ENDCHAR
STARTCHAR 04D0
ENCODING 1232
SWIDTH 720 0
DWIDTH 20 0
BBX 18 28 1 0
BITMAP
0C0C00
0C1800
077800
03F000
000000
000000
008000
00C000
01C000
01E000
03E000
033000
073000
063800
061800
0C1800
0C0C00
1C0C00
180E00
180600
300700
3FFF00
7FFF00
600380
E00180
C001C0
C000C0
8000C0
ENDCHAR
STARTCHAR 04D1
ENCODING 1233
SWIDTH 684 0
DWIDTH 19 0
BBX 15 22 2 0
BITMAP
1010
1830
1830
0FE0
07C0
0000
0000
0FE0
3FF0
7038
600C
C00E
C006
C006
C006
C006
C006
E00E
601E
783E
3FF6
0FC6
ENDCHAR
STARTCHAR 04D2
ENCODING 1234
SWIDTH 720 0
DWIDTH 20 0
BBX 18 27 1 1
BITMAP
0E3800
0E3800
000000
000000
000000
008000
00C000
01C000
01E000
03E000
033000
073000
063800
061800
0C1800
0C0C00
1C0C00
180E00
180600
300700
3FFF00
7FFF00
600380
E00180
C001C0
C000C0
8000C0
ENDCHAR
STARTCHAR 04D3
ENCODING 1235
SWIDTH 684 0
DWIDTH 19 0
BBX 15 21 2 0
BITMAP
1C60
1C70
1C60
0000
0000
0000
0FE0
3FF0
7038
600C
C00E
C006
C006
C006
C006
C006
E00E
601E
783E
3FF6
0FC6
ENDCHAR
STARTCHAR 04D4
ENCODING 1236
SWIDTH 972 0
DWIDTH 27 0
BBX 24 22 1 0
BITMAP
000FFF
001FFF
003C00
003C00
007C00
007C00
00DC00
01DC00
019C00
039C00
031FF8
061FF8
0E1C00
0C1C00
1C1C00
1FFC00
3FFC00
701C00
601C00
E01C00
C01FFF
C01FFF
ENDCHAR
STARTCHAR 04D5
ENCODING 1237
SWIDTH 1080 0
DWIDTH 30 0
BBX 27 15 2 0
BITMAP
0FE07F00
3FF0FF80
703981C0
600F00E0
C00F0060
C0060060
C007FFE0
C007FFE0
C0060000
C0060000
E00F0000
601F8000
783FC0C0
3FF6FFC0
0FC63F00
ENDCHAR
STARTCHAR 04D6
ENCODING 1238
SWIDTH 684 0
DWIDTH 19 0
BBX 15 28 3 0
BITMAP
1830
1830
1EF0
0FE0
0000
0000
FFFE
FFFE
C000
C000
C000
C000
C000
C000
C000
C000
FFF0
FFF0
C000
C000
C000
C000
C000
C000
C000
C000
FFFE
FFFE
ENDCHAR
STARTCHAR 04D7
ENCODING 1239
SWIDTH 612 0
DWIDTH 17 0
BBX 14 22 2 0
BITMAP
1020
3030
1870
1FE0
0780
0000
0000
1FC0
3FF0
7038
6018
C01C
C00C
FFFC
FFFC
C000
C000
C000
6000
7038
3FF0
0FE0
ENDCHAR
STARTCHAR 04D8
ENCODING 1240
SWIDTH 828 0
DWIDTH 23 0
BBX 19 22 2 0
BITMAP
03F000
0FFC00
1E0F00
380380
700180
6000C0
E000C0
C00060
C00060
C00060
FFFFE0
FFFFE0
000060
000060
000060
0000E0
0000C0
0001C0
700380
3C0F00
1FFE00
07F800
ENDCHAR
STARTCHAR 04D9
ENCODING 1241
SWIDTH 612 0
DWIDTH 17 0
BBX 14 15 1 0
BITMAP
1FC0
3FF0
7038
0018
000C
000C
000C
FFFC
C00C
C00C
600C
6018
3038
1FF0
0FC0
ENDCHAR
STARTCHAR 04DC
ENCODING 1244
SWIDTH 1044 0
DWIDTH 29 0
BBX 27 27 1 1
BITMAP
0071C000
0071C000
00000000
00000000
00000000
40040080
600C00C0
700C0180
300C0380
180C0700
1C0C0600
0E0C0C00
060C1C00
030C3800
038C3000
01FFE000
01FFF000
038C3000
070C3800
060C1C00
0C0C0E00
1C0C0600
380C0300
700C0380
600C01C0
E00C00E0
C00C0060
ENDCHAR
STARTCHAR 04DD
ENCODING 1245
SWIDTH 792 0
DWIDTH 22 0
BBX 20 21 1 0
BITMAP
030C00
079C00
030C00
000000
000000
000000
406060
606060
7060C0
3061C0
186180
1C6300
0FFF00
0FFE00
0C6300
1C6380
3861C0
3060C0
606060
E06070
C06030
ENDCHAR
STARTCHAR 04DE
ENCODING 1246
SWIDTH 648 0
DWIDTH 18 0
BBX 14 27 2 1
BITMAP
1CE0
1CE0
0800
0000
0000
0F80
3FE0
7070
C038
C018
0018
0018
0018
0030
00E0
07C0
00F0
0038
0018
000C
000C
000C
000C
C018
E038
7FF0
1FC0
ENDCHAR
STARTCHAR 04DF
ENCODING 1247
SWIDTH 504 0
DWIDTH 14 0
BBX 12 21 1 0
BITMAP
18E0
38E0
18E0
0000
0000
0000
1FC0
7FE0
6060
4070
0060
0060
07C0
07C0
0060
0030
0030
4030
E070
7FE0
1FC0
ENDCHAR
STARTCHAR 04E2
ENCODING 1250
SWIDTH 864 0
DWIDTH 24 0
BBX 18 27 3 0
BITMAP
0FF800
0FF800
000000
000000
000000
800080
C001C0
C003C0
C003C0
C006C0
C00CC0
C01CC0
C038C0
C030C0
C060C0
C0C0C0
C1C0C0
C180C0
C300C0
C600C0
CC00C0
DC00C0
D800C0
F000C0
E000C0
E000C0
C000C0
ENDCHAR
STARTCHAR 04E3
ENCODING 1251
SWIDTH 684 0
DWIDTH 19 0
BBX 14 20 2 0
BITMAP
1FF0
1FF0
0000
0000
0000
C00C
C00C
C00C
C00C
C00C
C00C
C00C
C00C
C00C
E00C
600C
601C
783C
3FFC
0FCC
ENDCHAR
STARTCHAR 04E4
ENCODING 1252
SWIDTH 864 0
DWIDTH 24 0
BBX 18 27 3 1
BITMAP
0E3800
0E3800
040000
000000
000000
800080
C001C0
C003C0
C003C0
C006C0
C00CC0
C01CC0
C038C0
C030C0
C060C0
C0C0C0
C1C0C0
C180C0
C300C0
C600C0
CC00C0
DC00C0
D800C0
F000C0
E000C0
E000C0
C000C0
ENDCHAR
STARTCHAR 04E5
ENCODING 1253
SWIDTH 684 0
DWIDTH 19 0
BBX 14 21 2 0
BITMAP
1C60
1C70
1C60
0000
0000
0000
C00C
C00C
C00C
C00C
C00C
C00C
C00C
C00C
C00C
E00C
600C
601C
783C
3FFC
0FCC
ENDCHAR
STARTCHAR 04E6
ENCODING 1254
SWIDTH 936 0
DWIDTH 26 0
BBX 22 28 2 0
BITMAP
000400
038E00
038E00
000000
000000
000000
01FC00
07FF80
0F07C0
1C00E0
380070
700030
600018
E00018
C0001C
C0000C
C0000C
C0000C
C0000C
C0001C
C00018
E00018
600038
300070
3800E0
1E03C0
0FFF80
01FE00
ENDCHAR
STARTCHAR 04E7
ENCODING 1255
SWIDTH 684 0
DWIDTH 19 0
BBX 15 21 2 0
BITMAP
1C60
1C70
1C60
0000
0000
0000
0FE0
3FF8
7038
600C
C00E
C006
C006
C006
C006
C006
E00E
601C
7838
3FF0
0FE0
ENDCHAR
STARTCHAR 04E8
ENCODING 1256
SWIDTH 936 0
DWIDTH 26 0
BBX 22 22 2 0
BITMAP
01FC00
07FF80
0F03C0
1C00E0
380070
700030
600018
E00018
C0001C
C0000C
FFFFFC
FFFFFC
C0000C
C0001C
C00018
E00018
600038
300070
3800E0
1E03C0
0FFF80
01FE00
ENDCHAR
STARTCHAR 04E9
ENCODING 1257
SWIDTH 684 0
DWIDTH 19 0
BBX 15 15 2 0
BITMAP
0FE0
3FF8
7038
600C
C00E
C006
C006
FFFE
C006
C006
E00E
601C
7838
3FF0
0FE0
ENDCHAR
STARTCHAR 04EE
ENCODING 1262
SWIDTH 720 0
DWIDTH 20 0
BBX 18 27 0 0
BITMAP
07FC00
07FC00
000000
000000
000000
400040
C000C0
E001C0
600180
300180
380300
180300
1C0600
0C0600
060C00
060C00
031C00
039800
01B800
00F000
00F000
006000
00E000
00C000
01C000
3F8000
1F0000
ENDCHAR
STARTCHAR 04EF
ENCODING 1263
SWIDTH 576 0
DWIDTH 16 0
BBX 15 27 0 -7
BITMAP
1FF0
1FF0
0000
0000
0000
6006
600C
700C
301C
3018
1838
1830
0C30
0C60
0660
06C0
03C0
03C0
0180
0180
0300
0300
0600
0E00
DC00
F800
7000
ENDCHAR
STARTCHAR 04F0
ENCODING 1264
SWIDTH 720 0
DWIDTH 20 0
BBX 18 27 0 1
BITMAP
071C00
071C00
020000
000000
000000
400040
C000C0
E001C0
600180
300180
380300
180300
1C0600
0C0600
060C00
060C00
031C00
039800
01B800
00F000
00F000
006000
00E000
00C000
01C000
3F8000
1F0000
ENDCHAR
STARTCHAR 04F1
ENCODING 1265
SWIDTH 576 0
DWIDTH 16 0
BBX 15 28 0 -7
BITMAP
0C30
1C70
0C30
0000
0000
0000
6006
600C
700C
301C
3018
1838
1830
0C30
0C60
0660
06C0
03C0
03C0
0180
0180
0300
0300
0600
0E00
DC00
F800
7000
ENDCHAR
STARTCHAR 04F2
ENCODING 1266
SWIDTH 720 0
DWIDTH 20 0
BBX 18 29 0 0
BITMAP
00CC00
00CC00
018C00
019800
011800
000000
000000
400040
C000C0
E001C0
600180
300180
380300
180300
1C0600
0C0600
060C00
060C00
031C00
039800
01B800
00F000
00F000
006000
00E000
00C000
01C000
3F8000
1F0000
ENDCHAR
STARTCHAR 04F3
ENCODING 1267
SWIDTH 576 0
DWIDTH 16 0
BBX 15 30 0 -7
BITMAP
0330
0330
0330
0660
0660
0440
0000
0000
6006
600C
700C
301C
3018
1838
1830
0C30
0C60
0660
06C0
03C0
03C0
0180
0180
0300
0300
0600
0E00
DC00
F800
7000
ENDCHAR
STARTCHAR 04F4
ENCODING 1268
SWIDTH 756 0
DWIDTH 21 0
BBX 16 28 2 0
BITMAP
0400
0E38
0E38
0010
0000
0000
4001
C003
C003
C003
C003
C003
C003
C003
E003
6003
7003
3007
3E3F
0FFB
01C3
0003
0003
0003
0003
0003
0003
0003
ENDCHAR
STARTCHAR 04F5
ENCODING 1269
SWIDTH 576 0
DWIDTH 16 0
BBX 13 21 1 0
BITMAP
18E0
38E0
18E0
0000
0000
0000
C018
C018
C018
C018
C018
E018
6018
7038
3FF8
1FD8
0018
0018
0018
0018
0018
ENDCHAR
STARTCHAR 04F6
ENCODING 1270
SWIDTH 612 0
DWIDTH 17 0
BBX 14 27 3 -5
BITMAP
FFF8
FFFC
C000
C000
C000
C000
C000
C000
C000
C000
C000
C000
C000
C000
C000
C000
C000
C000
C000
C000
F800
F800
1800
1800
1800
1800
1000
ENDCHAR
STARTCHAR 04F7
ENCODING 1271
SWIDTH 540 0
DWIDTH 15 0
BBX 12 20 1 -5
BITMAP
1FC0
7FE0
6060
4060
0060
0060
03C0
1F80
7800
6000
E000
E010
6070
7FE0
1FC0
0600
0600
0600
0600
0600
ENDCHAR
STARTCHAR 04F8
ENCODING 1272
SWIDTH 936 0
DWIDTH 26 0
BBX 20 27 3 1
BITMAP
039C00
039C00
010000
000000
000000
800020
C00030
C00030
C00030
C00030
C00030
C00030
C00030
C00030
FFC030
FFF030
C03830
C01830
C00C30
C00C30
C00C30
C00C30
C01C30
C01830
C07830
FFF030
FFC030
ENDCHAR
STARTCHAR 04F9
ENCODING 1273
SWIDTH 792 0
DWIDTH 22 0
BBX 17 21 2 0
BITMAP
0E3800
0E3800
0E3800
000000
000000
000000
600180
E00180
E00180
E00180
E00180
FFC180
FFE180
E07180
E03180
E03180
603180
603180
707180
3FE180
1FC180
ENDCHAR
STARTCHAR 051A
ENCODING 1306
SWIDTH 936 0
DWIDTH 26 0
BBX 22 22 2 0
BITMAP
01FC00
07FF80
0F07C0
1C00E0
380070
700030
600018
E00018
C0001C
C0000C
C0000C
C0000C
C0000C
C0001C
C00618
E00718
6003B8
3001F0
3800E0
1E03F0
0FFFB8
01FE18
ENDCHAR
STARTCHAR 051B
ENCODING 1307
SWIDTH 720 0
DWIDTH 20 0
BBX 15 21 2 -7
BITMAP
0FE0
3FF0
7038
600C
C00E
C006
C006
C006
C006
C006
E00E
601E
783E
3FF6
0FC6
0006
0006
0006
0006
0006
0006
ENDCHAR
STARTCHAR 051C
ENCODING 1308
SWIDTH 936 0
DWIDTH 26 0
BBX 24 22 1 0
BITMAP
800001
C01803
C01803
C03C03
E03C07
603C06
603C06
606606
30660C
30660C
30C30C
38C31C
18C318
18C318
198198
0D81B0
0D81B0
0D81B0
0700E0
0700E0
0700E0
060040
ENDCHAR
STARTCHAR 051D
ENCODING 1309
SWIDTH 756 0
DWIDTH 21 0
BBX 19 15 1 0
BITMAP
80C060
C0E060
C0E0E0
C1E0C0
61B0C0
61B0C0
633180
331180
331980
321B00
1E1B00
1E0F00
1C0E00
0C0E00
0C0600
ENDCHAR
STARTCHAR 1E80
ENCODING 7808
SWIDTH 936 0
DWIDTH 26 0
BBX 24 29 1 0
BITMAP
00C000
00E000
007000
003800
001800
000000
000000
800001
C01803
C01803
C03C03
E03C07
603C06
603C06
606606
30660C
30660C
30C30C
38C31C
18C318
18C318
198198
0D81B0
0D81B0
0D81B0
0700E0
0700E0
0700E0
060040
ENDCHAR
STARTCHAR 1E81
ENCODING 7809
SWIDTH 756 0
DWIDTH 21 0
BBX 19 23 1 0
BITMAP
060000
070000
038000
01C000
00C000
000000
000000
000000
80C060
C0E060
C0E0E0
C1E0C0
61B0C0
61B0C0
633180
331180
331980
321B00
1E1B00
1E0F00
1C0E00
0C0E00
0C0600
ENDCHAR
STARTCHAR 1E82
ENCODING 7810
SWIDTH 936 0
DWIDTH 26 0
BBX 24 29 1 0
BITMAP
000300
000700
000E00
001C00
001800
000000
000000
800001
C01803
C01803
C03C03
E03C07
603C06
603C06
606606
30660C
30660C
30C30C
38C31C
18C318
18C318
198198
0D81B0
0D81B0
0D81B0
0700E0
0700E0
0700E0
060040
ENDCHAR
STARTCHAR 1E83
ENCODING 7811
SWIDTH 756 0
DWIDTH 21 0
BBX 19 23 1 0
BITMAP
000800
003800
007800
00F000
00E000
000000
000000
000000
80C060
C0E060
C0E0E0
C1E0C0
61B0C0
61B0C0
633180
331180
331980
321B00
1E1B00
1E0F00
1C0E00
0C0E00
0C0600
ENDCHAR
STARTCHAR 1E84
ENCODING 7812
SWIDTH 936 0
DWIDTH 26 0
BBX 24 27 1 1
BITMAP
00E700
00E700
004000
000000
000000
800001
C01803
C01803
C03C03
E03C07
603C06
603C06
606606
30660C
30660C
30C30C
38C31C
18C318
18C318
198198
0D81B0
0D81B0
0D81B0
0700E0
0700E0
0700E0
060040
ENDCHAR
STARTCHAR 1E85
ENCODING 7813
SWIDTH 756 0
DWIDTH 21 0
BBX 19 21 1 0
BITMAP
071800
071C00
071800
000000
000000
000000
80C060
C0E060
C0E0E0
C1E0C0
61B0C0
61B0C0
633180
331180
331980
321B00
1E1B00
1E0F00
1C0E00
0C0E00
0C0600
ENDCHAR
STARTCHAR 1E9E
ENCODING 7838
SWIDTH 684 0
DWIDTH 19 0
BBX 15 22 3 0
BITMAP
0700
3FE0
7CF0
6038
E038
C070
C060
C0C0
C180
C3E0
C3F8
C03C
C00C
C00E
C006
C006
C006
C00C
C00C
C438
CFF8
C7E0
ENDCHAR
STARTCHAR 1EA0
ENCODING 7840
SWIDTH 720 0
DWIDTH 20 0
BBX 18 28 1 -6
BITMAP
008000
00C000
01C000
01E000
03E000
033000
073000
063800
061800
0C1800
0C0C00
1C0C00
180E00
180600
300700
3FFF00
7FFF00
600380
E00180
C001C0
C000C0
8000C0
000000
000000
000000
01C000
01C000
00C000
ENDCHAR
STARTCHAR 1EA1
ENCODING 7841
SWIDTH 684 0
DWIDTH 19 0
BBX 15 21 2 -6
BITMAP
0FE0
3FF0
7038
600C
C00E
C006
C006
C006
C006
C006
E00E
601E
783E
3FF6
0FC6
0000
0000
0000
0380
0380
0300
ENDCHAR
STARTCHAR 1EA2
ENCODING 7842
SWIDTH 720 0
DWIDTH 20 0
BBX 18 30 1 0
BITMAP
01E000
03F000
003000
003000
00E000
00C000
008000
000000
008000
00C000
01C000
01E000
03E000
033000
073000
063800
061800
0C1800
0C0C00
1C0C00
180E00
180600
300700
3FFF00
7FFF00
600380
E00180
C001C0
C000C0
8000C0
ENDCHAR
STARTCHAR 1EA3
ENCODING 7843
SWIDTH 684 0
DWIDTH 19 0
BBX 15 24 2 0
BITMAP
0380
07C0
0060
0060
01E0
0380
0300
0000
0000
0FE0
3FF0
7038
600C
C00E
C006
C006
C006
C006
C006
E00E
601E
783E
3FF6
0FC6
ENDCHAR
STARTCHAR 1EA4
ENCODING 7844
SWIDTH 720 0
DWIDTH 20 0
BBX 18 34 1 0
BITMAP
000600
000E00
001C00
003C00
003800
000000
01C000
03F000
073800
041800
000000
000000
008000
00C000
01C000
01E000
03E000
033000
073000
063800
061800
0C1800
0C0C00
1C0C00
180E00
180600
300700
3FFF00
7FFF00
600380
E00180
C001C0
C000C0
8000C0
ENDCHAR
STARTCHAR 1EA5
ENCODING 7845
SWIDTH 684 0
DWIDTH 19 0
BBX 15 27 2 0
BITMAP
000C
001C
0038
0070
0060
0100
07C0
0EE0
1C70
0000
0000
0000
0FE0
3FF0
7038
600C
C00E
C006
C006
C006
C006
C006
E00E
601E
783E
3FF6
0FC6
ENDCHAR
STARTCHAR 1EA6
ENCODING 7846
SWIDTH 720 0
DWIDTH 20 0
BBX 18 34 1 0
BITMAP
018000
01C000
00E000
007000
003000
000000
01C000
03F000
073800
041800
000000
000000
008000
00C000
01C000
01E000
03E000
033000
073000
063800
061800
0C1800
0C0C00
1C0C00
180E00
180600
300700
3FFF00
7FFF00
600380
E00180
C001C0
C000C0
8000C0
ENDCHAR
STARTCHAR 1EA7
ENCODING 7847
SWIDTH 684 0
DWIDTH 19 0
BBX 15 27 2 1
BITMAP
0380
03C0
01E0
0060
0000
0100
07C0
0EE0
1C70
0000
0000
0000
0FE0
3FF0
7038
600C
C00E
C006
C006
C006
C006
C006
E00E
601E
783E
3FF6
0FC6
ENDCHAR
STARTCHAR 1EA8
ENCODING 7848
SWIDTH 720 0
DWIDTH 20 0
BBX 18 35 1 0
BITMAP
003C00
007E00
000600
000600
001E00
001800
001000
01C000
03F000
073800
061800
000000
000000
008000
00C000
01C000
01E000
03E000
033000
073000
063800
061800
0C1800
0C0C00
1C0C00
180E00
180600
300700
3FFF00
7FFF00
600380
E00180
C001C0
C000C0
8000C0
ENDCHAR
STARTCHAR 1EA9
ENCODING 7849
SWIDTH 684 0
DWIDTH 19 0
BBX 15 29 2 0
BITMAP
0020
00F8
00DC
000C
0018
0078
0060
0120
07C0
0EE0
1C70
0000
0000
0000
0FE0
3FF0
7038
600C
C00E
C006
C006
C006
C006
C006
E00E
601E
783E
3FF6
0FC6
ENDCHAR
STARTCHAR 1EAA
ENCODING 7850
SWIDTH 720 0
DWIDTH 20 0
BBX 18 32 1 1
BITMAP
079800
0CF800
0C7000
000000
01C000
03F000
073800
061800
000000
000000
008000
00C000
01C000
01E000
03E000
033000
073000
063800
061800
0C1800
0C0C00
1C0C00
180E00
180600
300700
3FFF00
7FFF00
600380
E00180
C001C0
C000C0
8000C0
ENDCHAR
STARTCHAR 1EAB
ENCODING 7851
SWIDTH 684 0
DWIDTH 19 0
BBX 15 26 2 0
BITMAP
0E20
1FE0
19E0
0000
0100
07C0
0EE0
1C70
0000
0000
0000
0FE0
3FF0
7038
600C
C00E
C006
C006
C006
C006
C006
E00E
601E
783E
3FF6
0FC6
ENDCHAR
STARTCHAR 1EAC
ENCODING 7852
SWIDTH 720 0
DWIDTH 20 0
BBX 18 34 1 -6
BITMAP
01C000
03F000
073800
041800
000000
000000
008000
00C000
01C000
01E000
03E000
033000
073000
063800
061800
0C1800
0C0C00
1C0C00
180E00
180600
300700
3FFF00
7FFF00
600380
E00180
C001C0
C000C0
8000C0
000000
000000
000000
01C000
01C000
00C000
ENDCHAR
STARTCHAR 1EAD
ENCODING 7853
SWIDTH 684 0
DWIDTH 19 0
BBX 15 28 2 -6
BITMAP
0100
07C0
0EE0
1C70
0000
0000
0000
0FE0
3FF0
7038
600C
C00E
C006
C006
C006
C006
C006
E00E
601E
783E
3FF6
0FC6
0000
0000
0000
0380
0380
0300
ENDCHAR
STARTCHAR 1EAE
ENCODING 7854
SWIDTH 720 0
DWIDTH 20 0
BBX 18 34 1 0
BITMAP
001000
003800
007000
00E000
00C000
000000
0C1800
061800
07F000
01E000
000000
000000
008000
00C000
01C000
01E000
03E000
033000
073000
063800
061800
0C1800
0C0C00
1C0C00
180E00
180600
300700
3FFF00
7FFF00
600380
E00180
C001C0
C000C0
8000C0
ENDCHAR
STARTCHAR 1EAF
ENCODING 7855
SWIDTH 684 0
DWIDTH 19 0
BBX 15 27 2 0
BITMAP
0060
00E0
01C0
0380
0300
1820
1830
1EE0
0FE0
0000
0000
0000
0FE0
3FF0
7038
600C
C00E
C006
C006
C006
C006
C006
E00E
601E
783E
3FF6
0FC6
ENDCHAR
STARTCHAR 1EB0
ENCODING 7856
SWIDTH 720 0
DWIDTH 20 0
BBX 18 34 1 0
BITMAP
060000
070000
038000
01C000
00C000
000000
0C1800
061800
07F000
01E000
000000
000000
008000
00C000
01C000
01E000
03E000
033000
073000
063800
061800
0C1800
0C0C00
1C0C00
180E00
180600
300700
3FFF00
7FFF00
600380
E00180
C001C0
C000C0
8000C0
ENDCHAR
STARTCHAR 1EB1
ENCODING 7857
SWIDTH 684 0
DWIDTH 19 0
BBX 15 28 2 0
BITMAP
0800
1C00
0E00
0700
0300
0100
1820
1830
1EE0
0FE0
0000
0000
0000
0FE0
3FF0
7038
600C
C00E
C006
C006
C006
C006
C006
E00E
601E
783E
3FF6
0FC6
ENDCHAR
STARTCHAR 1EB2
ENCODING 7858
SWIDTH 720 0
DWIDTH 20 0
BBX 18 35 1 0
BITMAP
01E000
03F000
003000
003000
00F000
00C000
00C000
0C1800
061800
07F000
01E000
000000
000000
008000
00C000
01C000
01E000
03E000
033000
073000
063800
061800
0C1800
0C0C00
1C0C00
180E00
180600
300700
3FFF00
7FFF00
600380
E00180
C001C0
C000C0
8000C0
ENDCHAR
STARTCHAR 1EB3
ENCODING 7859
SWIDTH 684 0
DWIDTH 19 0
BBX 15 29 2 0
BITMAP
0100
07C0
0660
0060
00E0
03C0
0300
1920
1830
1EE0
0FE0
0000
0000
0000
0FE0
3FF0
7038
600C
C00E
C006
C006
C006
C006
C006
E00E
601E
783E
3FF6
0FC6
ENDCHAR
STARTCHAR 1EB4
ENCODING 7860
SWIDTH 720 0
DWIDTH 20 0
BBX 18 33 1 0
BITMAP
030000
079800
0EF800
0C7000
000000
0C1800
061800
07F000
01E000
000000
000000
008000
00C000
01C000
01E000
03E000
033000
073000
063800
061800
0C1800
0C0C00
1C0C00
180E00
180600
300700
3FFF00
7FFF00
600380
E00180
C001C0
C000C0
8000C0
ENDCHAR
STARTCHAR 1EB5
ENCODING 7861
SWIDTH 684 0
DWIDTH 19 0
BBX 15 26 2 0
BITMAP
0E20
1FF0
19E0
0040
1830
1830
1EE0
0FE0
0000
0000
0000
0FE0
3FF0
7038
600C
C00E
C006
C006
C006
C006
C006
E00E
601E
783E
3FF6
0FC6
ENDCHAR
STARTCHAR 1EB6
ENCODING 7862
SWIDTH 720 0
DWIDTH 20 0
BBX 18 34 1 -6
BITMAP
0C1800
061800
07F000
01E000
000000
000000
008000
00C000
01C000
01E000
03E000
033000
073000
063800
061800
0C1800
0C0C00
1C0C00
180E00
180600
300700
3FFF00
7FFF00
600380
E00180
C001C0
C000C0
8000C0
000000
000000
000000
01C000
01C000
00C000
ENDCHAR
STARTCHAR 1EB7
ENCODING 7863
SWIDTH 684 0
DWIDTH 19 0
BBX 15 28 2 -6
BITMAP
1820
1830
1EE0
0FE0
0000
0000
0000
0FE0
3FF0
7038
600C
C00E
C006
C006
C006
C006
C006
E00E
601E
783E
3FF6
0FC6
0000
0000
0000
0380
0380
0300
ENDCHAR
STARTCHAR 1EB8
ENCODING 7864
SWIDTH 684 0
DWIDTH 19 0
BBX 15 28 3 -6
BITMAP
FFFE
FFFE
C000
C000
C000
C000
C000
C000
C000
C000
FFF0
FFF0
C000
C000
C000
C000
C000
C000
C000
C000
FFFE
FFFE
0000
0000
0000
0300
0780
0300
ENDCHAR
STARTCHAR 1EB9
ENCODING 7865
SWIDTH 612 0
DWIDTH 17 0
BBX 14 21 2 -6
BITMAP
1FC0
3FF0
7038
6018
C01C
C00C
FFFC
FFFC
C000
C000
C000
6000
7038
3FF0
0FE0
0000
0000
0000
0300
0700
0300
ENDCHAR
STARTCHAR 1EBA
ENCODING 7866
SWIDTH 684 0
DWIDTH 19 0
BBX 15 30 3 0
BITMAP
07C0
07E0
0060
0060
01C0
0100
0100
0000
FFFE
FFFE
C000
C000
C000
C000
C000
C000
C000
C000
FFF0
FFF0
C000
C000
C000
C000
C000
C000
C000
C000
FFFE
FFFE
ENDCHAR
STARTCHAR 1EBB
ENCODING 7867
SWIDTH 612 0
DWIDTH 17 0
BBX 14 24 2 0
BITMAP
0780
0FC0
00C0
00C0
01C0
0380
0300
0000
0000
1FC0
3FF0
7038
6018
C01C
C00C
FFFC
FFFC
C000
C000
C000
6000
7038
3FF0
0FE0
ENDCHAR
STARTCHAR 1EBC
ENCODING 7868
SWIDTH 684 0
DWIDTH 19 0
BBX 15 27 3 0
BITMAP
0F88
1FFC
10F8
0000
0000
FFFE
FFFE
C000
C000
C000
C000
C000
C000
C000
C000
FFF0
FFF0
C000
C000
C000
C000
C000
C000
C000
C000
FFFE
FFFE
ENDCHAR
STARTCHAR 1EBD
ENCODING 7869
SWIDTH 612 0
DWIDTH 17 0
BBX 14 21 2 0
BITMAP
0E00
3F98
31F0
2040
0000
0000
1FC0
3FF0
7038
6018
C01C
C00C
FFFC
FFFC
C000
C000
C000
6000
7038
3FF0
0FE0
ENDCHAR
STARTCHAR 1EBE
ENCODING 7870
SWIDTH 684 0
DWIDTH 19 0
BBX 15 34 3 0
BITMAP
000C
001C
0038
0070
0060
0000
0380
0FE0
1EF0
1830
0000
0000
FFFE
FFFE
C000
C000
C000
C000
C000
C000
C000
C000
FFF0
FFF0
C000
C000
C000
C000
C000
C000
C000
C000
FFFE
FFFE
ENDCHAR
STARTCHAR 1EBF
ENCODING 7871
SWIDTH 612 0
DWIDTH 17 0
BBX 14 27 2 0
BITMAP
0018
0038
0070
00E0
0040
0300
0F80
1FE0
18E0
0000
0000
0000
1FC0
3FF0
7038
6018
C01C
C00C
FFFC
FFFC
C000
C000
C000
6000
7038
3FF0
0FE0
ENDCHAR
STARTCHAR 1EC0
ENCODING 7872
SWIDTH 684 0
DWIDTH 19 0
BBX 15 34 3 0
BITMAP
0300
0380
01C0
00E0
0060
0000
0380
0FE0
1EF0
1830
0000
0000
FFFE
FFFE
C000
C000
C000
C000
C000
C000
C000
C000
FFF0
FFF0
C000
C000
C000
C000
C000
C000
C000
C000
FFFE
FFFE
ENDCHAR
STARTCHAR 1EC1
ENCODING 7873
SWIDTH 612 0
DWIDTH 17 0
BBX 14 28 2 0
BITMAP
0200
0700
0380
01C0
00E0
0040
0300
0F80
1FE0
18E0
0000
0000
0000
1FC0
3FF0
7038
6018
C01C
C00C
FFFC
FFFC
C000
C000
C000
6000
7038
3FF0
0FE0
ENDCHAR
STARTCHAR 1EC2
ENCODING 7874
SWIDTH 684 0
DWIDTH 19 0
BBX 15 35 3 0
BITMAP
0078
00FC
000C
000C
0038
0060
0060
0380
07E0
1E70
0830
0000
0000
FFFE
FFFE
C000
C000
C000
C000
C000
C000
C000
C000
FFF0
FFF0
C000
C000
C000
C000
C000
C000
C000
C000
FFFE
FFFE
ENDCHAR
STARTCHAR 1EC3
ENCODING 7875
SWIDTH 612 0
DWIDTH 17 0
BBX 14 29 2 0
BITMAP
0060
01F0
0198
0018
0038
0070
0060
0340
0780
1FE0
18E0
0000
0000
0000
1FC0
3FF0
7038
6018
C01C
C00C
FFFC
FFFC
C000
C000
C000
6000
7038
3FF0
0FE0
ENDCHAR
STARTCHAR 1EC4
ENCODING 7876
SWIDTH 684 0
DWIDTH 19 0
BBX 15 33 3 0
BITMAP
0400
0F30
19E0
18E0
0000
0380
07E0
1E70
0830
0000
0000
FFFE
FFFE
C000
C000
C000
C000
C000
C000
C000
C000
FFF0
FFF0
C000
C000
C000
C000
C000
C000
C000
C000
FFFE
FFFE
ENDCHAR
STARTCHAR 1EC5
ENCODING 7877
SWIDTH 612 0
DWIDTH 17 0
BBX 14 26 2 0
BITMAP
1E60
1FE0
33C0
0000
0300
0780
1FE0
18E0
0000
0000
0000
1FC0
3FF0
7038
6018
C01C
C00C
FFFC
FFFC
C000
C000
C000
6000
7038
3FF0
0FE0
ENDCHAR
STARTCHAR 1EC6
ENCODING 7878
SWIDTH 684 0
DWIDTH 19 0
BBX 15 34 3 -6
BITMAP
0380
0FE0
1EF0
1830
0000
0000
FFFE
FFFE
C000
C000
C000
C000
C000
C000
C000
C000
FFF0
FFF0
C000
C000
C000
C000
C000
C000
C000
C000
FFFE
FFFE
0000
0000
0000
0300
0780
0300
ENDCHAR
STARTCHAR 1EC7
ENCODING 7879
SWIDTH 612 0
DWIDTH 17 0
BBX 14 28 2 -6
BITMAP
0300
0F80
1FE0
18E0
0000
0000
0000
1FC0
3FF0
7038
6018
C01C
C00C
FFFC
FFFC
C000
C000
C000
6000
7038
3FF0
0FE0
0000
0000
0000
0300
0700
0300
ENDCHAR
STARTCHAR 1EC8
ENCODING 7880
SWIDTH 288 0
DWIDTH 8 0
BBX 6 30 1 0
BITMAP
7C
FC
04
0C
3C
30
30
00
20
30
30
30
30
30
30
30
30
30
30
30
30
30
30
30
30
30
30
30
30
30
ENDCHAR
STARTCHAR 1EC9
ENCODING 7881
SWIDTH 288 0
DWIDTH 8 0
BBX 5 24 2 0
BITMAP
70
F8
88
08
38
70
60
00
00
60
60
60
60
60
60
60
60
60
60
60
60
60
60
60
ENDCHAR
STARTCHAR 1ECA
ENCODING 7882
SWIDTH 288 0
DWIDTH 8 0
BBX 3 28 2 -6
BITMAP
40
60
60
60
60
60
60
60
60
60
60
60
60
60
60
60
60
60
60
60
60
60
00
00
00
60
E0
60
ENDCHAR
STARTCHAR 1ECB
ENCODING 7883
SWIDTH 288 0
DWIDTH 8 0
BBX 4 27 2 -6
BITMAP
60
F0
60
00
00
00
60
60
60
60
60
60
60
60
60
60
60
60
60
60
60
00
00
00
60
E0
60
ENDCHAR
STARTCHAR 1ECC
ENCODING 7884
SWIDTH 936 0
DWIDTH 26 0
BBX 22 28 2 -6
BITMAP
01FC00
07FF80
0F07C0
1C00E0
380070
700030
600018
E00018
C0001C
C0000C
C0000C
C0000C
C0000C
C0001C
C00018
E00018
600038
300070
3800E0
1E03C0
0FFF80
01FE00
000000
000000
000000
007000
007000
003000
ENDCHAR
STARTCHAR 1ECD
ENCODING 7885
SWIDTH 684 0
DWIDTH 19 0
BBX 15 21 2 -6
BITMAP
0FE0
3FF8
7038
600C
C00E
C006
C006
C006
C006
C006
E00E
601C
7838
3FF0
0FE0
0000
0000
0000
0380
0380
0300
ENDCHAR
STARTCHAR 1ECE
ENCODING 7886
SWIDTH 936 0
DWIDTH 26 0
BBX 22 30 2 0
BITMAP
007800
00FC00
000C00
000C00
003800
003000
002000
000000
01FC00
07FF80
0F07C0
1C00E0
380070
700030
600018
E00018
C0001C
C0000C
C0000C
C0000C
C0000C
C0001C
C00018
E00018
600038
300070
3800E0
1E03C0
0FFF80
01FE00
ENDCHAR
STARTCHAR 1ECF
ENCODING 7887
SWIDTH 684 0
DWIDTH 19 0
BBX 15 24 2 0
BITMAP
0380
07C0
0060
0060
01E0
0380
0300
0000
0000
0FE0
3FF8
7038
600C
C00E
C006
C006
C006
C006
C006
E00E
601C
7838
3FF0
0FE0
ENDCHAR
STARTCHAR 1ED0
ENCODING 7888
SWIDTH 936 0
DWIDTH 26 0
BBX 22 34 2 0
BITMAP
000180
000380
000780
000F00
000E00
000000
007000
00FC00
01CE00
010600
000000
000000
01FC00
07FF80
0F07C0
1C00E0
380070
700030
600018
E00018
C0001C
C0000C
C0000C
C0000C
C0000C
C0001C
C00018
E00018
600038
300070
3800E0
1E03C0
0FFF80
01FE00
ENDCHAR
STARTCHAR 1ED1
ENCODING 7889
SWIDTH 684 0
DWIDTH 19 0
BBX 15 27 2 0
BITMAP
000C
001C
0038
0070
0060
0100
07C0
0EE0
1C70
0000
0000
0000
0FE0
3FF8
7038
600C
C00E
C006
C006
C006
C006
C006
E00E
601C
7838
3FF0
0FE0
ENDCHAR
STARTCHAR 1ED2
ENCODING 7890
SWIDTH 936 0
DWIDTH 26 0
BBX 22 34 2 0
BITMAP
006000
007000
003800
001C00
000C00
000000
007000
00FC00
01CE00
010600
000000
000000
01FC00
07FF80
0F07C0
1C00E0
380070
700030
600018
E00018
C0001C
C0000C
C0000C
C0000C
C0000C
C0001C
C00018
E00018
600038
300070
3800E0
1E03C0
0FFF80
01FE00
ENDCHAR
STARTCHAR 1ED3
ENCODING 7891
SWIDTH 684 0
DWIDTH 19 0
BBX 15 27 2 1
BITMAP
0380
03C0
01E0
0060
0000
0100
07C0
0EE0
1C70
0000
0000
0000
0FE0
3FF8
7038
600C
C00E
C006
C006
C006
C006
C006
E00E
601C
7838
3FF0
0FE0
ENDCHAR
STARTCHAR 1ED4
ENCODING 7892
SWIDTH 936 0
DWIDTH 26 0
BBX 22 35 2 0
BITMAP
000F00
001F80
000180
000180
000780
000600
000400
007000
00FC00
01CE00
018600
000000
000000
01FC00
07FF80
0F07C0
1C00E0
380070
700030
600018
E00018
C0001C
C0000C
C0000C
C0000C
C0000C
C0001C
C00018
E00018
600038
300070
3800E0
1E03C0
0FFF80
01FE00
ENDCHAR
STARTCHAR 1ED5
ENCODING 7893
SWIDTH 684 0
DWIDTH 19 0
BBX 15 29 2 0
BITMAP
0020
00F8
00DC
000C
0018
0078
0060
0120
07C0
0EE0
1C70
0000
0000
0000
0FE0
3FF8
7038
600C
C00E
C006
C006
C006
C006
C006
E00E
601C
7838
3FF0
0FE0
ENDCHAR
STARTCHAR 1ED6
ENCODING 7894
SWIDTH 936 0
DWIDTH 26 0
BBX 22 33 2 0
BITMAP
004000
01E600
033E00
031C00
000000
007000
00FC00
01CE00
018600
000000
000000
01FC00
07FF80
0F07C0
1C00E0
380070
700030
600018
E00018
C0001C
C0000C
C0000C
C0000C
C0000C
C0001C
C00018
E00018
600038
300070
3800E0
1E03C0
0FFF80
01FE00
ENDCHAR
STARTCHAR 1ED7
ENCODING 7895
SWIDTH 684 0
DWIDTH 19 0
BBX 15 26 2 0
BITMAP
0E20
1FE0
19E0
0000
0100
07C0
0EE0
1C70
0000
0000
0000
0FE0
3FF8
7038
600C
C00E
C006
C006
C006
C006
C006
E00E
601C
7838
3FF0
0FE0
ENDCHAR
STARTCHAR 1ED8
ENCODING 7896
SWIDTH 936 0
DWIDTH 26 0
BBX 22 34 2 -6
BITMAP
007000
00FC00
01CE00
010600
000000
000000
01FC00
07FF80
0F07C0
1C00E0
380070
700030
600018
E00018
C0001C
C0000C
C0000C
C0000C
C0000C
C0001C
C00018
E00018
600038
300070
3800E0
1E03C0
0FFF80
01FE00
000000
000000
000000
007000
007000
003000
ENDCHAR
STARTCHAR 1ED9
ENCODING 7897
SWIDTH 684 0
DWIDTH 19 0
BBX 15 28 2 -6
BITMAP
0100
07C0
0EE0
1C70
0000
0000
0000
0FE0
3FF8
7038
600C
C00E
C006
C006
C006
C006
C006
E00E
601C
7838
3FF0
0FE0
0000
0000
0000
0380
0380
0300
ENDCHAR
STARTCHAR 1EDA
ENCODING 7898
SWIDTH 936 0
DWIDTH 26 0
BBX 22 29 2 0
BITMAP
000E00
001C00
003C00
003800
003000
000010
000030
01FC30
07FFF0
0F07E0
1C00E0
380070
700038
600018
E00018
C0001C
C0000C
C0000C
C0000C
C0000C
C0001C
C00018
E00018
600038
300070
3800E0
1E03C0
0FFF80
01FE00
ENDCHAR
STARTCHAR 1EDB
ENCODING 7899
SWIDTH 684 0
DWIDTH 19 0
BBX 15 23 2 0
BITMAP
0020
0060
00E0
01C0
0380
0002
0006
0006
0FFE
3FFC
7038
600C
C00E
C006
C006
C006
C006
C006
E00E
601C
7838
3FF0
0FE0
ENDCHAR
STARTCHAR 1EDC
ENCODING 7900
SWIDTH 936 0
DWIDTH 26 0
BBX 22 29 2 0
BITMAP
018000
01C000
00E000
007000
003000
000010
000030
01FC30
07FFF0
0F07E0
1C00E0
380070
700038
600018
E00018
C0001C
C0000C
C0000C
C0000C
C0000C
C0001C
C00018
E00018
600038
300070
3800E0
1E03C0
0FFF80
01FE00
ENDCHAR
STARTCHAR 1EDD
ENCODING 7901
SWIDTH 684 0
DWIDTH 19 0
BBX 15 23 2 0
BITMAP
1800
1C00
0E00
0700
0300
0002
0006
0006
0FFE
3FFC
7038
600C
C00E
C006
C006
C006
C006
C006
E00E
601C
7838
3FF0
0FE0
ENDCHAR
STARTCHAR 1EDE
ENCODING 7902
SWIDTH 936 0
DWIDTH 26 0
BBX 22 30 2 0
BITMAP
007800
00FC00
000C00
000C00
003800
003000
002010
000030
01FC30
07FFF0
0F07E0
1C00E0
380070
700038
600018
E00018
C0001C
C0000C
C0000C
C0000C
C0000C
C0001C
C00018
E00018
600038
300070
3800E0
1E03C0
0FFF80
01FE00
ENDCHAR
STARTCHAR 1EDF
ENCODING 7903
SWIDTH 684 0
DWIDTH 19 0
BBX 15 24 2 0
BITMAP
0380
07C0
0060
0060
01E0
0380
0302
0006
0006
0FFE
3FFC
7038
600C
C00E
C006
C006
C006
C006
C006
E00E
601C
7838
3FF0
0FE0
ENDCHAR
STARTCHAR 1EE0
ENCODING 7904
SWIDTH 936 0
DWIDTH 26 0
BBX 22 27 2 0
BITMAP
01F180
03FF80
030F00
000010
000030
01FC30
07FFF0
0F07E0
1C00E0
380070
700038
600018
E00018
C0001C
C0000C
C0000C
C0000C
C0000C
C0001C
C00018
E00018
600038
300070
3800E0
1E03C0
0FFF80
01FE00
ENDCHAR
STARTCHAR 1EE1
ENCODING 7905
SWIDTH 684 0
DWIDTH 19 0
BBX 15 21 2 0
BITMAP
0F00
1F98
39F8
1062
0006
0006
0FFE
3FFC
7038
600C
C00E
C006
C006
C006
C006
C006
E00E
601C
7838
3FF0
0FE0
ENDCHAR
STARTCHAR 1EE2
ENCODING 7906
SWIDTH 936 0
DWIDTH 26 0
BBX 22 30 2 -6
BITMAP
000010
000030
01FC30
07FFF0
0F07E0
1C00E0
380070
700038
600018
E00018
C0001C
C0000C
C0000C
C0000C
C0000C
C0001C
C00018
E00018
600038
300070
3800E0
1E03C0
0FFF80
01FE00
000000
000000
000000
007000
007000
003000
ENDCHAR
STARTCHAR 1EE3
ENCODING 7907
SWIDTH 684 0
DWIDTH 19 0
BBX 15 24 2 -6
BITMAP
0002
0006
0006
0FFE
3FFC
7038
600C
C00E
C006
C006
C006
C006
C006
E00E
601C
7838
3FF0
0FE0
0000
0000
0000
0380
0380
0300
ENDCHAR
STARTCHAR 1EE4
ENCODING 7908
SWIDTH 828 0
DWIDTH 23 0
BBX 17 28 3 -6
BITMAP
800100
C00180
C00180
C00180
C00180
C00180
C00180
C00180
C00180
C00180
C00180
C00180
C00180
C00180
C00180
C00180
C00180
E00300
600700
780E00
3FFC00
0FF800
000000
000000
000000
01C000
01C000
008000
ENDCHAR
STARTCHAR 1EE5
ENCODING 7909
SWIDTH 684 0
DWIDTH 19 0
BBX 14 21 2 -6
BITMAP
C00C
C00C
C00C
C00C
C00C
C00C
C00C
C00C
C00C
E00C
600C
601C
783C
3FFC
0FCC
0000
0000
0000
0380
0380
0300
ENDCHAR
STARTCHAR 1EE6
ENCODING 7910
SWIDTH 828 0
DWIDTH 23 0
BBX 17 30 3 0
BITMAP
03E000
037000
003000
003000
00E000
018000
008000
000000
800100
C00180
C00180
C00180
C00180
C00180
C00180
C00180
C00180
C00180
C00180
C00180
C00180
C00180
C00180
C00180
C00180
E00300
600700
780E00
3FFC00
0FF800
ENDCHAR
STARTCHAR 1EE7
ENCODING 7911
SWIDTH 684 0
DWIDTH 19 0
BBX 14 24 2 0
BITMAP
0380
07C0
0060
0060
01E0
0380
0300
0000
0000
C00C
C00C
C00C
C00C
C00C
C00C
C00C
C00C
C00C
E00C
600C
601C
783C
3FFC
0FCC
ENDCHAR
STARTCHAR 1EE8
ENCODING 7912
SWIDTH 828 0
DWIDTH 23 0
BBX 20 29 3 0
BITMAP
003000
007000
00E000
01C000
018010
000030
000030
8001F0
C001E0
C00180
C00180
C00180
C00180
C00180
C00180
C00180
C00180
C00180
C00180
C00180
C00180
C00180
C00180
C00180
E00300
600700
780E00
3FFC00
0FF800
ENDCHAR
STARTCHAR 1EE9
ENCODING 7913
SWIDTH 684 0
DWIDTH 19 0
BBX 18 23 2 0
BITMAP
002000
006000
00E000
01C000
038000
0000C0
0000C0
000180
C00F80
C00F00
C00C00
C00C00
C00C00
C00C00
C00C00
C00C00
C00C00
E00C00
600C00
601C00
783C00
3FFC00
0FCC00
ENDCHAR
STARTCHAR 1EEA
ENCODING 7914
SWIDTH 828 0
DWIDTH 23 0
BBX 20 29 3 0
BITMAP
0E0000
070000
038000
018000
008010
000030
000030
8001F0
C001E0
C00180
C00180
C00180
C00180
C00180
C00180
C00180
C00180
C00180
C00180
C00180
C00180
C00180
C00180
C00180
E00300
600700
780E00
3FFC00
0FF800
ENDCHAR
STARTCHAR 1EEB
ENCODING 7915
SWIDTH 684 0
DWIDTH 19 0
BBX 18 23 2 0
BITMAP
180000
1C0000
0E0000
070000
030000
0000C0
0000C0
000180
C00F80
C00F00
C00C00
C00C00
C00C00
C00C00
C00C00
C00C00
C00C00
E00C00
600C00
601C00
783C00
3FFC00
0FCC00
ENDCHAR
STARTCHAR 1EEC
ENCODING 7916
SWIDTH 828 0
DWIDTH 23 0
BBX 20 30 3 0
BITMAP
03E000
037000
003000
003000
00E000
018010
008030
000030
8001F0
C001E0
C00180
C00180
C00180
C00180
C00180
C00180
C00180
C00180
C00180
C00180
C00180
C00180
C00180
C00180
C00180
E00300
600700
780E00
3FFC00
0FF800
ENDCHAR
STARTCHAR 1EED
ENCODING 7917
SWIDTH 684 0
DWIDTH 19 0
BBX 18 24 2 0
BITMAP
038000
07C000
006000
006000
01E000
038000
0300C0
0000C0
000180
C00F80
C00F00
C00C00
C00C00
C00C00
C00C00
C00C00
C00C00
C00C00
E00C00
600C00
601C00
783C00
3FFC00
0FCC00
ENDCHAR
STARTCHAR 1EEE
ENCODING 7918
SWIDTH 828 0
DWIDTH 23 0
BBX 20 27 3 0
BITMAP
0F8400
1FFC00
187810
000030
000030
8001F0
C001E0
C00180
C00180
C00180
C00180
C00180
C00180
C00180
C00180
C00180
C00180
C00180
C00180
C00180
C00180
C00180
E00300
600700
780E00
3FFC00
0FF800
ENDCHAR
STARTCHAR 1EEF
ENCODING 7919
SWIDTH 684 0
DWIDTH 19 0
BBX 18 21 2 0
BITMAP
070000
1F9800
39F800
0060C0
0000C0
000180
C00F80
C00F00
C00C00
C00C00
C00C00
C00C00
C00C00
C00C00
C00C00
E00C00
600C00
601C00
783C00
3FFC00
0FCC00
ENDCHAR
STARTCHAR 1EF0
ENCODING 7920
SWIDTH 828 0
DWIDTH 23 0
BBX 20 31 3 -6
BITMAP
000010
000030
000030
8001F0
C001E0
C00180
C00180
C00180
C00180
C00180
C00180
C00180
C00180
C00180
C00180
C00180
C00180
C00180
C00180
C00180
E00300
600700
780E00
3FFC00
0FF800
000000
000000
000000
01C000
01C000
008000
ENDCHAR
STARTCHAR 1EF1
ENCODING 7921
SWIDTH 684 0
DWIDTH 19 0
BBX 18 24 2 -6
BITMAP
0000C0
0000C0
000180
C00F80
C00F00
C00C00
C00C00
C00C00
C00C00
C00C00
C00C00
C00C00
E00C00
600C00
601C00
783C00
3FFC00
0FCC00
000000
000000
000000
038000
038000
030000
ENDCHAR
STARTCHAR 1EF2
ENCODING 7922
SWIDTH 648 0
DWIDTH 18 0
BBX 18 29 0 0
BITMAP
060000
070000
038000
01C000
00C000
000000
000000
400080
E000C0
600180
700380
300300
180600
1C0E00
0C0C00
0E1C00
061800
033000
03F000
01E000
00C000
00C000
00C000
00C000
00C000
00C000
00C000
00C000
00C000
ENDCHAR
STARTCHAR 1EF3
ENCODING 7923
SWIDTH 540 0
DWIDTH 15 0
BBX 14 30 1 -7
BITMAP
1800
1C00
1E00
0F00
0700
0000
0000
0000
C00C
C00C
C018
6018
6030
3030
3060
1860
18E0
0CC0
0DC0
0780
0780
0300
0300
0600
0600
0C00
0C00
1C00
1800
0800
ENDCHAR
STARTCHAR 1EF4
ENCODING 7924
SWIDTH 648 0
DWIDTH 18 0
BBX 18 28 0 -6
BITMAP
400080
E000C0
600180
700380
300300
180600
1C0E00
0C0C00
0E1C00
061800
033000
03F000
01E000
00C000
00C000
00C000
00C000
00C000
00C000
00C000
00C000
00C000
000000
000000
000000
00C000
01C000
00C000
ENDCHAR
STARTCHAR 1EF5
ENCODING 7925
SWIDTH 540 0
DWIDTH 15 0
BBX 14 22 1 -7
BITMAP
C00C
C00C
C018
6018
6030
3030
3060
1860
18E0
0CC0
0DC0
0780
0780
0300
0300
0600
0600
0C00
0CE0
1CE0
1840
0800
ENDCHAR
STARTCHAR 1EF6
ENCODING 7926
SWIDTH 648 0
DWIDTH 18 0
BBX 18 30 0 0
BITMAP
01F000
01B000
001800
003000
00F000
00C000
00C000
000000
400080
E000C0
600180
700380
300300
180600
1C0E00
0C0C00
0E1C00
061800
033000
03F000
01E000
00C000
00C000
00C000
00C000
00C000
00C000
00C000
00C000
00C000
ENDCHAR
STARTCHAR 1EF7
ENCODING 7927
SWIDTH 540 0
DWIDTH 15 0
BBX 14 31 1 -7
BITMAP
0780
0FC0
00C0
00C0
01C0
0380
0300
0000
0000
C00C
C00C
C018
6018
6030
3030
3060
1860
18E0
0CC0
0DC0
0780
0780
0300
0300
0600
0600
0C00
0C00
1C00
1800
0800
ENDCHAR
STARTCHAR 1EF8
ENCODING 7928
SWIDTH 648 0
DWIDTH 18 0
BBX 18 27 0 0
BITMAP
07C200
0FFE00
0C3C00
000000
000000
400080
E000C0
600180
700380
300300
180600
1C0E00
0C0C00
0E1C00
061800
033000
03F000
01E000
00C000
00C000
00C000
00C000
00C000
00C000
00C000
00C000
00C000
ENDCHAR
STARTCHAR 1EF9
ENCODING 7929
SWIDTH 540 0
DWIDTH 15 0
BBX 14 28 1 -7
BITMAP
0E00
3F98
31F0
2040
0000
0000
C00C
C00C
C018
6018
6030
3030
3060
1860
18E0
0CC0
0DC0
0780
0780
0300
0300
0600
0600
0C00
0C00
1C00
1800
0800
ENDCHAR
STARTCHAR 2010
ENCODING 8208
SWIDTH 396 0
DWIDTH 11 0
BBX 9 2 1 7
BITMAP
7F00
FF80
ENDCHAR
STARTCHAR 2013
ENCODING 8211
SWIDTH 396 0
DWIDTH 11 0
BBX 13 2 -1 7
BITMAP
FFF0
FFF8
ENDCHAR
STARTCHAR 2014
ENCODING 8212
SWIDTH 936 0
DWIDTH 26 0
BBX 28 2 -1 7
BITMAP
FFFFFFF0
FFFFFFF0
ENDCHAR
STARTCHAR 2015
ENCODING 8213
SWIDTH 720 0
DWIDTH 20 0
BBX 22 2 -1 7
BITMAP
FFFFF8
FFFFFC
ENDCHAR
STARTCHAR 2017
ENCODING 8215
SWIDTH 468 0
DWIDTH 13 0
BBX 15 6 -1 -6
BITMAP
FFFE
FFFE
0000
0000
FFFE
FFFE
ENDCHAR
STARTCHAR 2018
ENCODING 8216
SWIDTH 216 0
DWIDTH 6 0
BBX 3 7 2 15
BITMAP
20
60
E0
C0
C0
E0
E0
ENDCHAR
STARTCHAR 2019
ENCODING 8217
SWIDTH 180 0
DWIDTH 5 0
BBX 3 7 0 15
BITMAP
60
E0
E0
60
60
C0
C0
ENDCHAR
STARTCHAR 201A
ENCODING 8218
SWIDTH 252 0
DWIDTH 7 0
BBX 3 7 2 -5
BITMAP
40
E0
E0
E0
C0
C0
80
ENDCHAR
STARTCHAR 201B
ENCODING 8219
SWIDTH 216 0
DWIDTH 6 0
BBX 3 7 2 15
BITMAP
C0
E0
E0
C0
C0
60
60
ENDCHAR
STARTCHAR 201C
ENCODING 8220
SWIDTH 288 0
DWIDTH 8 0
BBX 8 7 0 16
BITMAP
33
66
66
66
E6
66
22
ENDCHAR
STARTCHAR 201D
ENCODING 8221
SWIDTH 288 0
DWIDTH 8 0
BBX 7 7 0 15
BITMAP
88
CC
CC
66
66
EE
EE
ENDCHAR
STARTCHAR 201E
ENCODING 8222
SWIDTH 288 0
DWIDTH 8 0
BBX 7 8 1 -5
BITMAP
44
EE
EE
EE
EC
CC
C8
88
ENDCHAR
STARTCHAR 2020
ENCODING 8224
SWIDTH 540 0
DWIDTH 15 0
BBX 13 29 1 -7
BITMAP
0200
0700
0700
0700
0700
0700
0700
FFF8
FFF8
0700
0700
0700
0700
0700
0700
0700
0700
0700
0700
0700
0700
0700
0700
0700
0700
0700
0700
0700
0200
ENDCHAR
STARTCHAR 2021
ENCODING 8225
SWIDTH 540 0
DWIDTH 15 0
BBX 13 29 1 -7
BITMAP
0200
0700
0700
0700
0700
0700
0700
FFF8
FFF8
0700
0700
0700
0700
0700
0700
0700
0700
0700
0700
0700
FFF8
FFF8
0700
0700
0700
0700
0700
0700
0200
ENDCHAR
STARTCHAR 2022
ENCODING 8226
SWIDTH 396 0
DWIDTH 11 0
BBX 7 6 2 8
BITMAP
38
7C
FE
FE
FC
7C
ENDCHAR
STARTCHAR 2026
ENCODING 8230
SWIDTH 720 0
DWIDTH 20 0
BBX 16 3 1 0
BITMAP
E1C7
E1C7
6187
ENDCHAR
STARTCHAR 2030
ENCODING 8240
SWIDTH 1296 0
DWIDTH 36 0
BBX 34 22 1 0
BITMAP
0C00200000
3F80700000
7BC0E00000
E0C0C00000
C0E1C00000
C063800000
C067000000
E0E6000000
71CE000000
3F9C000000
1F38000000
0071C01C00
0067F07F00
00EF38F380
01CC1CC1C0
039C0CC0C0
07180DC0C0
071C0CC0C0
0E0C1CC0C0
1C0E38E380
3807F07F80
1003E01E00
ENDCHAR
STARTCHAR 2032
ENCODING 8242
SWIDTH 180 0
DWIDTH 5 0
BBX 3 6 1 16
BITMAP
20
60
60
C0
C0
80
ENDCHAR
STARTCHAR 2033
ENCODING 8243
SWIDTH 360 0
DWIDTH 10 0
BBX 8 6 1 16
BITMAP
22
67
66
66
CC
CC
ENDCHAR
STARTCHAR 2039
ENCODING 8249
SWIDTH 288 0
DWIDTH 8 0
BBX 5 15 1 0
BITMAP
18
18
38
30
70
60
E0
C0
E0
60
70
30
38
18
08
ENDCHAR
STARTCHAR 203A
ENCODING 8250
SWIDTH 288 0
DWIDTH 8 0
BBX 5 15 1 0
BITMAP
C0
E0
60
70
30
38
18
18
18
38
30
70
60
E0
C0
ENDCHAR
STARTCHAR 203C
ENCODING 8252
SWIDTH 396 0
DWIDTH 11 0
BBX 9 22 1 0
BITMAP
6100
6380
6380
6380
6380
6380
6380
6380
6380
6380
6380
6380
6380
6380
6380
6380
6300
0000
0000
6380
F380
6380
ENDCHAR
STARTCHAR 203E
ENCODING 8254
SWIDTH 468 0
DWIDTH 13 0
BBX 15 2 -1 24
BITMAP
FFFE
FFFE
ENDCHAR
STARTCHAR 2044
ENCODING 8260
SWIDTH 324 0
DWIDTH 9 0
BBX 15 22 -3 0
BITMAP
0006
0006
000C
0018
0018
0030
0060
0060
00C0
01C0
0180
0300
0700
0600
0C00
1C00
1800
3000
7000
6000
C000
C000
ENDCHAR
STARTCHAR 2052
ENCODING 8274
SWIDTH 792 0
DWIDTH 22 0
BBX 18 22 3 0
BITMAP
300080
7C01C0
7C0380
7C0300
7C0700
300E00
001C00
001800
003800
007000
00E000
01C000
018000
038000
070000
0E0000
1C0000
1C0780
380F80
700F80
E00F80
400700
ENDCHAR
STARTCHAR 2074
ENCODING 8308
SWIDTH 396 0
DWIDTH 11 0
BBX 9 11 1 11
BITMAP
0200
0600
0E00
1A00
3200
3200
6200
FF80
FF80
0200
0200
ENDCHAR
STARTCHAR 20A1
ENCODING 8353
SWIDTH 756 0
DWIDTH 21 0
BBX 18 26 2 -2
BITMAP
000200
000300
01FF00
07FF00
0F0780
1C0DC0
380C00
701C00
601800
E01800
C03000
C03000
C06000
C06000
C0E000
C0C000
C0C000
618000
618000
338000
3B0080
1F03C0
07FF80
07FE00
0E0000
040000
ENDCHAR
STARTCHAR 20A3
ENCODING 8355
SWIDTH 756 0
DWIDTH 21 0
BBX 17 22 2 0
BITMAP
1FFF80
3FFF80
380000
380000
380000
380000
380000
380000
380000
380000
3FFC00
3FFC00
380000
380000
380000
7FC000
FFE000
FFC000
380000
380000
380000
100000
ENDCHAR
STARTCHAR 20A4
ENCODING 8356
SWIDTH 540 0
DWIDTH 15 0
BBX 13 22 1 0
BITMAP
0300
1FC0
3DE0
3070
7020
6000
6000
6000
3000
FFC0
FFC0
1800
1800
FFC0
1800
1800
3800
3000
3018
3018
7FF8
7FF0
ENDCHAR
STARTCHAR 20A6
ENCODING 8358
SWIDTH 828 0
DWIDTH 23 0
BBX 22 22 0 0
BITMAP
100010
180030
1C0030
1E0030
1F0030
1B0030
198030
19C030
18E030
186030
FFFFFC
FFFFFC
181C30
180C30
180630
180330
1803B0
1801B0
1800F0
180070
180070
180030
ENDCHAR
STARTCHAR 20A7
ENCODING 8359
SWIDTH 648 0
DWIDTH 18 0
BBX 17 22 1 0
BITMAP
3F8000
3FF800
307C00
300C00
300E00
300600
FFFF80
FFFF80
300600
300600
300E00
301C00
3FF800
3FF000
300000
300000
300000
300000
300000
300000
300000
300000
ENDCHAR
STARTCHAR 20A9
ENCODING 8361
SWIDTH 936 0
DWIDTH 26 0
BBX 22 22 2 0
BITMAP
400008
C0300C
C0300C
E03818
607818
607818
607818
704C30
30CC30
30CC30
7FFFFC
FFFFFC
198660
198660
198660
190260
0F03C0
0F03C0
0F03C0
0E01C0
060180
060180
ENDCHAR
STARTCHAR 20AB
ENCODING 8363
SWIDTH 648 0
DWIDTH 18 0
BBX 16 22 1 0
BITMAP
000C
000C
01FF
01FF
000C
0FCC
1FEC
383C
601C
600C
C00C
C00C
C00C
E00C
601C
7018
3C70
1FE0
0380
0000
7FFE
7FFE
ENDCHAR
STARTCHAR 20AC
ENCODING 8364
SWIDTH 828 0
DWIDTH 23 0
BBX 21 22 1 0
BITMAP
003F80
00FFE0
01E0F0
038030
070000
0E0000
0C0000
1C0000
FFFF80
FFFF00
180000
180000
FFFE00
FFFE00
180000
1C0000
0C0000
060000
070010
03C078
00FFF0
003FC0
ENDCHAR
STARTCHAR 20AD
ENCODING 8365
SWIDTH 648 0
DWIDTH 18 0
BBX 17 22 0 0
BITMAP
100080
180380
180700
180E00
181C00
183800
187000
18E000
19C000
FBFF00
FFFF00
1EC000
1CE000
187000
183000
181800
181C00
180E00
180600
180700
180380
180180
ENDCHAR
STARTCHAR 20AE
ENCODING 8366
SWIDTH 648 0
DWIDTH 18 0
BBX 18 22 0 0
BITMAP
7FFF80
FFFFC0
00C000
00C000
00C000
00C000
00C000
00C600
00FE00
07F800
1FC000
18C000
00CE00
00FE00
0FF000
1FC000
10C000
00C000
00C000
00C000
00C000
00C000
ENDCHAR
STARTCHAR 20B1
ENCODING 8369
SWIDTH 648 0
DWIDTH 18 0
BBX 17 22 1 0
BITMAP
3FC000
3FF000
307C00
300C00
300E00
FFFF80
7FFF80
300600
FFFF80
FFFF80
300E00
301C00
3FF800
3FF000
300000
300000
300000
300000
300000
300000
300000
300000
ENDCHAR
STARTCHAR 20B2
ENCODING 8370
SWIDTH 756 0
DWIDTH 21 0
BBX 18 28 2 -3
BITMAP
006000
006000
006000
01FC00
07FF00
0F0780
1C01C0
380000
700000
600000
E00000
C00000
C00000
C00000
C03F80
C03FC0
C000C0
C000C0
6000C0
7000C0
3000C0
3800C0
1E03C0
07FF80
03FE00
006000
006000
006000
ENDCHAR
STARTCHAR 20B4
ENCODING 8372
SWIDTH 684 0
DWIDTH 19 0
BBX 16 22 2 0
BITMAP
07E0
1FF8
3C3C
700C
600C
000E
000C
000C
0018
FFFF
FFFE
0000
FFFE
FFFE
3000
6000
6000
6007
7006
381C
1FFC
0FF0
ENDCHAR
STARTCHAR 20B5
ENCODING 8373
SWIDTH 756 0
DWIDTH 21 0
BBX 18 28 2 -3
BITMAP
006000
006000
006000
01FC00
07FF00
0F0780
1C01C0
380000
700000
600000
E00000
C00000
C00000
C00000
C00000
C00000
C00000
C00000
600000
700000
300000
380080
1E03C0
07FF80
01FE00
006000
006000
006000
ENDCHAR
STARTCHAR 20B8
ENCODING 8376
SWIDTH 648 0
DWIDTH 18 0
BBX 18 22 0 0
BITMAP
7FFF80
FFFFC0
000000
000000
7FFF80
FFFFC0
00C000
00C000
00C000
00C000
00C000
00C000
00C000
00C000
00C000
00C000
00C000
00C000
00C000
00C000
00C000
00C000
ENDCHAR
STARTCHAR 20B9
ENCODING 8377
SWIDTH 540 0
DWIDTH 15 0
BBX 13 22 1 0
BITMAP
7FF8
FFF8
0780
01C0
00E0
7FF0
FFF8
7860
00E0
01C0
7F80
FF00
0C00
0E00
0700
0300
0380
0180
00C0
00E0
0060
0060
ENDCHAR
STARTCHAR 20BA
ENCODING 8378
SWIDTH 576 0
DWIDTH 16 0
BBX 14 22 1 0
BITMAP
1000
1800
1800
1840
19E0
1FC0
3E00
F860
DBE0
1F80
3C00
F800
D800
1800
180C
180C
180C
181C
1838
1870
1FE0
1FC0
ENDCHAR
STARTCHAR 20BC
ENCODING 8380
SWIDTH 792 0
DWIDTH 22 0
BBX 16 22 3 0
BITMAP
0180
0180
01C0
1FF8
3DBC
718E
E187
C183
C183
C183
C183
C183
C183
C183
C183
C183
C183
C183
C183
C003
C003
C003
ENDCHAR
STARTCHAR 20BD
ENCODING 8381
SWIDTH 612 0
DWIDTH 17 0
BBX 17 22 0 0
BITMAP
1FE000
1FFC00
183E00
180700
180300
180300
180380
180180
180380
180300
180700
180E00
7FFE00
FFF800
180000
180000
7FC000
FFE000
180000
180000
180000
180000
ENDCHAR
STARTCHAR 2105
ENCODING 8453
SWIDTH 936 0
DWIDTH 26 0
BBX 26 22 0 0
BITMAP
0F001000
3F803800
70803000
60006000
6000E000
C001C000
40018000
60038000
70070000
3F860000
1F8E0000
001C3C00
0018FF00
0031C380
00718180
00618180
00C100C0
01C18180
01818180
0301C380
0700FF00
06003C00
ENDCHAR
STARTCHAR 2113
ENCODING 8467
SWIDTH 396 0
DWIDTH 11 0
BBX 9 22 1 0
BITMAP
0E00
1F00
3B80
3180
3380
3300
3700
3600
3C00
3C00
3800
3800
3000
7000
F000
F000
F000
3000
3000
3B00
1F00
0E00
ENDCHAR
STARTCHAR 2116
ENCODING 8470
SWIDTH 1260 0
DWIDTH 35 0
BBX 31 22 3 0
BITMAP
C00181E0
C00187F8
E001873C
F0018E1C
F8018C0C
DC018C0E
CC018C0C
CE018C0C
C7018E1C
C38187F8
C18181F0
C1C18000
C0E187FC
C0718FFE
C0398FFC
C0198000
C01D8000
C00F8000
C0078000
C0038000
C0038000
C0018000
ENDCHAR
STARTCHAR 2122
ENCODING 8482
SWIDTH 756 0
DWIDTH 21 0
BBX 20 9 0 13
BITMAP
FF2030
7F3030
083070
083870
082CF0
0825B0
082730
082330
082030
ENDCHAR
STARTCHAR 2126
ENCODING 8486
SWIDTH 864 0
DWIDTH 24 0
BBX 20 22 2 0
BITMAP
03FC00
0FFF00
1E07C0
3801C0
7000E0
E00070
C00030
C00030
C00030
C00030
C00030
C00030
C00030
E00070
600060
3000E0
3C03C0
0F0F80
070E00
030C00
FF0FF0
FF0FF0
ENDCHAR
STARTCHAR 212E
ENCODING 8494
SWIDTH 612 0
DWIDTH 17 0
BBX 15 15 1 0
BITMAP
07E0
1FF0
3838
701C
701E
F01E
FFFE
FFFE
F000
F000
7000
7010
3C38
1FF0
07C0
ENDCHAR
STARTCHAR 215B
ENCODING 8539
SWIDTH 792 0
DWIDTH 22 0
BBX 20 22 1 0
BITMAP
100180
F80180
F80300
180700
180600
180C00
181C00
181800
183000
183000
186000
00C7C0
00C6E0
018C60
030C60
0307C0
0607C0
0C0C60
0C0C30
180C30
300EE0
3007C0
ENDCHAR
STARTCHAR 215C
ENCODING 8540
SWIDTH 828 0
DWIDTH 23 0
BBX 21 22 1 0
BITMAP
3C00C0
7E00C0
C60180
C20300
060300
1C0600
060E00
C30C00
C31800
663800
7E3000
0863E0
00E770
00C630
018630
0383E0
0303E0
060630
060618
0C0618
180770
1803E0
ENDCHAR
STARTCHAR 215D
ENCODING 8541
SWIDTH 828 0
DWIDTH 23 0
BBX 19 22 1 0
BITMAP
7E0180
7E0180
600300
600700
7C0600
7E0C00
061C00
C31800
C33000
663000
7C6000
00C7C0
00CFC0
018C60
030C60
0307C0
0607C0
0C0C60
0C1860
181860
300CE0
3007C0
ENDCHAR
STARTCHAR 215E
ENCODING 8542
SWIDTH 756 0
DWIDTH 21 0
BBX 19 22 1 0
BITMAP
FE0100
FE0380
060300
0C0600
0C0E00
080C00
181800
181800
303000
306000
606000
00C780
018FC0
018840
030CC0
060F80
060FC0
0C1CE0
181860
181860
301CE0
200FC0
ENDCHAR
STARTCHAR 2190
ENCODING 8592
SWIDTH 936 0
DWIDTH 26 0
BBX 24 11 1 2
BITMAP
040000
0C0000
1C0000
380000
7FFFFF
FFFFFF
7FFFFE
380000
1C0000
0E0000
040000
ENDCHAR
STARTCHAR 2191
ENCODING 8593
SWIDTH 468 0
DWIDTH 13 0
BBX 11 24 1 -4
BITMAP
0400
0E00
1F00
3F80
7FC0
EEE0
CE60
0E00
0E00
0E00
0E00
0E00
0E00
0E00
0E00
0E00
0E00
0E00
0E00
0E00
0E00
0E00
0E00
0E00
ENDCHAR
STARTCHAR 2192
ENCODING 8594
SWIDTH 936 0
DWIDTH 26 0
BBX 24 11 1 2
BITMAP
000030
000038
00001C
00000E
7FFFFF
FFFFFF
7FFFFE
00001C
000038
000030
000020
ENDCHAR
STARTCHAR 2193
ENCODING 8595
SWIDTH 468 0
DWIDTH 13 0
BBX 11 24 1 -4
BITMAP
0400
0E00
0E00
0E00
0E00
0E00
0E00
0E00
0E00
0E00
0E00
0E00
0E00
0E00
0E00
0E00
0E00
0E00
CE60
EEE0
7FC0
3F80
1F00
0E00
ENDCHAR
STARTCHAR 2194
ENCODING 8596
SWIDTH 936 0
DWIDTH 26 0
BBX 24 11 1 2
BITMAP
0C0030
1C0038
3C001C
78000E
FFFFFF
FFFFFF
70000E
38001C
1C0038
0E0030
040020
ENDCHAR
STARTCHAR 2195
ENCODING 8597
SWIDTH 468 0
DWIDTH 13 0
BBX 11 24 1 -4
BITMAP
0400
0E00
1F00
3F80
7FC0
EEE0
CE60
0E00
0E00
0E00
0E00
0E00
0E00
0E00
0E00
0E00
0E00
0E00
CE60
EEE0
7FC0
3F80
1F00
0E00
ENDCHAR
STARTCHAR 21A8
ENCODING 8616
SWIDTH 468 0
DWIDTH 13 0
BBX 11 24 1 -4
BITMAP
0400
0E00
1F00
3F80
7FC0
EEE0
CE60
0E00
0E00
0E00
0E00
0E00
0E00
0E00
0E00
EEE0
7FC0
3F80
1F00
0E00
0400
0000
7FC0
FFE0
ENDCHAR
STARTCHAR 2202
ENCODING 8706
SWIDTH 612 0
DWIDTH 17 0
BBX 15 22 1 0
BITMAP
1F00
3FC0
33F0
0038
001C
000C
000E
0FE6
1FF6
383E
700E
600E
E006
C006
C006
C006
E006
600E
701C
3C78
1FF0
07C0
ENDCHAR
STARTCHAR 2206
ENCODING 8710
SWIDTH 720 0
DWIDTH 20 0
BBX 18 22 1 0
BITMAP
00C000
00C000
01E000
01E000
03E000
037000
073000
063800
061800
0E1800
0C1C00
1C0C00
180E00
180600
300700
300300
700300
600380
E00180
C001C0
FFFFC0
FFFFC0
ENDCHAR
STARTCHAR 220F
ENCODING 8719
SWIDTH 720 0
DWIDTH 20 0
BBX 18 29 1 -7
BITMAP
7FFF80
FFFFC0
C001C0
C001C0
C001C0
C001C0
C001C0
C001C0
C001C0
C001C0
C001C0
C001C0
C001C0
C001C0
C001C0
C001C0
C001C0
C001C0
C001C0
C001C0
C001C0
C001C0
C001C0
C001C0
C001C0
C001C0
C001C0
C001C0
000080
ENDCHAR
STARTCHAR 2211
ENCODING 8721
SWIDTH 720 0
DWIDTH 20 0
BBX 18 29 1 -7
BITMAP
7FFF80
FFFFC0
600000
700000
380000
1C0000
0E0000
070000
038000
038000
01C000
00E000
007000
003800
001800
003800
007000
00E000
01C000
038000
030000
070000
0E0000
1C0000
380000
700000
FFFF80
FFFFC0
7FFF80
ENDCHAR
STARTCHAR 2212
ENCODING 8722
SWIDTH 540 0
DWIDTH 15 0
BBX 13 2 1 9
BITMAP
FFF8
FFF8
ENDCHAR
STARTCHAR 2215
ENCODING 8725
SWIDTH 468 0
DWIDTH 13 0
BBX 11 24 1 -2
BITMAP
0060
0060
00E0
00C0
01C0
0180
0180
0380
0300
0700
0600
0600
0E00
0C00
1C00
1800
1800
3800
3000
7000
6000
6000
E000
C000
ENDCHAR
STARTCHAR 2219
ENCODING 8729
SWIDTH 324 0
DWIDTH 9 0
BBX 6 6 1 6
BITMAP
38
7C
FC
FC
7C
38
ENDCHAR
STARTCHAR 221A
ENCODING 8730
SWIDTH 792 0
DWIDTH 22 0
BBX 20 24 1 0
BITMAP
0000E0
0001F0
000380
000300
000700
000600
000E00
000C00
001C00
001800
003800
003000
007000
C06000
E0E000
60C000
71C000
318000
3B8000
1B0000
1F0000
0E0000
0E0000
040000
ENDCHAR
STARTCHAR 221E
ENCODING 8734
SWIDTH 792 0
DWIDTH 22 0
BBX 20 11 1 3
BITMAP
0E0700
3F9FC0
71F8E0
60F060
C06030
C06030
C06030
E0F070
71F0E0
3FFFC0
1F0F80
ENDCHAR
STARTCHAR 221F
ENCODING 8735
SWIDTH 720 0
DWIDTH 20 0
BBX 17 17 1 0
BITMAP
C00000
C00000
C00000
C00000
C00000
C00000
C00000
C00000
C00000
C00000
C00000
C00000
C00000
C00000
C00000
FFFF80
FFFF80
ENDCHAR
STARTCHAR 2229
ENCODING 8745
SWIDTH 828 0
DWIDTH 23 0
BBX 17 22 3 0
BITMAP
07F000
1FFC00
381E00
700700
E00300
C00380
C00180
C00180
C00180
C00180
C00180
C00180
C00180
C00180
C00180
C00180
C00180
C00180
C00180
C00180
C00180
C00180
ENDCHAR
STARTCHAR 222B
ENCODING 8747
SWIDTH 540 0
DWIDTH 15 0
BBX 13 28 1 -3
BITMAP
00E0
01F8
01B8
0198
0380
0380
0300
0300
0300
0300
0300
0300
0300
0300
0700
0700
0600
0600
0600
0600
0600
0600
0600
0600
CE00
CE00
FC00
7800
ENDCHAR
STARTCHAR 2248
ENCODING 8776
SWIDTH 468 0
DWIDTH 13 0
BBX 11 8 1 6
BITMAP
3C00
7E60
C7E0
0080
0000
3C20
FFE0
C3C0
ENDCHAR
STARTCHAR 2260
ENCODING 8800
SWIDTH 504 0
DWIDTH 14 0
BBX 12 19 1 1
BITMAP
00C0
01C0
0180
0180
0380
FFF0
FFF0
0700
0600
0600
0600
7FE0
FFF0
7FE0
1C00
1800
1800
3800
3000
ENDCHAR
STARTCHAR 2261
ENCODING 8801
SWIDTH 504 0
DWIDTH 14 0
BBX 12 13 1 3
BITMAP
FFF0
FFF0
0000
0000
0000
FFF0
FFF0
0000
0000
0000
0000
FFF0
7FF0
ENDCHAR
STARTCHAR 2264
ENCODING 8804
SWIDTH 540 0
DWIDTH 15 0
BBX 13 18 1 2
BITMAP
0038
00F8
01E0
0780
1F00
3C00
F000
F000
3C00
1E00
0780
01E0
00F0
0038
0008
0000
FFF8
FFF8
ENDCHAR
STARTCHAR 2265
ENCODING 8805
SWIDTH 540 0
DWIDTH 15 0
BBX 13 19 1 1
BITMAP
4000
E000
7800
1E00
0F00
03C0
00F0
0078
0078
00F0
03C0
0F80
1E00
7800
F000
4000
0000
FFF8
FFF8
ENDCHAR
STARTCHAR 27E8
ENCODING 10216
SWIDTH 252 0
DWIDTH 7 0
BBX 7 22 0 0
BITMAP
06
0C
0C
18
18
30
30
60
60
C0
C0
C0
C0
60
60
30
30
18
18
0C
0C
04
ENDCHAR
STARTCHAR 27E9
ENCODING 10217
SWIDTH 252 0
DWIDTH 7 0
BBX 6 22 1 0
BITMAP
80
C0
C0
60
60
30
30
18
18
0C
0C
04
0C
0C
18
10
30
20
60
40
C0
80
ENDCHAR
STARTCHAR FB01
ENCODING 64257
SWIDTH 612 0
DWIDTH 17 0
BBX 13 22 1 0
BITMAP
01E0
0FF8
1C38
1800
1800
3800
3800
FF18
FF98
3818
3818
3818
3818
3818
3818
3818
3818
3818
3818
3818
3818
1018
ENDCHAR
STARTCHAR FB02
ENCODING 64258
SWIDTH 648 0
DWIDTH 18 0
BBX 16 22 1 0
BITMAP
01C0
0FF8
1E38
1818
1818
3818
3818
FF18
FF98
3818
3818
3818
3818
3818
3818
3818
3818
3818
3818
381C
380F
1007
ENDCHAR
ENDFONT
